<?xml version="1.0" encoding="UTF-8"?>
<!DOCTYPE svg PUBLIC "-//W3C//DTD SVG 1.1//EN" "http://www.w3.org/Graphics/SVG/1.1/DTD/svg11.dtd">
<svg xmlns="http://www.w3.org/2000/svg" version="1.1" width="127px" height="127px" style="shape-rendering:geometricPrecision; text-rendering:geometricPrecision; image-rendering:optimizeQuality; fill-rule:evenodd; clip-rule:evenodd" xmlns:xlink="http://www.w3.org/1999/xlink">
<g><path style="opacity:1" fill="#7f317e" d="M 60.5,-0.5 C 61.8333,-0.5 63.1667,-0.5 64.5,-0.5C 65.8534,1.18275 67.5201,2.51608 69.5,3.5C 70.493,11.9839 70.8264,20.6506 70.5,29.5C 69.5,29.5 68.5,29.5 67.5,29.5C 64.3752,28.5206 61.0419,28.1872 57.5,28.5C 57.3336,19.8269 57.5002,11.1603 58,2.5C 59.045,1.62656 59.8783,0.626561 60.5,-0.5 Z"/></g>
<g><path style="opacity:0.4" fill="#b187af" d="M 64.5,-0.5 C 65.5,-0.5 66.5,-0.5 67.5,-0.5C 68.6005,0.60486 69.2671,1.93819 69.5,3.5C 67.5201,2.51608 65.8534,1.18275 64.5,-0.5 Z"/></g>
<g><path style="opacity:0.862" fill="#8d478d" d="M 58.5,-0.5 C 59.1667,-0.5 59.8333,-0.5 60.5,-0.5C 59.8783,0.626561 59.045,1.62656 58,2.5C 57.5002,11.1603 57.3336,19.8269 57.5,28.5C 56.507,20.0161 56.1736,11.3494 56.5,2.5C 57.1667,1.5 57.8333,0.5 58.5,-0.5 Z"/></g>
<g><path style="opacity:0.361" fill="#d7b7d6" d="M 91.5,13.5 C 92.4486,12.8476 93.6153,12.5143 95,12.5C 97.0081,12.3068 98.5081,12.9735 99.5,14.5C 96.9039,13.7347 94.2372,13.4013 91.5,13.5 Z"/></g>
<g><path style="opacity:1" fill="#80327f" d="M 33.5,13.5 C 34.0478,15.5323 35.3812,16.5323 37.5,16.5C 41.8333,20.1667 45.8333,24.1667 49.5,28.5C 50.1495,30.4352 50.4828,32.4352 50.5,34.5C 49.8333,35.8333 48.8333,36.8333 47.5,37.5C 45.6716,38.7945 43.6716,39.7945 41.5,40.5C 36.5,36.1667 31.8333,31.5 27.5,26.5C 26.3914,24.4456 25.3914,22.2789 24.5,20C 25.3773,17.7473 26.3773,15.5806 27.5,13.5C 29.5,12.1667 31.5,12.1667 33.5,13.5 Z"/></g>
<g><path style="opacity:1" fill="#813581" d="M 91.5,13.5 C 94.2372,13.4013 96.9039,13.7347 99.5,14.5C 102.144,16.516 102.977,19.1827 102,22.5C 96.9411,28.7237 91.4411,34.3904 85.5,39.5C 83.5,39.1667 81.5,38.8333 79.5,38.5C 79.4754,35.821 78.142,34.4877 75.5,34.5C 74.9717,33.1526 74.805,31.8193 75,30.5C 77.3706,27.794 80.0372,25.4606 83,23.5C 83.4828,22.552 83.6495,21.552 83.5,20.5C 85.8333,20.1667 87.1667,18.8333 87.5,16.5C 89.4044,16.2624 90.7377,15.2624 91.5,13.5 Z"/></g>
<g><path style="opacity:0.953" fill="#a570a3" d="M 33.5,13.5 C 35.4044,13.7376 36.7377,14.7376 37.5,16.5C 35.3812,16.5323 34.0478,15.5323 33.5,13.5 Z"/></g>
<g><path style="opacity:0.329" fill="#cca4cc" d="M 91.5,13.5 C 90.7377,15.2624 89.4044,16.2624 87.5,16.5C 88.2623,14.7376 89.5956,13.7376 91.5,13.5 Z"/></g>
<g><path style="opacity:0.363" fill="#ae7fad" d="M 56.5,2.5 C 56.1736,11.3494 56.507,20.0161 57.5,28.5C 61.0419,28.1872 64.3752,28.5206 67.5,29.5C 63.4517,29.3946 59.4517,29.7279 55.5,30.5C 55.1731,20.985 55.5064,11.6517 56.5,2.5 Z"/></g>
<g><path style="opacity:0.475" fill="#aa70a8" d="M 27.5,13.5 C 26.3773,15.5806 25.3773,17.7473 24.5,20C 25.3914,22.2789 26.3914,24.4456 27.5,26.5C 20.9822,21.9171 20.9822,17.5838 27.5,13.5 Z"/></g>
<g><path style="opacity:0.361" fill="#cca8cb" d="M 87.5,16.5 C 87.1667,18.8333 85.8333,20.1667 83.5,20.5C 84.5,18.8333 85.8333,17.5 87.5,16.5 Z"/></g>
<g><path style="opacity:0.863" fill="#b080ae" d="M 49.5,28.5 C 53.8125,30.3339 54.1459,32.3339 50.5,34.5C 50.4828,32.4352 50.1495,30.4352 49.5,28.5 Z"/></g>
<g><path style="opacity:0.467" fill="#be93bb" d="M 83.5,20.5 C 83.6495,21.552 83.4828,22.552 83,23.5C 80.0372,25.4606 77.3706,27.794 75,30.5C 74.805,31.8193 74.9717,33.1526 75.5,34.5C 73.5541,33.7456 72.7207,32.4122 73,30.5C 76.3691,26.9626 79.8691,23.6293 83.5,20.5 Z"/></g>
<g><path style="opacity:0.416" fill="#ad75ac" d="M 75.5,34.5 C 78.142,34.4877 79.4754,35.821 79.5,38.5C 77.8333,37.5 76.5,36.1667 75.5,34.5 Z"/></g>
<g><path style="opacity:0.992" fill="#a973a7" d="M 79.5,38.5 C 81.5,38.8333 83.5,39.1667 85.5,39.5C 82.5816,43.6574 80.5816,43.3241 79.5,38.5 Z"/></g>
<g><path style="opacity:0.4" fill="#a873a7" d="M 47.5,37.5 C 46.942,39.5635 45.7754,41.2302 44,42.5C 42.699,42.3613 41.8656,41.6946 41.5,40.5C 43.6716,39.7945 45.6716,38.7945 47.5,37.5 Z"/></g>
<g><path style="opacity:0.265" fill="#d5c1d5" d="M 15.5,45.5 C 24.9856,44.5062 34.6522,44.1729 44.5,44.5C 44.5,47.8333 44.5,51.1667 44.5,54.5C 43.5233,51.7131 43.19,48.7131 43.5,45.5C 34.1667,45.5 24.8333,45.5 15.5,45.5 Z"/></g>
<g><path style="opacity:1" fill="#782377" d="M 14.5,45.5 C 14.8333,45.5 15.1667,45.5 15.5,45.5C 24.8333,45.5 34.1667,45.5 43.5,45.5C 43.19,48.7131 43.5233,51.7131 44.5,54.5C 44.5,54.8333 44.5,55.1667 44.5,55.5C 39.8806,56.8275 34.8806,57.4942 29.5,57.5C 24.5,57.3333 19.5,57.1667 14.5,57C 11.8747,53.1681 11.8747,49.3348 14.5,45.5 Z"/></g>
<g><path style="opacity:1" fill="#813480" d="M 112.5,45.5 C 113.344,49.0991 113.677,52.7657 113.5,56.5C 113.5,57.1667 113.167,57.5 112.5,57.5C 101.986,57.8276 91.6532,57.4942 81.5,56.5C 81.8306,52.4789 82.164,48.6456 82.5,45C 92.5771,44.1934 102.577,44.36 112.5,45.5 Z"/></g>
<g><path style="opacity:0.918" fill="#a067a1" d="M 112.5,45.5 C 117.072,48.9121 117.405,52.5788 113.5,56.5C 113.677,52.7657 113.344,49.0991 112.5,45.5 Z"/></g>
<g><path style="opacity:0.718" fill="#a772a7" d="M 14.5,45.5 C 11.8747,49.3348 11.8747,53.1681 14.5,57C 19.5,57.1667 24.5,57.3333 29.5,57.5C 34.8806,57.4942 39.8806,56.8275 44.5,55.5C 45.404,56.209 45.7373,57.209 45.5,58.5C 34.8281,58.6665 24.1615,58.4998 13.5,58C 8.16976,53.2189 8.50309,49.0522 14.5,45.5 Z"/></g>
<g><path style="opacity:0.71" fill="#a774a7" d="M 81.5,56.5 C 91.6532,57.4942 101.986,57.8276 112.5,57.5C 101.993,58.8235 91.3261,58.8235 80.5,57.5C 80.6236,56.8933 80.9569,56.56 81.5,56.5 Z"/></g>
<g><path style="opacity:0.49" fill="#c4a0c3" d="M 46.5,60.5 C 45.3951,61.6005 44.0618,62.2671 42.5,62.5C 43.375,60.1939 44.7084,59.5272 46.5,60.5 Z"/></g>
<g><path style="opacity:0.475" fill="#cc9fcb" d="M 82.5,61.5 C 81.0413,61.4326 79.7079,61.7659 78.5,62.5C 79.244,59.1155 80.5774,58.7822 82.5,61.5 Z"/></g>
<g><path style="opacity:1" fill="#80327f" d="M 82.5,61.5 C 87.5,65.8333 92.1667,70.5 96.5,75.5C 96.5,77.5 97.5,78.5 99.5,78.5C 102.34,80.7151 103.007,83.3818 101.5,86.5C 99.9519,86.8212 99.2852,87.8212 99.5,89.5C 99.1667,89.5 98.8333,89.5 98.5,89.5C 95.4299,89.6323 92.4299,89.299 89.5,88.5C 83.8686,83.3697 78.3686,78.0363 73,72.5C 72.2274,70.6476 72.7274,69.3143 74.5,68.5C 75.9063,68.0269 76.573,67.0269 76.5,65.5C 77.9063,65.0269 78.573,64.0269 78.5,62.5C 79.7079,61.7659 81.0413,61.4326 82.5,61.5 Z"/></g>
<g><path style="opacity:1" fill="#7f327f" d="M 46.5,60.5 C 47.6737,61.5137 48.3404,62.847 48.5,64.5C 48.5544,66.632 49.5544,67.9653 51.5,68.5C 51.5,70.1667 51.5,71.8333 51.5,73.5C 46.5,79.1667 41.1667,84.5 35.5,89.5C 32.0977,89.6576 28.7644,89.3242 25.5,88.5C 25.5,85.5 25.5,82.5 25.5,79.5C 27.8333,79.1667 29.1667,77.8333 29.5,75.5C 33.5,70.8333 37.8333,66.5 42.5,62.5C 44.0618,62.2671 45.3951,61.6005 46.5,60.5 Z"/></g>
<g><path style="opacity:0.204" fill="#cbacca" d="M 78.5,62.5 C 78.573,64.0269 77.9063,65.0269 76.5,65.5C 76.427,63.9731 77.0937,62.9731 78.5,62.5 Z"/></g>
<g><path style="opacity:0.741" fill="#ab78aa" d="M 48.5,64.5 C 50.2624,65.2623 51.2624,66.5956 51.5,68.5C 49.5544,67.9653 48.5544,66.632 48.5,64.5 Z"/></g>
<g><path style="opacity:0.255" fill="#c49ac4" d="M 76.5,65.5 C 76.573,67.0269 75.9063,68.0269 74.5,68.5C 74.427,66.9731 75.0937,65.9731 76.5,65.5 Z"/></g>
<g><path style="opacity:0.647" fill="#aa77a9" d="M 51.5,68.5 C 54.1667,70.1667 54.1667,71.8333 51.5,73.5C 51.5,71.8333 51.5,70.1667 51.5,68.5 Z"/></g>
<g><path style="opacity:0.588" fill="#b58bb4" d="M 96.5,75.5 C 97.8333,76.1667 98.8333,77.1667 99.5,78.5C 97.5,78.5 96.5,77.5 96.5,75.5 Z"/></g>
<g><path style="opacity:0.58" fill="#ae7bac" d="M 29.5,75.5 C 29.1667,77.8333 27.8333,79.1667 25.5,79.5C 26.5,77.8333 27.8333,76.5 29.5,75.5 Z"/></g>
<g><path style="opacity:0.659" fill="#fad59e" d="M 70.5,85.5 C 70.5,84.5 70.5,83.5 70.5,82.5C 65.5,82.5 60.5,82.5 55.5,82.5C 55.5,83.5 55.5,84.5 55.5,85.5C 54.5318,83.3926 54.1984,81.0593 54.5,78.5C 60.1667,78.5 65.8333,78.5 71.5,78.5C 71.8016,81.0593 71.4682,83.3926 70.5,85.5 Z"/></g>
<g><path style="opacity:1" fill="#fab13f" d="M 55.5,79.5 C 60.544,79.1725 65.544,79.5059 70.5,80.5C 68,80.8333 65.5,81.1667 63,81.5C 60.0706,81.4752 57.5706,80.8086 55.5,79.5 Z"/></g>
<g><path style="opacity:0.975" fill="#fab347" d="M 70.5,85.5 C 65.5,85.5 60.5,85.5 55.5,85.5C 55.5,84.5 55.5,83.5 55.5,82.5C 60.5,82.5 65.5,82.5 70.5,82.5C 70.5,83.5 70.5,84.5 70.5,85.5 Z"/></g>
<g><path style="opacity:0.502" fill="#b17eb1" d="M 25.5,79.5 C 25.5,82.5 25.5,85.5 25.5,88.5C 22.8333,85.5 22.8333,82.5 25.5,79.5 Z"/></g>
<g><path style="opacity:0.395" fill="#f9e1bb" d="M 55.5,85.5 C 60.5,85.5 65.5,85.5 70.5,85.5C 69.5,86.5 68.5,87.5 67.5,88.5C 66.4855,87.2353 64.9855,86.5687 63,86.5C 61.2933,86.5085 59.7933,86.8418 58.5,87.5C 57.2905,87.0679 56.2905,86.4013 55.5,85.5 Z"/></g>
<g><path style="opacity:0.953" fill="#fbc16a" d="M 67.5,88.5 C 64.0729,90.1768 61.0729,89.8435 58.5,87.5C 59.7933,86.8418 61.2933,86.5085 63,86.5C 64.9855,86.5687 66.4855,87.2353 67.5,88.5 Z"/></g>
<g><path style="opacity:0.451" fill="#b78ab6" d="M 101.5,86.5 C 101.573,88.0269 100.906,89.0269 99.5,89.5C 99.2852,87.8212 99.9519,86.8212 101.5,86.5 Z"/></g>
<g><path style="opacity:0.8" fill="#b487b3" d="M 25.5,88.5 C 28.7644,89.3242 32.0977,89.6576 35.5,89.5C 32.6965,90.6378 29.6965,90.8045 26.5,90C 25.944,89.6174 25.6107,89.1174 25.5,88.5 Z"/></g>
<g><path style="opacity:0.769" fill="#ac79ab" d="M 89.5,88.5 C 92.4299,89.299 95.4299,89.6323 98.5,89.5C 96.0336,90.6341 93.367,90.8007 90.5,90C 89.944,89.6174 89.6107,89.1174 89.5,88.5 Z"/></g>
<g><path style="opacity:0.997" fill="#9c5f9b" d="M 62.5,103.5 C 67.1225,102.408 68.9558,104.075 68,108.5C 62.4205,110.752 60.5871,109.085 62.5,103.5 Z"/></g>
<g><path style="opacity:1" fill="#7a287a" d="M -0.5,105.5 C 0.833333,105.5 2.16667,105.5 3.5,105.5C 3.5,108.167 3.5,110.833 3.5,113.5C 6.5,113.5 9.5,113.5 12.5,113.5C 12.5,110.833 12.5,108.167 12.5,105.5C 13.8333,105.5 15.1667,105.5 16.5,105.5C 16.5,112.167 16.5,118.833 16.5,125.5C 15.5,125.5 14.5,125.5 13.5,125.5C 14.0356,122.302 13.369,119.635 11.5,117.5C 9.16667,117.5 6.83333,117.5 4.5,117.5C 3.52693,119.948 3.1936,122.615 3.5,125.5C 2.16667,125.5 0.833333,125.5 -0.5,125.5C -0.5,118.833 -0.5,112.167 -0.5,105.5 Z"/></g>
<g><path style="opacity:0.165" fill="#d0b6d0" d="M 58.5,111.5 C 56.1667,111.5 53.8333,111.5 51.5,111.5C 51.5,109.5 51.5,107.5 51.5,105.5C 49.8333,105.5 48.1667,105.5 46.5,105.5C 46.8612,111.254 46.5279,115.587 45.5,118.5C 45.1788,116.952 44.1788,116.285 42.5,116.5C 42.5,116.167 42.5,115.833 42.5,115.5C 44.9728,115.396 45.6394,114.396 44.5,112.5C 41.9159,111.607 39.2492,111.274 36.5,111.5C 39.2301,110.183 42.0635,110.183 45,111.5C 45.4966,109.19 45.6633,106.857 45.5,104.5C 47.8333,104.5 50.1667,104.5 52.5,104.5C 52.5,106.5 52.5,108.5 52.5,110.5C 54.7354,110.205 56.7354,110.539 58.5,111.5 Z"/></g>
<g><path style="opacity:0.208" fill="#c6a3c5" d="M -0.5,105.5 C -0.5,105.167 -0.5,104.833 -0.5,104.5C 1.16667,104.5 2.83333,104.5 4.5,104.5C 4.5,107.167 4.5,109.833 4.5,112.5C 6.83333,112.5 9.16667,112.5 11.5,112.5C 11.5,109.833 11.5,107.167 11.5,104.5C 13.8333,104.5 16.1667,104.5 18.5,104.5C 18.19,107.713 18.5233,110.713 19.5,113.5C 19.1667,114.167 18.8333,114.833 18.5,115.5C 17.8333,112.167 17.1667,108.833 16.5,105.5C 15.1667,105.5 13.8333,105.5 12.5,105.5C 12.5,108.167 12.5,110.833 12.5,113.5C 9.5,113.5 6.5,113.5 3.5,113.5C 3.5,110.833 3.5,108.167 3.5,105.5C 2.16667,105.5 0.833333,105.5 -0.5,105.5 Z"/></g>
<g><path style="opacity:0.451" fill="#cbabca" d="M 29.5,111.5 C 26.4299,111.368 23.4299,111.701 20.5,112.5C 20.6107,111.883 20.944,111.383 21.5,111C 24.367,110.199 27.0336,110.366 29.5,111.5 Z"/></g>
<g><path style="opacity:0.51" fill="#f8daa8" d="M 80.5,111.5 C 84.97,110.514 89.6367,110.181 94.5,110.5C 94.5,111.833 94.5,113.167 94.5,114.5C 97.0101,114.054 99.0101,114.72 100.5,116.5C 98.2362,115.781 95.9029,115.448 93.5,115.5C 93.5,115.167 93.5,114.833 93.5,114.5C 93.5,113.5 93.5,112.5 93.5,111.5C 89.1667,111.5 84.8333,111.5 80.5,111.5 Z"/></g>
<g><path style="opacity:0.999" fill="#7b2a7b" d="M 29.5,111.5 C 31.8906,114.724 32.8906,118.39 32.5,122.5C 31.8333,123.5 31.1667,124.5 30.5,125.5C 21.9415,127.607 17.9415,124.274 18.5,115.5C 18.8333,114.833 19.1667,114.167 19.5,113.5C 19.5,112.833 19.8333,112.5 20.5,112.5C 23.4299,111.701 26.4299,111.368 29.5,111.5 Z M 27.5,121.5 C 26.0413,121.567 24.7079,121.234 23.5,120.5C 23.9658,115.416 25.6325,114.75 28.5,118.5C 27.8728,119.417 27.5394,120.417 27.5,121.5 Z"/></g>
<g><path style="opacity:0.998" fill="#883f87" d="M 58.5,111.5 C 59.8333,111.5 60.5,112.167 60.5,113.5C 61.436,117.735 61.7693,122.069 61.5,126.5C 59.5,126.5 57.5,126.5 55.5,126.5C 55.5,123.167 55.5,119.833 55.5,116.5C 54.5,116.5 53.5,116.5 52.5,116.5C 52.5,119.833 52.5,123.167 52.5,126.5C 50.1667,126.5 47.8333,126.5 45.5,126.5C 45.1667,125.167 44.8333,125.167 44.5,126.5C 40.8333,126.5 37.1667,126.5 33.5,126.5C 33.5,126.167 33.5,125.833 33.5,125.5C 33.5,124.5 33.5,123.5 33.5,122.5C 35.3417,122.723 37.175,123.057 39,123.5C 39.8333,123.167 40.6667,122.833 41.5,122.5C 41.3764,121.893 41.0431,121.56 40.5,121.5C 39.3646,119.787 37.698,119.12 35.5,119.5C 35.5,118.833 35.1667,118.5 34.5,118.5C 34.3939,115.921 35.0605,113.588 36.5,111.5C 39.2492,111.274 41.9159,111.607 44.5,112.5C 45.6394,114.396 44.9728,115.396 42.5,115.5C 41.2918,114.218 39.9584,114.218 38.5,115.5C 38.6236,116.107 38.9569,116.44 39.5,116.5C 40.5,116.5 41.5,116.5 42.5,116.5C 43.2905,117.401 44.2905,118.068 45.5,118.5C 46.5279,115.587 46.8612,111.254 46.5,105.5C 48.1667,105.5 49.8333,105.5 51.5,105.5C 51.5,107.5 51.5,109.5 51.5,111.5C 53.8333,111.5 56.1667,111.5 58.5,111.5 Z M 42.5,116.5 C 44.1788,116.285 45.1788,116.952 45.5,118.5C 44.2905,118.068 43.2905,117.401 42.5,116.5 Z"/></g>
<g><path style="opacity:0.996" fill="#884087" d="M 78.5,111.5 C 79.1098,112.391 79.4431,113.391 79.5,114.5C 77.8333,114.5 76.1667,114.5 74.5,114.5C 73.9569,114.56 73.6236,114.893 73.5,115.5C 74.6888,116.429 76.0222,116.762 77.5,116.5C 81.9499,118.977 82.6166,122.31 79.5,126.5C 75.8333,126.5 72.1667,126.5 68.5,126.5C 68.5,126.167 68.5,125.833 68.5,125.5C 68.5,124.5 68.5,123.5 68.5,122.5C 69.5,122.5 70.5,122.5 71.5,122.5C 72.9187,123.451 74.5853,123.784 76.5,123.5C 76.5,122.5 76.5,121.5 76.5,120.5C 74.1944,120.007 71.861,119.674 69.5,119.5C 69.1667,119.5 68.8333,119.5 68.5,119.5C 68.5,119.167 68.5,118.833 68.5,118.5C 68.5,116.5 68.5,114.5 68.5,112.5C 71.7861,111.793 75.1194,111.46 78.5,111.5 Z"/></g>
<g><path style="opacity:0.063" fill="#d0b6d1" d="M 78.5,111.5 C 79.1667,111.5 79.8333,111.5 80.5,111.5C 80.5,112.167 80.5,112.833 80.5,113.5C 80.5,113.833 80.5,114.167 80.5,114.5C 80.1667,114.5 79.8333,114.5 79.5,114.5C 79.4431,113.391 79.1098,112.391 78.5,111.5 Z"/></g>
<g><path style="opacity:0.992" fill="#fab74f" d="M 80.5,111.5 C 84.8333,111.5 89.1667,111.5 93.5,111.5C 93.5,112.5 93.5,113.5 93.5,114.5C 92.8333,114.5 92.1667,114.5 91.5,114.5C 89.5864,117.684 88.9197,121.351 89.5,125.5C 88.1667,125.5 86.8333,125.5 85.5,125.5C 85.5,121.5 85.5,117.5 85.5,113.5C 83.8333,113.5 82.1667,113.5 80.5,113.5C 80.5,112.833 80.5,112.167 80.5,111.5 Z"/></g>
<g><path style="opacity:0.051" fill="#f6f0e0" d="M 111.5,110.5 C 111.799,112.604 111.466,114.604 110.5,116.5C 109.893,116.376 109.56,116.043 109.5,115.5C 110.167,113.833 110.833,112.167 111.5,110.5 Z"/></g>
<g><path style="opacity:0.204" fill="#c9adca" d="M 67.5,111.5 C 67.1667,111.5 66.8333,111.5 66.5,111.5C 65.5,111.5 64.5,111.5 63.5,111.5C 62.5128,116.305 62.1795,121.305 62.5,126.5C 62.1667,126.5 61.8333,126.5 61.5,126.5C 61.7693,122.069 61.436,117.735 60.5,113.5C 61.404,112.791 61.7373,111.791 61.5,110.5C 63.7354,110.205 65.7354,110.539 67.5,111.5 Z"/></g>
<g><path style="opacity:0.465" fill="#b281b0" d="M 78.5,111.5 C 75.1194,111.46 71.7861,111.793 68.5,112.5C 68.5,114.5 68.5,116.5 68.5,118.5C 68.1667,118.5 67.8333,118.5 67.5,118.5C 67.5,117.833 67.1667,117.5 66.5,117.5C 66.5,115.5 66.5,113.5 66.5,111.5C 66.8333,111.5 67.1667,111.5 67.5,111.5C 71.3163,110.38 74.9829,110.38 78.5,111.5 Z"/></g>
<g><path style="opacity:0.545" fill="#ba92b9" d="M 74.5,114.5 C 76.1667,114.5 77.8333,114.5 79.5,114.5C 79.5,115.833 78.8333,116.5 77.5,116.5C 76.5,115.833 75.5,115.167 74.5,114.5 Z"/></g>
<g><path style="opacity:0.227" fill="#faedd4" d="M 115.5,111.5 C 116.404,112.209 116.737,113.209 116.5,114.5C 118.099,114.232 119.432,114.566 120.5,115.5C 118.833,115.5 117.167,115.5 115.5,115.5C 115.5,114.167 115.5,112.833 115.5,111.5 Z"/></g>
<g><path style="opacity:0.716" fill="#9b5c9a" d="M 29.5,111.5 C 31.0174,111.511 32.1841,112.177 33,113.5C 33.8159,112.177 34.9826,111.511 36.5,111.5C 35.0605,113.588 34.3939,115.921 34.5,118.5C 33.5655,119.568 33.2322,120.901 33.5,122.5C 33.1667,122.5 32.8333,122.5 32.5,122.5C 32.8906,118.39 31.8906,114.724 29.5,111.5 Z"/></g>
<g><path style="opacity:0.078" fill="#e3d2e2" d="M 42.5,115.5 C 41.209,115.263 40.209,115.596 39.5,116.5C 38.9569,116.44 38.6236,116.107 38.5,115.5C 39.9584,114.218 41.2918,114.218 42.5,115.5 Z"/></g>
<g><path style="opacity:0.178" fill="#f9dfb5" d="M 80.5,114.5 C 80.5,114.167 80.5,113.833 80.5,113.5C 82.1667,113.5 83.8333,113.5 85.5,113.5C 85.5,117.5 85.5,121.5 85.5,125.5C 86.8333,125.5 88.1667,125.5 89.5,125.5C 89.5,125.833 89.5,126.167 89.5,126.5C 87.8333,126.5 86.1667,126.5 84.5,126.5C 84.5,122.833 84.5,119.167 84.5,115.5C 83.0413,115.567 81.7079,115.234 80.5,114.5 Z"/></g>
<g><path style="opacity:0.337" fill="#b182b0" d="M 27.5,121.5 C 27.5394,120.417 27.8728,119.417 28.5,118.5C 25.6325,114.75 23.9658,115.416 23.5,120.5C 22.2121,118.965 22.2121,117.299 23.5,115.5C 27.0491,113.869 29.0491,115.036 29.5,119C 29.3158,120.376 28.6491,121.209 27.5,121.5 Z"/></g>
<g><path style="opacity:0.984" fill="#fbbb5a" d="M 111.5,110.5 C 113.099,110.232 114.432,110.566 115.5,111.5C 115.5,112.833 115.5,114.167 115.5,115.5C 117.167,115.5 118.833,115.5 120.5,115.5C 121.906,115.973 122.573,116.973 122.5,118.5C 122.5,119.833 122.5,121.167 122.5,122.5C 123.833,122.5 125.167,122.5 126.5,122.5C 126.5,123.833 126.5,125.167 126.5,126.5C 123.833,126.5 121.167,126.5 118.5,126.5C 117.62,124.611 117.62,122.611 118.5,120.5C 118.179,118.952 117.179,118.285 115.5,118.5C 115.5,120.833 115.5,123.167 115.5,125.5C 115.5,125.833 115.5,126.167 115.5,126.5C 114.167,126.5 112.833,126.5 111.5,126.5C 111.167,125.167 110.833,125.167 110.5,126.5C 108.167,126.5 105.833,126.5 103.5,126.5C 103.5,125.833 103.167,125.5 102.5,125.5C 101.072,121.579 98.4057,120.579 94.5,122.5C 96.9749,122.964 98.9749,123.964 100.5,125.5C 97.4299,125.632 94.4299,125.299 91.5,124.5C 90.1667,121.833 90.1667,119.167 91.5,116.5C 91.5,116.167 91.5,115.833 91.5,115.5C 92.1667,115.5 92.8333,115.5 93.5,115.5C 95.9029,115.448 98.2362,115.781 100.5,116.5C 102.307,115.385 104.307,114.719 106.5,114.5C 107.726,114.52 108.726,114.853 109.5,115.5C 109.56,116.043 109.893,116.376 110.5,116.5C 111.466,114.604 111.799,112.604 111.5,110.5 Z M 105.5,119.5 C 110.614,119.349 111.281,120.349 107.5,122.5C 105.952,122.179 105.285,121.179 105.5,119.5 Z"/></g>
<g><path style="opacity:0.552" fill="#925191" d="M 16.5,105.5 C 17.1667,108.833 17.8333,112.167 18.5,115.5C 17.9415,124.274 21.9415,127.607 30.5,125.5C 30.5,125.833 30.5,126.167 30.5,126.5C 27.1667,126.5 23.8333,126.5 20.5,126.5C 20.1667,125.833 19.8333,125.167 19.5,124.5C 17.8042,120.978 17.1375,121.644 17.5,126.5C 15.5,126.5 13.5,126.5 11.5,126.5C 11.5,123.5 11.5,120.5 11.5,117.5C 13.369,119.635 14.0356,122.302 13.5,125.5C 14.5,125.5 15.5,125.5 16.5,125.5C 16.5,118.833 16.5,112.167 16.5,105.5 Z"/></g>
<g><path style="opacity:1" fill="#792679" d="M 63.5,111.5 C 64.5,111.5 65.5,111.5 66.5,111.5C 66.5,113.5 66.5,115.5 66.5,117.5C 66.5,120.167 66.5,122.833 66.5,125.5C 65.5,125.5 64.5,125.5 63.5,125.5C 63.5,120.833 63.5,116.167 63.5,111.5 Z"/></g>
<g><path style="opacity:0.082" fill="#f6ecce" d="M 94.5,117.5 C 96.9828,117.73 97.4828,118.397 96,119.5C 94.9701,119.164 94.4701,118.497 94.5,117.5 Z"/></g>
<g><path style="opacity:0.918" fill="#b07faf" d="M 35.5,119.5 C 37.698,119.12 39.3646,119.787 40.5,121.5C 39.5,121.5 38.5,121.5 37.5,121.5C 36.8333,120.833 36.1667,120.167 35.5,119.5 Z"/></g>
<g><path style="opacity:0.039" fill="#f3eeda" d="M 122.5,118.5 C 123.404,119.209 123.737,120.209 123.5,121.5C 124.5,121.5 125.5,121.5 126.5,121.5C 126.5,121.833 126.5,122.167 126.5,122.5C 125.167,122.5 123.833,122.5 122.5,122.5C 122.5,121.167 122.5,119.833 122.5,118.5 Z"/></g>
<g><path style="opacity:0.031" fill="#f7efea" d="M 118.5,120.5 C 117.883,120.389 117.383,120.056 117,119.5C 116.809,121.708 116.309,123.708 115.5,125.5C 115.5,123.167 115.5,120.833 115.5,118.5C 117.179,118.285 118.179,118.952 118.5,120.5 Z"/></g>
<g><path style="opacity:0.161" fill="#c7abc6" d="M 23.5,120.5 C 24.7079,121.234 26.0413,121.567 27.5,121.5C 27.0831,122.124 26.4164,122.457 25.5,122.5C 24.2867,122.253 23.62,121.586 23.5,120.5 Z"/></g>
<g><path style="opacity:0.224" fill="#c4a2c4" d="M 34.5,118.5 C 35.1667,118.5 35.5,118.833 35.5,119.5C 34.9569,119.56 34.6236,119.893 34.5,120.5C 35.325,121.386 36.325,121.719 37.5,121.5C 38.5,122.833 39.5,122.833 40.5,121.5C 41.0431,121.56 41.3764,121.893 41.5,122.5C 40.6667,122.833 39.8333,123.167 39,123.5C 37.175,123.057 35.3417,122.723 33.5,122.5C 33.2322,120.901 33.5655,119.568 34.5,118.5 Z"/></g>
<g><path style="opacity:0.322" fill="#deccde" d="M 67.5,118.5 C 67.8333,118.5 68.1667,118.5 68.5,118.5C 68.5,118.833 68.5,119.167 68.5,119.5C 69.0998,120.9 70.0998,121.9 71.5,122.5C 70.5,122.5 69.5,122.5 68.5,122.5C 67.5655,121.432 67.2322,120.099 67.5,118.5 Z"/></g>
<g><path style="opacity:0.051" fill="#f9e5d0" d="M 105.5,119.5 C 107.265,118.539 109.265,118.205 111.5,118.5C 111.5,119.833 111.5,121.167 111.5,122.5C 110.167,122.5 108.833,122.5 107.5,122.5C 111.281,120.349 110.614,119.349 105.5,119.5 Z"/></g>
<g><path style="opacity:0.8" fill="#a670a4" d="M 69.5,119.5 C 71.861,119.674 74.1944,120.007 76.5,120.5C 76.5,121.5 76.5,122.5 76.5,123.5C 74.5853,123.784 72.9187,123.451 71.5,122.5C 72.552,122.649 73.552,122.483 74.5,122C 72.6854,121.243 71.0188,120.41 69.5,119.5 Z"/></g>
<g><path style="opacity:0.22" fill="#f9e1c2" d="M 102.5,125.5 C 101.833,125.5 101.167,125.5 100.5,125.5C 98.9749,123.964 96.9749,122.964 94.5,122.5C 98.4057,120.579 101.072,121.579 102.5,125.5 Z"/></g>
<g><path style="opacity:0.29" fill="#ae7eaf" d="M 4.5,117.5 C 4.5,120.5 4.5,123.5 4.5,126.5C 2.83333,126.5 1.16667,126.5 -0.5,126.5C -0.5,126.167 -0.5,125.833 -0.5,125.5C 0.833333,125.5 2.16667,125.5 3.5,125.5C 3.1936,122.615 3.52693,119.948 4.5,117.5 Z"/></g>
<g><path style="opacity:0.059" fill="#e2d6e2" d="M 19.5,124.5 C 18.6618,124.842 18.3284,125.508 18.5,126.5C 18.1667,126.5 17.8333,126.5 17.5,126.5C 17.1375,121.644 17.8042,120.978 19.5,124.5 Z"/></g>
<g><path style="opacity:0.02" fill="#fbf3d9" d="M 91.5,114.5 C 91.5,114.833 91.5,115.167 91.5,115.5C 90.1667,115.833 90.1667,116.167 91.5,116.5C 90.1667,119.167 90.1667,121.833 91.5,124.5C 90.8333,124.833 90.1667,125.167 89.5,125.5C 88.9197,121.351 89.5864,117.684 91.5,114.5 Z"/></g>
<g><path style="opacity:0.039" fill="#d8b9d7" d="M 32.5,122.5 C 32.8333,122.5 33.1667,122.5 33.5,122.5C 33.5,123.5 33.5,124.5 33.5,125.5C 32.5,125.5 31.5,125.5 30.5,125.5C 31.1667,124.5 31.8333,123.5 32.5,122.5 Z"/></g>
<g><path style="opacity:0.522" fill="#975897" d="M 63.5,111.5 C 63.5,116.167 63.5,120.833 63.5,125.5C 64.5,125.5 65.5,125.5 66.5,125.5C 66.5,122.833 66.5,120.167 66.5,117.5C 67.1667,117.5 67.5,117.833 67.5,118.5C 67.2322,120.099 67.5655,121.432 68.5,122.5C 68.5,123.5 68.5,124.5 68.5,125.5C 67.8333,125.5 67.5,125.833 67.5,126.5C 65.8333,126.5 64.1667,126.5 62.5,126.5C 62.1795,121.305 62.5128,116.305 63.5,111.5 Z"/></g>
<g><path style="opacity:0.573" fill="#fbe0b2" d="M 91.5,124.5 C 94.4299,125.299 97.4299,125.632 100.5,125.5C 100.5,125.833 100.5,126.167 100.5,126.5C 97.8333,126.5 95.1667,126.5 92.5,126.5C 92.1667,125.833 91.8333,125.167 91.5,124.5 Z"/></g>
</svg>
