<?xml version="1.0" encoding="UTF-8"?>
<!DOCTYPE svg PUBLIC "-//W3C//DTD SVG 1.1//EN" "http://www.w3.org/Graphics/SVG/1.1/DTD/svg11.dtd">
<svg xmlns="http://www.w3.org/2000/svg" version="1.1" width="2700px" height="2700px" style="shape-rendering:geometricPrecision; text-rendering:geometricPrecision; image-rendering:optimizeQuality; fill-rule:evenodd; clip-rule:evenodd" xmlns:xlink="http://www.w3.org/1999/xlink">
<g><path style="opacity:0.988" fill="#263672" d="M 1365.5,939.5 C 1378.17,939.333 1390.84,939.5 1403.5,940C 1413.97,943.8 1422.8,949.967 1430,958.5C 1473.75,1012.31 1517.75,1065.98 1562,1119.5C 1579.37,1155.18 1571.54,1184.02 1538.5,1206C 1514.04,1219.52 1490.71,1217.86 1468.5,1201C 1421.07,1144.63 1374.24,1087.79 1328,1030.5C 1311.71,994.024 1320.88,965.19 1355.5,944C 1358.89,942.38 1362.23,940.88 1365.5,939.5 Z"/></g>
<g><path style="opacity:0.975" fill="#363976" d="M 1198.5,960.5 C 1198.61,962.648 1197.94,962.981 1196.5,961.5C 1195.7,961.957 1195.37,962.624 1195.5,963.5C 1194.85,962.909 1194.18,962.243 1193.5,961.5C 1192.5,1099.17 1192.17,1236.83 1192.5,1374.5C 1192.17,1374.5 1191.83,1374.5 1191.5,1374.5C 1191.5,1237.19 1191.5,1100.02 1191.5,963C 1189.39,962.558 1188.05,963.391 1187.5,965.5C 1186.5,965.5 1185.5,965.5 1184.5,965.5C 1179.93,966.949 1176.26,969.616 1173.5,973.5C 1173.86,974.522 1174.52,975.189 1175.5,975.5C 1175.5,1105.5 1175.5,1235.5 1175.5,1365.5C 1175.17,1365.5 1174.83,1365.5 1174.5,1365.5C 1174.67,1235.83 1174.5,1106.17 1174,976.5C 1173.62,977.056 1173.12,977.389 1172.5,977.5C 1172.37,972.154 1171.04,972.154 1168.5,977.5C 1165.37,978.714 1163.37,981.047 1162.5,984.5C 1162.62,985.107 1162.96,985.44 1163.5,985.5C 1163.5,985.833 1163.5,986.167 1163.5,986.5C 1163.17,986.5 1162.83,986.5 1162.5,986.5C 1161.78,986.918 1161.28,987.584 1161,988.5C 1160,987.167 1159,987.167 1158,988.5C 1157.69,989.766 1157.19,990.933 1156.5,992C 1156.83,992.333 1157.17,992.667 1157.5,993C 1155.88,993.236 1154.88,994.069 1154.5,995.5C 1153.66,996.671 1152.99,998.005 1152.5,999.5C 1152.54,1000.58 1152.87,1001.58 1153.5,1002.5C 1152.76,1003.18 1152.09,1003.85 1151.5,1004.5C 1150.12,1006.08 1149.12,1007.91 1148.5,1010C 1150.04,1010.32 1151.37,1011.49 1152.5,1013.5C 1151.26,1012.59 1149.93,1012.42 1148.5,1013C 1149.74,1014.15 1150.74,1015.49 1151.5,1017C 1150.91,1017.46 1150.24,1017.63 1149.5,1017.5C 1148.66,1017.84 1148.33,1018.51 1148.5,1019.5C 1147.5,1040.66 1147.17,1061.99 1147.5,1083.5C 1147.17,1084.17 1146.83,1084.83 1146.5,1085.5C 1118.5,1085.67 1090.5,1085.5 1062.5,1085C 1035.1,1082.27 1017.27,1067.77 1009,1041.5C 1002.57,1015.91 1008.41,993.747 1026.5,975C 1033.83,968.836 1042.16,964.503 1051.5,962C 1100.47,960.529 1149.47,960.029 1198.5,960.5 Z"/></g>
<g><path style="opacity:1" fill="#789d50" d="M 1198.5,960.5 C 1199.5,960.5 1200.5,960.5 1201.5,960.5C 1200.83,961.167 1200.17,961.833 1199.5,962.5C 1199.5,962.833 1199.5,963.167 1199.5,963.5C 1198.51,963.328 1197.84,963.662 1197.5,964.5C 1196.83,964.167 1196.17,963.833 1195.5,963.5C 1195.37,962.624 1195.7,961.957 1196.5,961.5C 1197.94,962.981 1198.61,962.648 1198.5,960.5 Z"/></g>
<g><path style="opacity:0.998" fill="#db6775" d="M 1204.5,963.5 C 1204.5,963.167 1204.5,962.833 1204.5,962.5C 1205.5,962.414 1206.33,962.748 1207,963.5C 1207.5,1101.5 1207.67,1239.5 1207.5,1377.5C 1206.83,1377.5 1206.17,1377.5 1205.5,1377.5C 1205.83,1239.33 1205.5,1101.33 1204.5,963.5 Z"/></g>
<g><path style="opacity:0.997" fill="#6267a6" d="M 1201.5,960.5 C 1203.17,960.5 1204.83,960.5 1206.5,960.5C 1205.74,961.268 1204.74,961.768 1203.5,962C 1203.73,962.399 1204.06,962.565 1204.5,962.5C 1204.5,962.833 1204.5,963.167 1204.5,963.5C 1203.5,1101.33 1203.17,1239.33 1203.5,1377.5C 1202.83,1377.5 1202.5,1377.17 1202.5,1376.5C 1202.67,1238.83 1202.5,1101.17 1202,963.5C 1201.33,962.748 1200.5,962.414 1199.5,962.5C 1200.17,961.833 1200.83,961.167 1201.5,960.5 Z"/></g>
<g><path style="opacity:0.998" fill="#462cbb" d="M 1204.5,963.5 C 1205.5,1101.33 1205.83,1239.33 1205.5,1377.5C 1204.83,1377.5 1204.17,1377.5 1203.5,1377.5C 1203.17,1239.33 1203.5,1101.33 1204.5,963.5 Z"/></g>
<g><path style="opacity:0.999" fill="#8a3788" d="M 1206.5,960.5 C 1206.83,960.5 1207.17,960.5 1207.5,960.5C 1207.5,961.833 1208.17,962.5 1209.5,962.5C 1209.5,1100.83 1209.5,1239.17 1209.5,1377.5C 1208.83,1377.5 1208.17,1377.5 1207.5,1377.5C 1207.67,1239.5 1207.5,1101.5 1207,963.5C 1206.33,962.748 1205.5,962.414 1204.5,962.5C 1204.06,962.565 1203.73,962.399 1203.5,962C 1204.74,961.768 1205.74,961.268 1206.5,960.5 Z"/></g>
<g><path style="opacity:0.999" fill="#7f87c2" d="M 1209.5,962.5 C 1210.5,963.833 1211.5,963.833 1212.5,962.5C 1212.5,1100.83 1212.5,1239.17 1212.5,1377.5C 1211.5,1377.5 1210.5,1377.5 1209.5,1377.5C 1209.5,1239.17 1209.5,1100.83 1209.5,962.5 Z"/></g>
<g><path style="opacity:0.998" fill="#9e4ba6" d="M 1217.5,963.5 C 1216.5,1101.33 1216.17,1239.33 1216.5,1377.5C 1215.17,1377.5 1213.83,1377.5 1212.5,1377.5C 1212.5,1239.17 1212.5,1100.83 1212.5,962.5C 1213.82,962.67 1214.99,962.337 1216,961.5C 1216.72,962.044 1217.22,962.711 1217.5,963.5 Z"/></g>
<g><path style="opacity:0.999" fill="#765d55" d="M 1217.5,963.5 C 1219.5,1100.83 1220.17,1238.5 1219.5,1376.5C 1218.79,1377.4 1217.79,1377.74 1216.5,1377.5C 1216.17,1239.33 1216.5,1101.33 1217.5,963.5 Z"/></g>
<g><path style="opacity:0.998" fill="#4a78cb" d="M 1199.5,963.5 C 1198.5,1101.1 1198.17,1238.76 1198.5,1376.5C 1197.83,1376.5 1197.5,1376.17 1197.5,1375.5C 1197.5,1238.5 1197.5,1101.5 1197.5,964.5C 1197.84,963.662 1198.51,963.328 1199.5,963.5 Z"/></g>
<g><path style="opacity:0.998" fill="#9f5998" d="M 1199.5,963.5 C 1200.5,1101 1200.83,1238.67 1200.5,1376.5C 1199.83,1376.5 1199.17,1376.5 1198.5,1376.5C 1198.17,1238.76 1198.5,1101.1 1199.5,963.5 Z"/></g>
<g><path style="opacity:0.999" fill="#e22357" d="M 1199.5,963.5 C 1199.5,963.167 1199.5,962.833 1199.5,962.5C 1200.5,962.414 1201.33,962.748 1202,963.5C 1202.5,1101.17 1202.67,1238.83 1202.5,1376.5C 1201.83,1376.5 1201.17,1376.5 1200.5,1376.5C 1200.83,1238.67 1200.5,1101 1199.5,963.5 Z"/></g>
<g><path style="opacity:0.998" fill="#adbf85" d="M 1207.5,960.5 C 1212.18,960.334 1216.85,960.501 1221.5,961C 1224.8,961.204 1227.8,962.037 1230.5,963.5C 1229.83,964.167 1229.17,964.833 1228.5,965.5C 1228.63,964.761 1228.46,964.094 1228,963.5C 1227.33,964.252 1226.5,964.586 1225.5,964.5C 1224.83,964.5 1224.17,964.5 1223.5,964.5C 1222.85,964.196 1222.18,963.863 1221.5,963.5C 1220.5,1101.17 1220.17,1238.83 1220.5,1376.5C 1220.17,1376.5 1219.83,1376.5 1219.5,1376.5C 1220.17,1238.5 1219.5,1100.83 1217.5,963.5C 1217.22,962.711 1216.72,962.044 1216,961.5C 1214.99,962.337 1213.82,962.67 1212.5,962.5C 1211.5,963.833 1210.5,963.833 1209.5,962.5C 1208.17,962.5 1207.5,961.833 1207.5,960.5 Z"/></g>
<g><path style="opacity:0.999" fill="#38308a" d="M 1223.5,964.5 C 1223.5,1101.5 1223.5,1238.5 1223.5,1375.5C 1222.79,1376.4 1221.79,1376.74 1220.5,1376.5C 1220.17,1238.83 1220.5,1101.17 1221.5,963.5C 1222.18,963.863 1222.85,964.196 1223.5,964.5 Z"/></g>
<g><path style="opacity:0.999" fill="#855275" d="M 1195.5,963.5 C 1195.5,963.833 1195.5,964.167 1195.5,964.5C 1194.88,964.611 1194.38,964.944 1194,965.5C 1193.5,1101.83 1193.33,1238.17 1193.5,1374.5C 1193.17,1374.5 1192.83,1374.5 1192.5,1374.5C 1192.17,1236.83 1192.5,1099.17 1193.5,961.5C 1194.18,962.243 1194.85,962.909 1195.5,963.5 Z"/></g>
<g><path style="opacity:1" fill="#ba3467" d="M 1195.5,964.5 C 1195.5,1101.5 1195.5,1238.5 1195.5,1375.5C 1194.51,1375.67 1193.84,1375.34 1193.5,1374.5C 1193.33,1238.17 1193.5,1101.83 1194,965.5C 1194.38,964.944 1194.88,964.611 1195.5,964.5 Z"/></g>
<g><path style="opacity:1" fill="#de4483" d="M 1195.5,963.5 C 1196.17,963.833 1196.83,964.167 1197.5,964.5C 1197.5,1101.5 1197.5,1238.5 1197.5,1375.5C 1196.83,1375.5 1196.17,1375.5 1195.5,1375.5C 1195.5,1238.5 1195.5,1101.5 1195.5,964.5C 1195.5,964.167 1195.5,963.833 1195.5,963.5 Z"/></g>
<g><path style="opacity:0.998" fill="#3a4c5b" d="M 1223.5,964.5 C 1224.17,964.5 1224.83,964.5 1225.5,964.5C 1226.5,1101.43 1226.83,1238.43 1226.5,1375.5C 1225.5,1375.5 1224.5,1375.5 1223.5,1375.5C 1223.5,1238.5 1223.5,1101.5 1223.5,964.5 Z"/></g>
<g><path style="opacity:0.998" fill="#3a106b" d="M 1228.5,965.5 C 1228.5,1101.83 1228.5,1238.17 1228.5,1374.5C 1227.83,1374.83 1227.17,1375.17 1226.5,1375.5C 1226.83,1238.43 1226.5,1101.43 1225.5,964.5C 1226.5,964.586 1227.33,964.252 1228,963.5C 1228.46,964.094 1228.63,964.761 1228.5,965.5 Z"/></g>
<g><path style="opacity:0.998" fill="#865b96" d="M 1230.5,963.5 C 1231.79,963.263 1232.79,963.596 1233.5,964.5C 1232.66,964.842 1232.33,965.508 1232.5,966.5C 1231.5,1102 1231.17,1237.67 1231.5,1373.5C 1230.61,1374.11 1229.61,1374.44 1228.5,1374.5C 1228.5,1238.17 1228.5,1101.83 1228.5,965.5C 1229.17,964.833 1229.83,964.167 1230.5,963.5 Z"/></g>
<g><path style="opacity:0.999" fill="#4333c2" d="M 1190.5,1373.5 C 1189.83,1373.5 1189.17,1373.5 1188.5,1373.5C 1188.5,1238.17 1188.5,1102.83 1188.5,967.5C 1189.12,967.389 1189.62,967.056 1190,966.5C 1190.5,1102.17 1190.67,1237.83 1190.5,1373.5 Z"/></g>
<g><path style="opacity:0.998" fill="#375070" d="M 1191.5,1374.5 C 1190.83,1374.5 1190.5,1374.17 1190.5,1373.5C 1190.67,1237.83 1190.5,1102.17 1190,966.5C 1189.62,967.056 1189.12,967.389 1188.5,967.5C 1185.07,967.633 1184.74,966.967 1187.5,965.5C 1188.05,963.391 1189.39,962.558 1191.5,963C 1191.5,1100.02 1191.5,1237.19 1191.5,1374.5 Z"/></g>
<g><path style="opacity:0.999" fill="#b9d1a0" d="M 1232.5,966.5 C 1233.17,966.5 1233.5,966.833 1233.5,967.5C 1232.5,1102.67 1232.17,1238 1232.5,1373.5C 1232.17,1373.5 1231.83,1373.5 1231.5,1373.5C 1231.17,1237.67 1231.5,1102 1232.5,966.5 Z"/></g>
<g><path style="opacity:0.999" fill="#9d3c66" d="M 1233.5,967.5 C 1234.5,1102.33 1234.83,1237.33 1234.5,1372.5C 1233.83,1372.83 1233.17,1373.17 1232.5,1373.5C 1232.17,1238 1232.5,1102.67 1233.5,967.5 Z"/></g>
<g><path style="opacity:0.998" fill="#d1419f" d="M 1233.5,964.5 C 1233.78,965.289 1234.28,965.956 1235,966.5C 1235.5,1101.5 1235.67,1236.5 1235.5,1371.5C 1235.5,1372.17 1235.17,1372.5 1234.5,1372.5C 1234.83,1237.33 1234.5,1102.33 1233.5,967.5C 1233.5,966.833 1233.17,966.5 1232.5,966.5C 1232.33,965.508 1232.66,964.842 1233.5,964.5 Z"/></g>
<g><path style="opacity:0.998" fill="#79866c" d="M 1184.5,965.5 C 1185.5,965.5 1186.5,965.5 1187.5,965.5C 1184.74,966.967 1185.07,967.633 1188.5,967.5C 1188.5,1102.83 1188.5,1238.17 1188.5,1373.5C 1187.29,1373.07 1186.29,1372.4 1185.5,1371.5C 1185.83,1237 1185.5,1102.67 1184.5,968.5C 1184.5,967.5 1184.5,966.5 1184.5,965.5 Z"/></g>
<g><path style="opacity:0.999" fill="#9f785d" d="M 1233.5,964.5 C 1241.04,966.762 1247.38,970.762 1252.5,976.5C 1251.04,976.567 1249.71,976.234 1248.5,975.5C 1247.83,974.5 1247.17,973.5 1246.5,972.5C 1246.17,972.5 1245.83,972.5 1245.5,972.5C 1244.07,970.622 1242.4,969.955 1240.5,970.5C 1239.88,970.389 1239.38,970.056 1239,969.5C 1238.5,1103.17 1238.33,1236.83 1238.5,1370.5C 1237.61,1371.11 1236.61,1371.44 1235.5,1371.5C 1235.67,1236.5 1235.5,1101.5 1235,966.5C 1234.28,965.956 1233.78,965.289 1233.5,964.5 Z"/></g>
<g><path style="opacity:1" fill="#bd47a5" d="M 1184.5,969.5 C 1183.5,1103.1 1183.17,1236.76 1183.5,1370.5C 1182.51,1370.67 1181.84,1370.34 1181.5,1369.5C 1181.33,1236.5 1181.5,1103.5 1182,970.5C 1182.67,969.748 1183.5,969.414 1184.5,969.5 Z"/></g>
<g><path style="opacity:0.997" fill="#1f569a" d="M 1184.5,968.5 C 1185.5,1102.67 1185.83,1237 1185.5,1371.5C 1184.51,1371.67 1183.84,1371.34 1183.5,1370.5C 1183.17,1236.76 1183.5,1103.1 1184.5,969.5C 1184.5,969.167 1184.5,968.833 1184.5,968.5 Z"/></g>
<g><path style="opacity:0.998" fill="#4423c1" d="M 1240.5,970.5 C 1240.5,1103.5 1240.5,1236.5 1240.5,1369.5C 1239.83,1369.83 1239.17,1370.17 1238.5,1370.5C 1238.33,1236.83 1238.5,1103.17 1239,969.5C 1239.38,970.056 1239.88,970.389 1240.5,970.5 Z"/></g>
<g><path style="opacity:0.996" fill="#6a6a3a" d="M 1180.5,1369.5 C 1179.83,1369.5 1179.5,1369.17 1179.5,1368.5C 1179.67,1236.5 1179.5,1104.5 1179,972.5C 1178.62,973.056 1178.12,973.389 1177.5,973.5C 1178.08,972.069 1178.92,970.736 1180,969.5C 1180.5,1102.83 1180.67,1236.17 1180.5,1369.5 Z"/></g>
<g><path style="opacity:0.999" fill="#a78f7a" d="M 1184.5,965.5 C 1184.5,966.5 1184.5,967.5 1184.5,968.5C 1184.5,968.833 1184.5,969.167 1184.5,969.5C 1183.5,969.414 1182.67,969.748 1182,970.5C 1181.5,1103.5 1181.33,1236.5 1181.5,1369.5C 1181.17,1369.5 1180.83,1369.5 1180.5,1369.5C 1180.67,1236.17 1180.5,1102.83 1180,969.5C 1178.92,970.736 1178.08,972.069 1177.5,973.5C 1176.5,973.833 1175.83,974.5 1175.5,975.5C 1174.52,975.189 1173.86,974.522 1173.5,973.5C 1176.26,969.616 1179.93,966.949 1184.5,965.5 Z"/></g>
<g><path style="opacity:0.999" fill="#653b98" d="M 1179.5,1368.5 C 1178.83,1368.17 1178.17,1367.83 1177.5,1367.5C 1177.5,1236.17 1177.5,1104.83 1177.5,973.5C 1178.12,973.389 1178.62,973.056 1179,972.5C 1179.5,1104.5 1179.67,1236.5 1179.5,1368.5 Z"/></g>
<g><path style="opacity:0.997" fill="#443c71" d="M 1245.5,972.5 C 1245.17,972.5 1244.83,972.5 1244.5,972.5C 1243.5,1104 1243.17,1235.67 1243.5,1367.5C 1242.71,1368.4 1241.71,1369.07 1240.5,1369.5C 1240.5,1236.5 1240.5,1103.5 1240.5,970.5C 1242.4,969.955 1244.07,970.622 1245.5,972.5 Z"/></g>
<g><path style="opacity:0.999" fill="#656661" d="M 1177.5,973.5 C 1177.5,1104.83 1177.5,1236.17 1177.5,1367.5C 1176.5,1367.17 1175.83,1366.5 1175.5,1365.5C 1175.5,1235.5 1175.5,1105.5 1175.5,975.5C 1175.83,974.5 1176.5,973.833 1177.5,973.5 Z"/></g>
<g><path style="opacity:0.999" fill="#c35895" d="M 1244.5,972.5 C 1245.5,1103.76 1245.83,1235.1 1245.5,1366.5C 1244.83,1366.83 1244.17,1367.17 1243.5,1367.5C 1243.17,1235.67 1243.5,1104 1244.5,972.5 Z"/></g>
<g><path style="opacity:0.997" fill="#adaeec" d="M 1244.5,972.5 C 1244.83,972.5 1245.17,972.5 1245.5,972.5C 1245.83,972.5 1246.17,972.5 1246.5,972.5C 1246.5,1103.5 1246.5,1234.5 1246.5,1365.5C 1246.5,1366.17 1246.17,1366.5 1245.5,1366.5C 1245.83,1235.1 1245.5,1103.76 1244.5,972.5 Z"/></g>
<g><path style="opacity:0.997" fill="#5a2687" d="M 1246.5,972.5 C 1247.17,973.5 1247.83,974.5 1248.5,975.5C 1248.5,1104.83 1248.5,1234.17 1248.5,1363.5C 1248.17,1364.5 1247.5,1365.17 1246.5,1365.5C 1246.5,1234.5 1246.5,1103.5 1246.5,972.5 Z"/></g>
<g><path style="opacity:1" fill="#d1d0ac" d="M 1068.5,975.5 C 1069.69,975.97 1070.36,976.97 1070.5,978.5C 1071.04,980.111 1071.04,981.444 1070.5,982.5C 1069.37,980.687 1068.37,978.854 1067.5,977C 1068.06,976.617 1068.39,976.117 1068.5,975.5 Z"/></g>
<g><path style="opacity:0.991" fill="#2c3e50" d="M 2252.5,976.5 C 2275.83,976.5 2299.17,976.5 2322.5,976.5C 2322.33,1018.17 2322.5,1059.83 2323,1101.5C 2340.22,1081.47 2362.05,1069.63 2388.5,1066C 2421.69,1060.8 2451.69,1068.13 2478.5,1088C 2500.15,1108.47 2512.32,1133.63 2515,1163.5C 2515.5,1224.17 2515.67,1284.83 2515.5,1345.5C 2492.17,1345.5 2468.83,1345.5 2445.5,1345.5C 2445.67,1291.83 2445.5,1238.17 2445,1184.5C 2442.2,1146.87 2422.03,1126.87 2384.5,1124.5C 2346.59,1127.24 2326.09,1147.57 2323,1185.5C 2322.5,1238.83 2322.33,1292.17 2322.5,1345.5C 2299.17,1345.5 2275.83,1345.5 2252.5,1345.5C 2252.5,1222.5 2252.5,1099.5 2252.5,976.5 Z"/></g>
<g><path style="opacity:1" fill="#9bb988" d="M 1058.5,977.5 C 1059.55,977.351 1060.55,977.517 1061.5,978C 1061.17,978.333 1060.83,978.667 1060.5,979C 1063.52,982.295 1062.85,983.962 1058.5,984C 1061.33,982.092 1061,981.259 1057.5,981.5C 1057.43,980.041 1057.77,978.708 1058.5,977.5 Z"/></g>
<g><path style="opacity:1" fill="#a8d6b6" d="M 1073.5,976.5 C 1074.91,975.172 1076.08,975.505 1077,977.5C 1077.33,976.833 1077.67,976.167 1078,975.5C 1078.44,977.684 1077.94,979.684 1076.5,981.5C 1075.93,979.456 1074.93,977.79 1073.5,976.5 Z"/></g>
<g><path style="opacity:1" fill="#4c8279" d="M 1174.5,1365.5 C 1173.17,1364.83 1172.17,1363.83 1171.5,1362.5C 1171.17,1234.1 1171.5,1105.76 1172.5,977.5C 1173.12,977.389 1173.62,977.056 1174,976.5C 1174.5,1106.17 1174.67,1235.83 1174.5,1365.5 Z"/></g>
<g><path style="opacity:1" fill="#324884" d="M 1248.5,975.5 C 1249.71,976.234 1251.04,976.567 1252.5,976.5C 1252.5,976.833 1252.5,977.167 1252.5,977.5C 1250.5,1105.5 1249.84,1233.83 1250.5,1362.5C 1249.83,1362.83 1249.17,1363.17 1248.5,1363.5C 1248.5,1234.17 1248.5,1104.83 1248.5,975.5 Z"/></g>
<g><path style="opacity:1" fill="#d3c792" d="M 1052.5,979.5 C 1054.94,979.119 1055.61,979.786 1054.5,981.5C 1055.09,982.799 1056.09,983.632 1057.5,984C 1055.92,984.44 1054.59,985.273 1053.5,986.5C 1052.25,984.999 1051.25,983.332 1050.5,981.5C 1050.85,980.304 1051.35,980.304 1052,981.5C 1052.46,980.906 1052.63,980.239 1052.5,979.5 Z"/></g>
<g><path style="opacity:0.999" fill="#49ea53" d="M 1172.5,977.5 C 1171.5,1105.76 1171.17,1234.1 1171.5,1362.5C 1171.17,1362.5 1170.83,1362.5 1170.5,1362.5C 1171.16,1233.83 1170.5,1105.5 1168.5,977.5C 1171.04,972.154 1172.37,972.154 1172.5,977.5 Z"/></g>
<g><path style="opacity:0.999" fill="#0815bd" d="M 1252.5,977.5 C 1251.5,1105.43 1251.17,1233.43 1251.5,1361.5C 1251.5,1362.17 1251.17,1362.5 1250.5,1362.5C 1249.84,1233.83 1250.5,1105.5 1252.5,977.5 Z"/></g>
<g><path style="opacity:1" fill="#c6bda7" d="M 1087.5,977.5 C 1088.77,978.189 1088.77,979.023 1087.5,980C 1088.17,980.333 1088.83,980.667 1089.5,981C 1088.89,982.303 1088.55,983.47 1088.5,984.5C 1086.97,983.094 1085.31,981.928 1083.5,981C 1085.03,979.968 1086.36,978.801 1087.5,977.5 Z"/></g>
<g><path style="opacity:1" fill="#8ccd80" d="M 1168.5,977.5 C 1169.69,978.961 1169.69,980.295 1168.5,981.5C 1167.45,979.067 1166.79,979.067 1166.5,981.5C 1165.66,981.842 1165.33,982.508 1165.5,983.5C 1164.83,984.167 1164.17,984.833 1163.5,985.5C 1162.96,985.44 1162.62,985.107 1162.5,984.5C 1163.37,981.047 1165.37,978.714 1168.5,977.5 Z"/></g>
<g><path style="opacity:0.997" fill="#3452b4" d="M 1168.5,977.5 C 1170.5,1105.5 1171.16,1233.83 1170.5,1362.5C 1169.5,1362.17 1168.83,1361.5 1168.5,1360.5C 1168.5,1234.17 1168.5,1107.83 1168.5,981.5C 1169.69,980.295 1169.69,978.961 1168.5,977.5 Z"/></g>
<g><path style="opacity:0.998" fill="#447589" d="M 1168.5,981.5 C 1168.5,1107.83 1168.5,1234.17 1168.5,1360.5C 1167.83,1360.5 1167.5,1360.17 1167.5,1359.5C 1167.83,1233.43 1167.5,1107.43 1166.5,981.5C 1166.79,979.067 1167.45,979.067 1168.5,981.5 Z"/></g>
<g><path style="opacity:0.998" fill="#27544d" d="M 1254.5,981.5 C 1254.5,1107.17 1254.5,1232.83 1254.5,1358.5C 1254.17,1359.5 1253.5,1360.17 1252.5,1360.5C 1252.33,1233.5 1252.5,1106.5 1253,979.5C 1253.72,980.044 1254.22,980.711 1254.5,981.5 Z"/></g>
<g><path style="opacity:0.997" fill="#29ba79" d="M 1257.5,983.5 C 1256.88,983.389 1256.38,983.056 1256,982.5C 1255.5,1107.5 1255.33,1232.5 1255.5,1357.5C 1255.5,1358.17 1255.17,1358.5 1254.5,1358.5C 1254.5,1232.83 1254.5,1107.17 1254.5,981.5C 1256.37,980.326 1257.37,980.993 1257.5,983.5 Z"/></g>
<g><path style="opacity:1" fill="#f6f6f1" d="M 1070.5,983.5 C 1072.2,984.535 1073.87,984.535 1075.5,983.5C 1075.83,984.167 1076.17,984.833 1076.5,985.5C 1078.5,985.167 1080.5,984.833 1082.5,984.5C 1084.54,986.355 1086.71,987.022 1089,986.5C 1089.33,987.167 1089.67,987.833 1090,988.5C 1091.84,987.167 1092.34,987.334 1091.5,989C 1093.33,989.273 1094.83,990.107 1096,991.5C 1096.33,991.167 1096.67,990.833 1097,990.5C 1100.7,994.501 1104.2,998.001 1107.5,1001C 1107.17,1001.33 1106.83,1001.67 1106.5,1002C 1107.5,1002.83 1108.5,1003.67 1109.5,1004.5C 1110.53,1007.56 1111.86,1010.4 1113.5,1013C 1113.17,1014 1112.83,1015 1112.5,1016C 1113.65,1018.21 1114.65,1020.38 1115.5,1022.5C 1113.51,1023.74 1111.51,1024.57 1109.5,1025C 1109.17,1024.67 1108.83,1024.33 1108.5,1024C 1110.04,1022.4 1110.54,1020.57 1110,1018.5C 1107.21,1023.26 1103.05,1026.09 1097.5,1027C 1097.83,1027.33 1098.17,1027.67 1098.5,1028C 1095.15,1027.97 1091.65,1028.47 1088,1029.5C 1086.17,1028.99 1086.01,1028.16 1087.5,1027C 1085.43,1026.68 1085.1,1025.84 1086.5,1024.5C 1085.03,1021.85 1082.86,1020.19 1080,1019.5C 1076.79,1020.52 1073.62,1021.69 1070.5,1023C 1067.66,1027 1063.49,1030.16 1058,1032.5C 1057,1032.17 1056,1031.83 1055,1031.5C 1054.67,1032.17 1054.33,1032.83 1054,1033.5C 1046.13,1033.74 1039.3,1030.9 1033.5,1025C 1033.94,1022.78 1033.94,1020.45 1033.5,1018C 1035.69,1017.32 1036.02,1016.16 1034.5,1014.5C 1035.03,1013.81 1035.69,1013.31 1036.5,1013C 1035.48,1011.95 1035.32,1010.78 1036,1009.5C 1038.8,1006.78 1040.46,1003.78 1041,1000.5C 1045.67,996.5 1050.33,992.5 1055,988.5C 1056.02,989.634 1056.68,989.301 1057,987.5C 1059.06,988.202 1060.89,987.535 1062.5,985.5C 1065.03,985.566 1067.53,985.566 1070,985.5C 1070.46,984.906 1070.63,984.239 1070.5,983.5 Z"/></g>
<g><path style="opacity:1" fill="#c9eac8" d="M 1097.5,982.5 C 1098.64,983.793 1098.31,984.959 1096.5,986C 1100.54,985.91 1101.21,987.077 1098.5,989.5C 1095,987.477 1094.67,985.144 1097.5,982.5 Z"/></g>
<g><path style="opacity:0.997" fill="#7750d6" d="M 1166.5,981.5 C 1167.5,1107.43 1167.83,1233.43 1167.5,1359.5C 1166.5,1359.17 1165.83,1358.5 1165.5,1357.5C 1165.5,1232.83 1165.5,1108.17 1165.5,983.5C 1165.33,982.508 1165.66,981.842 1166.5,981.5 Z"/></g>
<g><path style="opacity:1" fill="#493074" d="M 1257.5,983.5 C 1257.5,1107.17 1257.5,1230.83 1257.5,1354.5C 1257.57,1356.03 1256.91,1357.03 1255.5,1357.5C 1255.33,1232.5 1255.5,1107.5 1256,982.5C 1256.38,983.056 1256.88,983.389 1257.5,983.5 Z"/></g>
<g><path style="opacity:0.997" fill="#f55f7c" d="M 1165.5,983.5 C 1165.5,1108.17 1165.5,1232.83 1165.5,1357.5C 1164.83,1357.5 1164.5,1357.17 1164.5,1356.5C 1164.83,1233 1164.5,1109.67 1163.5,986.5C 1163.5,986.167 1163.5,985.833 1163.5,985.5C 1164.17,984.833 1164.83,984.167 1165.5,983.5 Z"/></g>
<g><path style="opacity:1" fill="#83508f" d="M 1252.5,976.5 C 1256.17,978.167 1258.83,980.833 1260.5,984.5C 1259.66,984.842 1259.33,985.508 1259.5,986.5C 1258.5,1108.67 1258.17,1231 1258.5,1353.5C 1258.5,1354.17 1258.17,1354.5 1257.5,1354.5C 1257.5,1230.83 1257.5,1107.17 1257.5,983.5C 1257.37,980.993 1256.37,980.326 1254.5,981.5C 1254.22,980.711 1253.72,980.044 1253,979.5C 1252.5,1106.5 1252.33,1233.5 1252.5,1360.5C 1252.5,1361.17 1252.17,1361.5 1251.5,1361.5C 1251.17,1233.43 1251.5,1105.43 1252.5,977.5C 1252.5,977.167 1252.5,976.833 1252.5,976.5 Z"/></g>
<g><path style="opacity:1" fill="#cbaaa5" d="M 1044.5,984.5 C 1045.25,983.427 1046.25,983.26 1047.5,984C 1047.17,984.333 1046.83,984.667 1046.5,985C 1047.7,985.903 1048.53,987.069 1049,988.5C 1050.27,985.827 1050.94,985.827 1051,988.5C 1049.95,989.517 1048.78,989.684 1047.5,989C 1046.6,987.348 1045.6,985.848 1044.5,984.5 Z"/></g>
<g><path style="opacity:0.997" fill="#903df6" d="M 1162.5,986.5 C 1162.83,986.5 1163.17,986.5 1163.5,986.5C 1164.5,1109.67 1164.83,1233 1164.5,1356.5C 1163.66,1356.16 1163.33,1355.49 1163.5,1354.5C 1163.83,1231.76 1163.5,1109.1 1162.5,986.5 Z"/></g>
<g><path style="opacity:0.996" fill="#fbf32f" d="M 1259.5,986.5 C 1259.5,1108.2 1259.5,1230.2 1259.5,1352.5C 1259.5,1353.17 1259.17,1353.5 1258.5,1353.5C 1258.17,1231 1258.5,1108.67 1259.5,986.5 Z"/></g>
<g><path style="opacity:1" fill="#8bc17f" d="M 1043.5,987.5 C 1044.31,988.997 1044.97,990.664 1045.5,992.5C 1044.37,993.604 1043.54,993.271 1043,991.5C 1042.67,991.833 1042.33,992.167 1042,992.5C 1040.93,991.809 1039.77,991.309 1038.5,991C 1040.6,990.263 1042.26,989.097 1043.5,987.5 Z"/></g>
<g><path style="opacity:1" fill="#d3bd9c" d="M 1104.5,986.5 C 1105.18,988.158 1106.01,989.825 1107,991.5C 1107.81,990.04 1108.64,989.707 1109.5,990.5C 1108.67,992.167 1107.83,993.833 1107,995.5C 1106.72,993.114 1105.72,992.448 1104,993.5C 1102.83,992.333 1101.67,991.167 1100.5,990C 1102.32,989.34 1103.66,988.173 1104.5,986.5 Z"/></g>
<g><path style="opacity:1" fill="#71787b" d="M 1162.5,986.5 C 1163.5,1109.1 1163.83,1231.76 1163.5,1354.5C 1161.46,1353.42 1160.12,1351.75 1159.5,1349.5C 1160.16,1230.83 1159.5,1112.5 1157.5,994.5C 1156.51,994.328 1155.84,994.662 1155.5,995.5C 1155.17,995.5 1154.83,995.5 1154.5,995.5C 1154.88,994.069 1155.88,993.236 1157.5,993C 1157.17,992.667 1156.83,992.333 1156.5,992C 1157.19,990.933 1157.69,989.766 1158,988.5C 1159,987.167 1160,987.167 1161,988.5C 1161.28,987.584 1161.78,986.918 1162.5,986.5 Z"/></g>
<g><path style="opacity:1" fill="#7e7384" d="M 1260.5,984.5 C 1262.89,985.891 1264.56,987.891 1265.5,990.5C 1265.5,991.833 1265.5,993.167 1265.5,994.5C 1265.17,994.5 1264.83,994.5 1264.5,994.5C 1264.17,994.5 1263.83,994.5 1263.5,994.5C 1262.5,1111.13 1262.17,1229.13 1262.5,1348.5C 1261.97,1350.23 1260.97,1351.56 1259.5,1352.5C 1259.5,1230.2 1259.5,1108.2 1259.5,986.5C 1259.33,985.508 1259.66,984.842 1260.5,984.5 Z"/></g>
<g><path style="opacity:1" fill="#513e80" d="M 1072.5,990.5 C 1073.24,990.369 1073.91,990.536 1074.5,991C 1073.66,992.011 1073.33,993.178 1073.5,994.5C 1076.8,994.329 1077.13,994.995 1074.5,996.5C 1074.71,997.086 1075.04,997.586 1075.5,998C 1073.57,997.951 1071.57,998.284 1069.5,999C 1072.95,997.037 1072.95,995.704 1069.5,995C 1071.86,994.411 1072.86,992.911 1072.5,990.5 Z"/></g>
<g><path style="opacity:0.989" fill="#243571" d="M 1265.5,990.5 C 1325.14,1064.31 1384.64,1138.31 1444,1212.5C 1460.63,1238.18 1460.63,1263.85 1444,1289.5C 1421.04,1314.52 1394.21,1319.69 1363.5,1305C 1358.04,1301.21 1352.88,1297.05 1348,1292.5C 1323.57,1261.32 1298.91,1230.32 1274,1199.5C 1273.67,1239.17 1273.33,1278.83 1273,1318.5C 1272.64,1323.82 1271.47,1328.82 1269.5,1333.5C 1269.18,1222.91 1269.51,1112.58 1270.5,1002.5C 1269.61,1000.42 1268.61,998.423 1267.5,996.5C 1267.63,995.761 1267.46,995.094 1267,994.5C 1266.31,995.738 1265.81,995.738 1265.5,994.5C 1265.5,993.167 1265.5,991.833 1265.5,990.5 Z"/></g>
<g><path style="opacity:1" fill="#ceceb6" d="M 1111.5,993.5 C 1112.38,993.369 1113.04,993.702 1113.5,994.5C 1112.82,996.889 1111.99,999.222 1111,1001.5C 1110.28,999.888 1110.45,998.388 1111.5,997C 1109.07,995.908 1109.07,994.741 1111.5,993.5 Z"/></g>
<g><path style="opacity:1" fill="#b7dd47" d="M 1157.5,994.5 C 1159.5,1112.5 1160.16,1230.83 1159.5,1349.5C 1158.66,1349.16 1158.33,1348.49 1158.5,1347.5C 1158.83,1229.76 1158.5,1112.1 1157.5,994.5 Z"/></g>
<g><path style="opacity:1" fill="#282244" d="M 1263.5,994.5 C 1263.17,1111.67 1263.5,1228.67 1264.5,1345.5C 1264.07,1346.71 1263.4,1347.71 1262.5,1348.5C 1262.17,1229.13 1262.5,1111.13 1263.5,994.5 Z"/></g>
<g><path style="opacity:1" fill="#66417b" d="M 1059.5,994.5 C 1060.38,994.369 1061.04,994.702 1061.5,995.5C 1060.41,996.609 1060.41,997.609 1061.5,998.5C 1062.5,997.833 1063.5,997.167 1064.5,996.5C 1064.83,996.833 1065.17,997.167 1065.5,997.5C 1063.82,998.769 1062.65,1000.44 1062,1002.5C 1061.33,1001.83 1060.67,1001.17 1060,1000.5C 1059.63,1001.91 1058.8,1002.91 1057.5,1003.5C 1057.43,1001.72 1057.1,999.889 1056.5,998C 1057.45,997.383 1058.28,997.549 1059,998.5C 1059.49,997.207 1059.66,995.873 1059.5,994.5 Z"/></g>
<g><path style="opacity:1" fill="#5c448b" d="M 1085.5,994.5 C 1087.21,996.651 1089.21,997.651 1091.5,997.5C 1090.91,998.799 1089.91,999.632 1088.5,1000C 1089.65,1000.91 1089.49,1001.75 1088,1002.5C 1086.99,1000.74 1085.49,999.574 1083.5,999C 1086.41,998.302 1087.08,996.802 1085.5,994.5 Z"/></g>
<g><path style="opacity:0.999" fill="#2d427d" d="M 1263.5,994.5 C 1263.83,994.5 1264.17,994.5 1264.5,994.5C 1264.17,1111 1264.5,1227.33 1265.5,1343.5C 1265.17,1344.17 1264.83,1344.83 1264.5,1345.5C 1263.5,1228.67 1263.17,1111.67 1263.5,994.5 Z"/></g>
<g><path style="opacity:1" fill="#a4caa9" d="M 1033.5,996.5 C 1034.72,995.535 1036.05,995.702 1037.5,997C 1036.83,997.333 1036.17,997.667 1035.5,998C 1038.67,998.582 1039,999.582 1036.5,1001C 1037.45,1001.72 1037.62,1002.55 1037,1003.5C 1035.65,1001.57 1033.81,1000.23 1031.5,999.5C 1032.5,998.833 1033.5,998.167 1034.5,997.5C 1034.38,996.893 1034.04,996.56 1033.5,996.5 Z"/></g>
<g><path style="opacity:0.998" fill="#1d646c" d="M 1264.5,994.5 C 1264.83,994.5 1265.17,994.5 1265.5,994.5C 1265.81,995.738 1266.31,995.738 1267,994.5C 1267.46,995.094 1267.63,995.761 1267.5,996.5C 1265.5,1111.5 1264.84,1226.83 1265.5,1342.5C 1265.5,1342.83 1265.5,1343.17 1265.5,1343.5C 1264.5,1227.33 1264.17,1111 1264.5,994.5 Z"/></g>
<g><path style="opacity:1" fill="#b569bb" d="M 1155.5,995.5 C 1155.84,994.662 1156.51,994.328 1157.5,994.5C 1158.5,1112.1 1158.83,1229.76 1158.5,1347.5C 1157.09,1347.03 1156.43,1346.03 1156.5,1344.5C 1156.83,1228 1156.5,1111.67 1155.5,995.5 Z"/></g>
<g><path style="opacity:1" fill="#2b1e9c" d="M 1267.5,996.5 C 1267.17,997.833 1266.83,999.167 1266.5,1000.5C 1266.17,1113.33 1266.5,1226 1267.5,1338.5C 1267.34,1340.15 1266.67,1341.49 1265.5,1342.5C 1264.84,1226.83 1265.5,1111.5 1267.5,996.5 Z"/></g>
<g><path style="opacity:0.997" fill="#5c57a0" d="M 1154.5,995.5 C 1154.83,995.5 1155.17,995.5 1155.5,995.5C 1156.5,1111.67 1156.83,1228 1156.5,1344.5C 1155.6,1343.71 1154.93,1342.71 1154.5,1341.5C 1155.83,1228 1155.83,1114.33 1154.5,1000.5C 1153.82,1000.14 1153.15,999.804 1152.5,999.5C 1152.99,998.005 1153.66,996.671 1154.5,995.5 Z"/></g>
<g><path style="opacity:1" fill="#6a4a91" d="M 1049.5,1001.5 C 1049.99,1004.15 1051.66,1005.65 1054.5,1006C 1053.69,1006.31 1053.03,1006.81 1052.5,1007.5C 1053.79,1011.06 1052.96,1011.39 1050,1008.5C 1049.33,1009.17 1048.67,1009.83 1048,1010.5C 1047.97,1008.82 1047.8,1007.32 1047.5,1006C 1049.11,1004.95 1049.77,1003.45 1049.5,1001.5 Z"/></g>
<g><path style="opacity:1" fill="#403b97" d="M 1095.5,1002.5 C 1095.56,1001.96 1095.89,1001.62 1096.5,1001.5C 1100.44,1005.02 1099.94,1008.02 1095,1010.5C 1094.38,1009.55 1094.55,1008.72 1095.5,1008C 1092.67,1006.09 1093,1005.26 1096.5,1005.5C 1096.74,1004.21 1096.4,1003.21 1095.5,1002.5 Z"/></g>
<g><path style="opacity:1" fill="#a787a7" d="M 1408.5,1019.5 C 1407.53,1018.69 1406.7,1017.69 1406,1016.5C 1404.68,1018.82 1403.01,1020.82 1401,1022.5C 1399.59,1021.33 1398.43,1021.67 1397.5,1023.5C 1396.49,1023.06 1396.49,1022.4 1397.5,1021.5C 1402.61,1019.45 1402.27,1017.78 1396.5,1016.5C 1394.94,1017.55 1393.28,1018.21 1391.5,1018.5C 1390.83,1018.83 1390.17,1019.17 1389.5,1019.5C 1390.77,1016.73 1389.77,1015.06 1386.5,1014.5C 1385.17,1013.07 1383.67,1011.73 1382,1010.5C 1381.33,1009.83 1381.33,1009.17 1382,1008.5C 1384.44,1009.39 1387.11,1009.73 1390,1009.5C 1391.4,1008.77 1392.9,1008.27 1394.5,1008C 1396.05,1006.11 1397.89,1004.61 1400,1003.5C 1401.15,1004.42 1402.15,1004.42 1403,1003.5C 1403.62,1004.45 1403.45,1005.28 1402.5,1006C 1404.24,1008.64 1405.57,1011.48 1406.5,1014.5C 1408.17,1014.5 1409.83,1014.5 1411.5,1014.5C 1411.29,1016.14 1411.62,1017.64 1412.5,1019C 1411.12,1020.33 1409.79,1020.5 1408.5,1019.5 Z"/></g>
<g><path style="opacity:1" fill="#49503e" d="M 1266.5,1000.5 C 1267.29,1001.61 1267.79,1002.94 1268,1004.5C 1268.17,1115 1268.67,1225.33 1269.5,1335.5C 1269.07,1336.71 1268.4,1337.71 1267.5,1338.5C 1266.5,1226 1266.17,1113.33 1266.5,1000.5 Z"/></g>
<g><path style="opacity:1" fill="#c3bfa4" d="M 1030.5,1002.5 C 1035.9,1003.29 1036.73,1005.62 1033,1009.5C 1031.93,1008.81 1030.77,1008.31 1029.5,1008C 1028.55,1007.28 1028.38,1006.45 1029,1005.5C 1031.18,1008.47 1032.34,1008.14 1032.5,1004.5C 1030.01,1004.87 1029.34,1004.2 1030.5,1002.5 Z"/></g>
<g><path style="opacity:1" fill="#1c4590" d="M 1152.5,999.5 C 1153.15,999.804 1153.82,1000.14 1154.5,1000.5C 1155.83,1114.33 1155.83,1228 1154.5,1341.5C 1153.83,1340.17 1153.17,1338.83 1152.5,1337.5C 1153.72,1335.95 1153.72,1334.28 1152.5,1332.5C 1153.17,1279 1153.5,1225.33 1153.5,1171.5C 1153.5,1117.36 1152.83,1063.36 1151.5,1009.5C 1152.03,1008.81 1152.69,1008.31 1153.5,1008C 1152.36,1007.26 1152.36,1006.43 1153.5,1005.5C 1153.04,1004.7 1152.38,1004.37 1151.5,1004.5C 1152.09,1003.85 1152.76,1003.18 1153.5,1002.5C 1152.87,1001.58 1152.54,1000.58 1152.5,999.5 Z"/></g>
<g><path style="opacity:1" fill="#139860" d="M 1267.5,996.5 C 1268.61,998.423 1269.61,1000.42 1270.5,1002.5C 1269.51,1112.58 1269.18,1222.91 1269.5,1333.5C 1269.5,1334.17 1269.5,1334.83 1269.5,1335.5C 1268.67,1225.33 1268.17,1115 1268,1004.5C 1267.79,1002.94 1267.29,1001.61 1266.5,1000.5C 1266.83,999.167 1267.17,997.833 1267.5,996.5 Z"/></g>
<g><path style="opacity:1" fill="#bed210" d="M 1151.5,1004.5 C 1152.38,1004.37 1153.04,1004.7 1153.5,1005.5C 1152.36,1006.43 1152.36,1007.26 1153.5,1008C 1152.69,1008.31 1152.03,1008.81 1151.5,1009.5C 1152.83,1063.36 1153.5,1117.36 1153.5,1171.5C 1153.5,1225.33 1153.17,1279 1152.5,1332.5C 1152.5,1226.17 1152.5,1119.83 1152.5,1013.5C 1151.37,1011.49 1150.04,1010.32 1148.5,1010C 1149.12,1007.91 1150.12,1006.08 1151.5,1004.5 Z"/></g>
<g><path style="opacity:1" fill="#a3ab7e" d="M 1115.5,1010.5 C 1117.61,1009.18 1119.61,1009.51 1121.5,1011.5C 1119.94,1013.6 1117.94,1014.44 1115.5,1014C 1117.6,1013.15 1117.6,1011.98 1115.5,1010.5 Z"/></g>
<g><path style="opacity:1" fill="#a5988e" d="M 1026.5,1013.5 C 1027.27,1014.26 1027.77,1015.26 1028,1016.5C 1029.34,1012.64 1030.84,1012.64 1032.5,1016.5C 1028.01,1019.62 1026.01,1018.62 1026.5,1013.5 Z"/></g>
<g><path style="opacity:1" fill="#d4deb0" d="M 1121.5,1015.5 C 1122.85,1016.53 1123.35,1017.86 1123,1019.5C 1120.92,1018.67 1118.75,1018.67 1116.5,1019.5C 1116.41,1016.4 1116.91,1016.07 1118,1018.5C 1119.15,1017.36 1120.31,1016.36 1121.5,1015.5 Z"/></g>
<g><path style="opacity:1" fill="#48761a" d="M 1152.5,1013.5 C 1152.5,1119.83 1152.5,1226.17 1152.5,1332.5C 1153.72,1334.28 1153.72,1335.95 1152.5,1337.5C 1151.96,1335.88 1151.63,1334.22 1151.5,1332.5C 1151.5,1249.83 1151.5,1167.17 1151.5,1084.5C 1151.67,1062.5 1151.5,1040.5 1151,1018.5C 1149.99,1023.54 1149.49,1023.21 1149.5,1017.5C 1150.24,1017.63 1150.91,1017.46 1151.5,1017C 1150.74,1015.49 1149.74,1014.15 1148.5,1013C 1149.93,1012.42 1151.26,1012.59 1152.5,1013.5 Z"/></g>
<g><path style="opacity:1" fill="#9fa267" d="M 1408.5,1019.5 C 1407.84,1020.4 1407.18,1021.4 1406.5,1022.5C 1404.47,1021.37 1404.14,1021.87 1405.5,1024C 1404.83,1024.33 1404.17,1024.67 1403.5,1025C 1406.35,1027.82 1406.01,1030.16 1402.5,1032C 1403.96,1032.81 1404.29,1033.64 1403.5,1034.5C 1401.83,1033.33 1400.17,1032.17 1398.5,1031C 1399.17,1030.67 1399.83,1030.33 1400.5,1030C 1398.79,1028.87 1398.29,1027.37 1399,1025.5C 1399.33,1025.83 1399.67,1026.17 1400,1026.5C 1400.69,1023.03 1399.69,1022.7 1397,1025.5C 1397.62,1027.09 1397.28,1028.43 1396,1029.5C 1393.56,1027.75 1391.06,1027.08 1388.5,1027.5C 1390.27,1026.11 1392.27,1024.94 1394.5,1024C 1393.12,1022.68 1392.79,1021.34 1393.5,1020C 1392.58,1019.72 1391.92,1019.22 1391.5,1018.5C 1393.28,1018.21 1394.94,1017.55 1396.5,1016.5C 1402.27,1017.78 1402.61,1019.45 1397.5,1021.5C 1396.49,1022.4 1396.49,1023.06 1397.5,1023.5C 1398.43,1021.67 1399.59,1021.33 1401,1022.5C 1403.01,1020.82 1404.68,1018.82 1406,1016.5C 1406.7,1017.69 1407.53,1018.69 1408.5,1019.5 Z"/></g>
<g><path style="opacity:1" fill="#e5672b" d="M 1148.5,1019.5 C 1148.37,1021.29 1148.7,1022.96 1149.5,1024.5C 1148.83,1044.17 1148.17,1063.83 1147.5,1083.5C 1147.17,1061.99 1147.5,1040.66 1148.5,1019.5 Z"/></g>
<g><path style="opacity:1" fill="#839f71" d="M 1386.5,1014.5 C 1389.77,1015.06 1390.77,1016.73 1389.5,1019.5C 1387.25,1020.96 1387.58,1022.46 1390.5,1024C 1389.76,1025.04 1388.76,1025.54 1387.5,1025.5C 1386.11,1027.05 1385.44,1026.72 1385.5,1024.5C 1385.87,1022.54 1386.54,1020.71 1387.5,1019C 1386.83,1018.33 1386.17,1017.67 1385.5,1017C 1386.25,1016.33 1386.59,1015.5 1386.5,1014.5 Z"/></g>
<g><path style="opacity:1" fill="#9b46b5" d="M 1391.5,1018.5 C 1391.92,1019.22 1392.58,1019.72 1393.5,1020C 1392.79,1021.34 1393.12,1022.68 1394.5,1024C 1392.27,1024.94 1390.27,1026.11 1388.5,1027.5C 1388.17,1027.5 1387.83,1027.5 1387.5,1027.5C 1387.5,1026.83 1387.5,1026.17 1387.5,1025.5C 1388.76,1025.54 1389.76,1025.04 1390.5,1024C 1387.58,1022.46 1387.25,1020.96 1389.5,1019.5C 1390.17,1019.17 1390.83,1018.83 1391.5,1018.5 Z"/></g>
<g><path style="opacity:1" fill="#470e92" d="M 1149.5,1017.5 C 1149.49,1023.21 1149.99,1023.54 1151,1018.5C 1151.5,1040.5 1151.67,1062.5 1151.5,1084.5C 1150.83,1084.17 1150.17,1083.83 1149.5,1083.5C 1150.83,1063.74 1150.83,1044.07 1149.5,1024.5C 1148.7,1022.96 1148.37,1021.29 1148.5,1019.5C 1148.33,1018.51 1148.66,1017.84 1149.5,1017.5 Z"/></g>
<g><path style="opacity:1" fill="#beb8ab" d="M 1026.5,1024.5 C 1028.17,1024.5 1029.83,1024.5 1031.5,1024.5C 1031.77,1026.43 1031.27,1028.1 1030,1029.5C 1028.28,1029.04 1026.45,1028.87 1024.5,1029C 1025.33,1028.09 1026.33,1027.42 1027.5,1027C 1025.38,1026.66 1025.05,1025.82 1026.5,1024.5 Z"/></g>
<g><path style="opacity:1" fill="#943f22" d="M 1149.5,1024.5 C 1150.83,1044.07 1150.83,1063.74 1149.5,1083.5C 1149.43,1084.96 1149.77,1086.29 1150.5,1087.5C 1149.83,1087.83 1149.17,1088.17 1148.5,1088.5C 1148.71,1086.82 1148.05,1085.82 1146.5,1085.5C 1146.83,1084.83 1147.17,1084.17 1147.5,1083.5C 1148.17,1063.83 1148.83,1044.17 1149.5,1024.5 Z"/></g>
<g><path style="opacity:1" fill="#bdc8c0" d="M 1118.5,1027.5 C 1120.92,1028.09 1122.59,1029.59 1123.5,1032C 1120.56,1035.29 1118.22,1034.79 1116.5,1030.5C 1117.2,1029.52 1117.86,1028.52 1118.5,1027.5 Z"/></g>
<g><path style="opacity:1" fill="#83ca59" d="M 1387.5,1027.5 C 1387.83,1027.5 1388.17,1027.5 1388.5,1027.5C 1387.53,1029.09 1386.03,1030.09 1384,1030.5C 1383.52,1029.55 1383.35,1028.55 1383.5,1027.5C 1385.14,1027.93 1386.47,1027.93 1387.5,1027.5 Z"/></g>
<g><path style="opacity:1" fill="#aabea0" d="M 1030.5,1030.5 C 1032.22,1031.75 1032.55,1033.25 1031.5,1035C 1029.82,1035.03 1028.32,1035.2 1027,1035.5C 1023.58,1032.77 1023.75,1031.43 1027.5,1031.5C 1029.74,1034.43 1030.74,1034.1 1030.5,1030.5 Z"/></g>
<g><path style="opacity:1" fill="#a4a28a" d="M 1030.5,1036.5 C 1031.5,1036.5 1032.5,1036.5 1033.5,1036.5C 1034.2,1038.68 1034.54,1040.68 1034.5,1042.5C 1034.19,1043.31 1033.69,1043.97 1033,1044.5C 1032,1042.83 1031,1041.17 1030,1039.5C 1028.82,1040.73 1027.65,1040.73 1026.5,1039.5C 1027.62,1038.14 1028.96,1037.14 1030.5,1036.5 Z"/></g>
<g><path style="opacity:1" fill="#a77e40" d="M 1114.5,1041.5 C 1116.12,1042.04 1117.78,1042.37 1119.5,1042.5C 1119.65,1043.55 1119.48,1044.55 1119,1045.5C 1117.56,1043.95 1115.73,1043.12 1113.5,1043C 1114.06,1042.62 1114.39,1042.12 1114.5,1041.5 Z"/></g>
<g><path style="opacity:1" fill="#cf3e74" d="M 1428.5,1037.5 C 1427.09,1039.81 1425.25,1041.81 1423,1043.5C 1422.52,1044.45 1422.35,1045.45 1422.5,1046.5C 1422.5,1047.17 1422.17,1047.5 1421.5,1047.5C 1421.11,1045.29 1419.77,1043.96 1417.5,1043.5C 1416.38,1042.65 1416.38,1041.65 1417.5,1040.5C 1418.67,1040.73 1420,1040.23 1421.5,1039C 1421.17,1038.67 1420.83,1038.33 1420.5,1038C 1422.46,1035.36 1424.96,1033.53 1428,1032.5C 1427.9,1034.38 1428.07,1036.05 1428.5,1037.5 Z"/></g>
<g><path style="opacity:1" fill="#7ac37e" d="M 1417.5,1040.5 C 1416.38,1041.65 1416.38,1042.65 1417.5,1043.5C 1416.79,1044.4 1415.79,1044.74 1414.5,1044.5C 1414.5,1045.5 1414.5,1046.5 1414.5,1047.5C 1412.65,1048.87 1411.32,1048.37 1410.5,1046C 1411.17,1045.67 1411.83,1045.33 1412.5,1045C 1410.84,1044.27 1410.34,1043.11 1411,1041.5C 1412.09,1043.93 1412.59,1043.6 1412.5,1040.5C 1410.8,1040.03 1409.3,1040.03 1408,1040.5C 1407.41,1039.52 1407.74,1038.85 1409,1038.5C 1411.88,1039.12 1414.72,1039.78 1417.5,1040.5 Z"/></g>
<g><path style="opacity:1" fill="#e4e6dc" d="M 1066.5,1038.5 C 1071.28,1039.06 1075.61,1039.06 1079.5,1038.5C 1082.51,1040.39 1085.51,1040.73 1088.5,1039.5C 1093.29,1040.45 1098.12,1041.45 1103,1042.5C 1104,1042.17 1105,1041.83 1106,1041.5C 1106.67,1042.5 1106.67,1043.5 1106,1044.5C 1104.42,1044.51 1102.75,1044.17 1101,1043.5C 1100.33,1044.17 1099.67,1044.83 1099,1045.5C 1097.7,1045.03 1096.2,1045.03 1094.5,1045.5C 1094.97,1047.2 1094.97,1048.7 1094.5,1050C 1095.7,1050.9 1096.53,1052.07 1097,1053.5C 1097.33,1053.17 1097.67,1052.83 1098,1052.5C 1098.48,1053.45 1098.65,1054.45 1098.5,1055.5C 1097.18,1055.33 1096.01,1055.66 1095,1056.5C 1094.5,1055.33 1093.67,1054.5 1092.5,1054C 1093.78,1051.21 1093.78,1048.37 1092.5,1045.5C 1091.81,1046.03 1091.31,1046.69 1091,1047.5C 1089.34,1047.68 1087.67,1047.01 1086,1045.5C 1085.5,1046 1085,1046.5 1084.5,1047C 1086.58,1047.81 1088.41,1048.97 1090,1050.5C 1090.72,1052.11 1090.55,1053.61 1089.5,1055C 1082.32,1054.18 1075.32,1053.35 1068.5,1052.5C 1066.7,1054.33 1064.87,1054.67 1063,1053.5C 1060.15,1054.58 1057.32,1055.42 1054.5,1056C 1056.2,1054.6 1056.7,1052.76 1056,1050.5C 1056.33,1050.83 1056.67,1051.17 1057,1051.5C 1057.31,1050.23 1057.81,1049.07 1058.5,1048C 1053.82,1047.23 1049.49,1046.73 1045.5,1046.5C 1048.18,1045.45 1050.68,1044.11 1053,1042.5C 1054.91,1042.25 1056.91,1042.25 1059,1042.5C 1061.06,1040.68 1063.22,1040.01 1065.5,1040.5C 1066.3,1040.04 1066.63,1039.38 1066.5,1038.5 Z"/></g>
<g><path style="opacity:1" fill="#533486" d="M 1062.5,1045.5 C 1064.2,1045.34 1065.87,1045.51 1067.5,1046C 1066.32,1046.97 1064.99,1047.47 1063.5,1047.5C 1062.7,1047.04 1062.37,1046.38 1062.5,1045.5 Z"/></g>
<g><path style="opacity:1" fill="#c5b1a3" d="M 1112.5,1044.5 C 1114.41,1046.12 1115.75,1048.12 1116.5,1050.5C 1113.84,1050.84 1111.51,1050.17 1109.5,1048.5C 1110.38,1047.75 1111.38,1047.25 1112.5,1047C 1111.4,1046.23 1111.4,1045.4 1112.5,1044.5 Z"/></g>
<g><path style="opacity:1" fill="#6c51a2" d="M 1432.5,1050.5 C 1430.28,1050.82 1428.44,1050.16 1427,1048.5C 1426.86,1050.43 1427.36,1052.27 1428.5,1054C 1427.97,1054.69 1427.31,1055.19 1426.5,1055.5C 1426.94,1053.46 1426.27,1051.46 1424.5,1049.5C 1423.58,1048.44 1422.58,1048.44 1421.5,1049.5C 1421.5,1049.17 1421.5,1048.83 1421.5,1048.5C 1421.5,1048.17 1421.5,1047.83 1421.5,1047.5C 1422.17,1047.5 1422.5,1047.17 1422.5,1046.5C 1424.09,1047.41 1425.59,1047.41 1427,1046.5C 1429.17,1049.28 1429.67,1049.11 1428.5,1046C 1429.59,1044.63 1430.93,1044.3 1432.5,1045C 1433.17,1046.33 1434.17,1047.33 1435.5,1048C 1433.89,1048.72 1432.39,1048.55 1431,1047.5C 1430.76,1048.79 1431.26,1049.79 1432.5,1050.5 Z"/></g>
<g><path style="opacity:1" fill="#9eaf7b" d="M 1428.5,1037.5 C 1429.25,1038.53 1429.92,1039.7 1430.5,1041C 1430.17,1041.33 1429.83,1041.67 1429.5,1042C 1433.46,1042.98 1436.8,1044.98 1439.5,1048C 1437.7,1048.64 1436.36,1049.8 1435.5,1051.5C 1434.79,1049.57 1433.79,1049.23 1432.5,1050.5C 1431.26,1049.79 1430.76,1048.79 1431,1047.5C 1432.39,1048.55 1433.89,1048.72 1435.5,1048C 1434.17,1047.33 1433.17,1046.33 1432.5,1045C 1430.93,1044.3 1429.59,1044.63 1428.5,1046C 1429.67,1049.11 1429.17,1049.28 1427,1046.5C 1425.59,1047.41 1424.09,1047.41 1422.5,1046.5C 1422.35,1045.45 1422.52,1044.45 1423,1043.5C 1425.25,1041.81 1427.09,1039.81 1428.5,1037.5 Z"/></g>
<g><path style="opacity:1" fill="#91d599" d="M 1037.5,1049.5 C 1035.74,1049.88 1034.08,1050.54 1032.5,1051.5C 1031.74,1050.37 1031.07,1049.21 1030.5,1048C 1031.74,1047.69 1032.74,1048.19 1033.5,1049.5C 1034.5,1048.83 1035.5,1048.17 1036.5,1047.5C 1037.3,1047.96 1037.63,1048.62 1037.5,1049.5 Z"/></g>
<g><path style="opacity:1" fill="#9ea570" d="M 1432.5,1050.5 C 1432.61,1051.12 1432.94,1051.62 1433.5,1052C 1432.17,1052.67 1430.83,1053.33 1429.5,1054C 1429.24,1056.06 1429.57,1058.23 1430.5,1060.5C 1429.96,1066.7 1428.62,1067.03 1426.5,1061.5C 1425.07,1059.81 1424.24,1057.81 1424,1055.5C 1423.75,1056.62 1423.25,1057.62 1422.5,1058.5C 1422.17,1058.33 1421.83,1058.17 1421.5,1058C 1422.23,1056.6 1422.73,1055.1 1423,1053.5C 1423.89,1054.89 1424.39,1054.72 1424.5,1053C 1423.07,1052.92 1422.07,1051.75 1421.5,1049.5C 1422.58,1048.44 1423.58,1048.44 1424.5,1049.5C 1426.27,1051.46 1426.94,1053.46 1426.5,1055.5C 1427.31,1055.19 1427.97,1054.69 1428.5,1054C 1427.36,1052.27 1426.86,1050.43 1427,1048.5C 1428.44,1050.16 1430.28,1050.82 1432.5,1050.5 Z"/></g>
<g><path style="opacity:1" fill="#ac8087" d="M 1421.5,1048.5 C 1421.5,1048.83 1421.5,1049.17 1421.5,1049.5C 1422.07,1051.75 1423.07,1052.92 1424.5,1053C 1424.39,1054.72 1423.89,1054.89 1423,1053.5C 1422.73,1055.1 1422.23,1056.6 1421.5,1058C 1421.83,1058.17 1422.17,1058.33 1422.5,1058.5C 1423.25,1057.62 1423.75,1056.62 1424,1055.5C 1424.24,1057.81 1425.07,1059.81 1426.5,1061.5C 1426.63,1062.38 1426.3,1063.04 1425.5,1063.5C 1423.7,1059.93 1421.03,1058.6 1417.5,1059.5C 1416.88,1057.77 1415.88,1056.27 1414.5,1055C 1415.42,1054.63 1416.25,1054.13 1417,1053.5C 1418.34,1054.76 1419.84,1055.26 1421.5,1055C 1416.18,1052.54 1416.18,1050.37 1421.5,1048.5 Z"/></g>
<g><path style="opacity:1" fill="#bbd9bb" d="M 1037.5,1049.5 C 1038.93,1050.08 1040.26,1050.92 1041.5,1052C 1039.83,1053.5 1038.17,1055 1036.5,1056.5C 1034.72,1055.65 1034.22,1054.32 1035,1052.5C 1035.32,1054.57 1036.16,1054.9 1037.5,1053.5C 1038.63,1052.19 1038.63,1050.86 1037.5,1049.5 Z"/></g>
<g><path style="opacity:1" fill="#a8ae6c" d="M 1110.5,1053.5 C 1114.97,1053.03 1115.47,1054.03 1112,1056.5C 1110.96,1055.76 1110.46,1054.76 1110.5,1053.5 Z"/></g>
<g><path style="opacity:1" fill="#919767" d="M 1417.5,1043.5 C 1419.77,1043.96 1421.11,1045.29 1421.5,1047.5C 1421.5,1047.83 1421.5,1048.17 1421.5,1048.5C 1416.18,1050.37 1416.18,1052.54 1421.5,1055C 1419.84,1055.26 1418.34,1054.76 1417,1053.5C 1416.25,1054.13 1415.42,1054.63 1414.5,1055C 1415.88,1056.27 1416.88,1057.77 1417.5,1059.5C 1414.49,1058.18 1411.83,1058.18 1409.5,1059.5C 1410.21,1057.19 1411.21,1055.02 1412.5,1053C 1412.17,1052.67 1411.83,1052.33 1411.5,1052C 1412.83,1052 1414.17,1052 1415.5,1052C 1414.62,1050.64 1414.29,1049.14 1414.5,1047.5C 1414.5,1046.5 1414.5,1045.5 1414.5,1044.5C 1415.79,1044.74 1416.79,1044.4 1417.5,1043.5 Z"/></g>
<g><path style="opacity:1" fill="#d7daa8" d="M 1104.5,1055.5 C 1104.9,1054.47 1105.56,1054.31 1106.5,1055C 1108.55,1057.05 1108.55,1058.05 1106.5,1058C 1105.93,1057.01 1105.27,1056.17 1104.5,1055.5 Z"/></g>
<g><path style="opacity:1" fill="#b1aaae" d="M 1040.5,1055.5 C 1045.27,1055.63 1046.27,1057.46 1043.5,1061C 1042.36,1061.75 1041.36,1061.58 1040.5,1060.5C 1039.46,1058.87 1039.46,1057.2 1040.5,1055.5 Z"/></g>
<g><path style="opacity:1" fill="#a09890" d="M 1102.5,1057.5 C 1103.84,1058.31 1104.84,1059.48 1105.5,1061C 1105.94,1062.52 1105.28,1063.69 1103.5,1064.5C 1102.81,1063.97 1102.31,1063.31 1102,1062.5C 1100.93,1063.28 1099.76,1063.11 1098.5,1062C 1099.83,1061.33 1099.83,1060.67 1098.5,1060C 1099.86,1059.07 1101.19,1058.23 1102.5,1057.5 Z"/></g>
<g><path style="opacity:1" fill="#b9c98c" d="M 1047.5,1061.5 C 1049.91,1062.78 1050.08,1064.44 1048,1066.5C 1046.5,1065.67 1045.33,1064.5 1044.5,1063C 1045.45,1062.38 1046.28,1062.55 1047,1063.5C 1047.46,1062.91 1047.63,1062.24 1047.5,1061.5 Z"/></g>
<g><path style="opacity:1" fill="#bec295" d="M 1052.5,1062.5 C 1056.14,1064.17 1056.47,1066.5 1053.5,1069.5C 1053.73,1067.7 1053.06,1065.87 1051.5,1064C 1052.06,1063.62 1052.39,1063.12 1052.5,1062.5 Z"/></g>
<g><path style="opacity:1" fill="#cce9ba" d="M 1095.5,1063.5 C 1095.49,1065.69 1094.49,1066.52 1092.5,1066C 1093.83,1065 1093.83,1064 1092.5,1063C 1093.58,1062.53 1094.58,1062.7 1095.5,1063.5 Z"/></g>
<g><path style="opacity:1" fill="#d0daad" d="M 1095.5,1063.5 C 1095.78,1062.71 1096.28,1062.04 1097,1061.5C 1097.35,1063.22 1097.85,1064.88 1098.5,1066.5C 1098.17,1066.83 1097.83,1067.17 1097.5,1067.5C 1096.83,1066.05 1096.16,1064.72 1095.5,1063.5 Z"/></g>
<g><path style="opacity:1" fill="#92a448" d="M 1452.5,1062.5 C 1453.25,1065.02 1452.25,1067.02 1449.5,1068.5C 1449.17,1068.17 1448.83,1067.83 1448.5,1067.5C 1449.51,1065.5 1450.84,1063.83 1452.5,1062.5 Z"/></g>
<g><path style="opacity:0.981" fill="#2c3e50" d="M 1748.5,1064.5 C 1784.65,1060.83 1817.98,1068.66 1848.5,1088C 1885.23,1116.46 1903.23,1154.13 1902.5,1201C 1902.34,1210.21 1901.68,1219.38 1900.5,1228.5C 1833.16,1228.17 1765.83,1228.5 1698.5,1229.5C 1703.21,1265.04 1723.21,1285.54 1758.5,1291C 1786.23,1293.31 1806.57,1282.31 1819.5,1258C 1844.83,1257.5 1870.16,1257.33 1895.5,1257.5C 1877.95,1310.8 1841.29,1341.3 1785.5,1349C 1741.14,1354.5 1702.14,1342.84 1668.5,1314C 1645.22,1289.93 1631.72,1261.1 1628,1227.5C 1622.54,1184.34 1632.54,1145.34 1658,1110.5C 1682.31,1083.59 1712.48,1068.26 1748.5,1064.5 Z M 1754.5,1122.5 C 1780.79,1119.75 1802.29,1128.42 1819,1148.5C 1825.4,1158.2 1828.9,1168.86 1829.5,1180.5C 1786.17,1180.5 1742.83,1180.5 1699.5,1180.5C 1704.27,1148.07 1722.6,1128.74 1754.5,1122.5 Z"/></g>
<g><path style="opacity:0.981" fill="#2c3e50" d="M 2053.5,1064.5 C 2077.32,1062.64 2100.66,1065.14 2123.5,1072C 2165.39,1088.4 2191.39,1118.57 2201.5,1162.5C 2176.16,1162.67 2150.83,1162.5 2125.5,1162C 2112.22,1131.86 2089.22,1119.86 2056.5,1126C 2039.58,1130.04 2026.75,1139.54 2018,1154.5C 2009.72,1171 2005.89,1188.5 2006.5,1207C 2005.58,1230.56 2012.08,1251.73 2026,1270.5C 2042.38,1286.4 2061.88,1292.23 2084.5,1288C 2105.29,1284.11 2118.95,1272.11 2125.5,1252C 2150.83,1251.5 2176.16,1251.33 2201.5,1251.5C 2189.16,1301.34 2158.16,1332.84 2108.5,1346C 2069.52,1354.81 2032.52,1349.81 1997.5,1331C 1962.45,1307.9 1941.95,1275.4 1936,1233.5C 1930.8,1198.26 1935.8,1164.59 1951,1132.5C 1973.81,1092.87 2007.98,1070.21 2053.5,1064.5 Z"/></g>
<g><path style="opacity:0.983" fill="#2c3e50" d="M 352.5,1071.5 C 360.833,1071.5 369.167,1071.5 377.5,1071.5C 377.5,1095.83 377.5,1120.17 377.5,1144.5C 366.828,1144.33 356.161,1144.5 345.5,1145C 313.296,1147.87 295.796,1165.37 293,1197.5C 292.5,1249.17 292.333,1300.83 292.5,1352.5C 269.5,1352.5 246.5,1352.5 223.5,1352.5C 223.5,1259.5 223.5,1166.5 223.5,1073.5C 246.5,1073.5 269.5,1073.5 292.5,1073.5C 292.333,1086.84 292.5,1100.17 293,1113.5C 307.542,1091.98 327.375,1077.98 352.5,1071.5 Z"/></g>
<g><path style="opacity:0.982" fill="#2c3e50" d="M 883.5,1071.5 C 900.503,1071.33 917.503,1071.5 934.5,1072C 978.996,1081.83 1006.16,1109 1016,1153.5C 1017.37,1160.45 1018.37,1167.45 1019,1174.5C 1019.5,1233.83 1019.67,1293.17 1019.5,1352.5C 995.833,1352.5 972.167,1352.5 948.5,1352.5C 948.667,1298.17 948.5,1243.83 948,1189.5C 946.798,1161.66 933.298,1142.83 907.5,1133C 886.399,1127.3 866.732,1130.3 848.5,1142C 834.948,1153.29 827.448,1167.79 826,1185.5C 825.5,1241.17 825.333,1296.83 825.5,1352.5C 801.833,1352.5 778.167,1352.5 754.5,1352.5C 754.5,1259.5 754.5,1166.5 754.5,1073.5C 778.167,1073.5 801.833,1073.5 825.5,1073.5C 825.333,1084.17 825.5,1094.84 826,1105.5C 841.802,1088.35 860.969,1077.02 883.5,1071.5 Z"/></g>
<g><path style="opacity:0.98" fill="#2c3e50" d="M 420.5,1073.5 C 444.167,1073.5 467.833,1073.5 491.5,1073.5C 491.333,1126.5 491.5,1179.5 492,1232.5C 494.1,1271.27 514.433,1292.27 553,1295.5C 589.896,1293.6 610.229,1274.27 614,1237.5C 614.5,1182.83 614.667,1128.17 614.5,1073.5C 638.5,1073.5 662.5,1073.5 686.5,1073.5C 686.5,1166.5 686.5,1259.5 686.5,1352.5C 662.5,1352.5 638.5,1352.5 614.5,1352.5C 614.667,1341.49 614.5,1330.49 614,1319.5C 592.03,1343.9 564.53,1355.9 531.5,1355.5C 483.465,1355.59 449.632,1333.92 430,1290.5C 426.078,1280.15 423.411,1269.48 422,1258.5C 420.546,1196.85 420.046,1135.18 420.5,1073.5 Z"/></g>
<g><path style="opacity:1" fill="#54cda3" d="M 1454.5,1071.5 C 1452.28,1072.11 1450.61,1073.45 1449.5,1075.5C 1450.36,1076.43 1451.36,1077.09 1452.5,1077.5C 1452.83,1078.17 1453.17,1078.83 1453.5,1079.5C 1451.83,1078.17 1450.17,1078.17 1448.5,1079.5C 1447.23,1078.81 1447.23,1077.98 1448.5,1077C 1447.96,1076.28 1447.29,1075.78 1446.5,1075.5C 1448.77,1073.73 1450.94,1071.73 1453,1069.5C 1453.72,1070.04 1454.22,1070.71 1454.5,1071.5 Z"/></g>
<g><path style="opacity:1" fill="#d98c4e" d="M 1454.5,1071.5 C 1455.38,1071.37 1456.04,1071.7 1456.5,1072.5C 1454.6,1073.77 1453.26,1075.43 1452.5,1077.5C 1451.36,1077.09 1450.36,1076.43 1449.5,1075.5C 1450.61,1073.45 1452.28,1072.11 1454.5,1071.5 Z"/></g>
<g><path style="opacity:1" fill="#a09274" d="M 1446.5,1075.5 C 1447.29,1075.78 1447.96,1076.28 1448.5,1077C 1447.23,1077.98 1447.23,1078.81 1448.5,1079.5C 1448.28,1080.68 1448.61,1081.68 1449.5,1082.5C 1451.26,1081.96 1452.59,1080.96 1453.5,1079.5C 1455.08,1078.06 1456.58,1076.4 1458,1074.5C 1459.9,1075.16 1461.4,1076.32 1462.5,1078C 1461,1079.49 1460.16,1081.32 1460,1083.5C 1458.85,1082.54 1457.85,1082.88 1457,1084.5C 1456.76,1086.76 1456.26,1088.93 1455.5,1091C 1455.83,1091.33 1456.17,1091.67 1456.5,1092C 1455.18,1091.85 1454.01,1092.02 1453,1092.5C 1451.62,1091.45 1450.62,1090.12 1450,1088.5C 1449.75,1089.62 1449.25,1090.62 1448.5,1091.5C 1446.16,1090.58 1444.66,1088.92 1444,1086.5C 1443.67,1087.83 1443.33,1089.17 1443,1090.5C 1442.84,1088.32 1442,1086.49 1440.5,1085C 1441.96,1084.58 1442.46,1083.74 1442,1082.5C 1440.57,1082.69 1439.07,1082.69 1437.5,1082.5C 1438.18,1079.54 1439.02,1079.21 1440,1081.5C 1441.11,1080.24 1441.28,1079.07 1440.5,1078C 1444.19,1077.58 1444.36,1076.74 1441,1075.5C 1439.27,1076.58 1437.44,1076.74 1435.5,1076C 1436.42,1075.63 1437.25,1075.13 1438,1074.5C 1437.95,1072.69 1438.12,1071.02 1438.5,1069.5C 1439.75,1070.04 1440.91,1070.71 1442,1071.5C 1443.73,1070.36 1445.57,1069.86 1447.5,1070C 1445.98,1071.35 1444.65,1072.85 1443.5,1074.5C 1444.32,1075.39 1445.32,1075.72 1446.5,1075.5 Z"/></g>
<g><path style="opacity:1" fill="#a136ad" d="M 1453.5,1079.5 C 1452.59,1080.96 1451.26,1081.96 1449.5,1082.5C 1448.61,1081.68 1448.28,1080.68 1448.5,1079.5C 1450.17,1078.17 1451.83,1078.17 1453.5,1079.5 Z"/></g>
<g><path style="opacity:1" fill="#e677c2" d="M 1149.5,1083.5 C 1150.17,1083.83 1150.83,1084.17 1151.5,1084.5C 1151.5,1167.17 1151.5,1249.83 1151.5,1332.5C 1150.57,1331.43 1150.23,1330.1 1150.5,1328.5C 1150.5,1248.17 1150.5,1167.83 1150.5,1087.5C 1149.77,1086.29 1149.43,1084.96 1149.5,1083.5 Z"/></g>
<g><path style="opacity:0.611" fill="#4663a6" d="M 1150.5,1087.5 C 1150.5,1167.83 1150.5,1248.17 1150.5,1328.5C 1149.7,1327.05 1149.2,1325.38 1149,1323.5C 1148.5,1245.17 1148.33,1166.83 1148.5,1088.5C 1149.17,1088.17 1149.83,1087.83 1150.5,1087.5 Z"/></g>
<g><path style="opacity:1" fill="#81bb4c" d="M 1480.5,1103.5 C 1477.72,1104.31 1475.56,1105.98 1474,1108.5C 1473.68,1106.43 1472.84,1106.1 1471.5,1107.5C 1470.48,1106.31 1469.31,1105.31 1468,1104.5C 1468.63,1109.48 1467.29,1109.81 1464,1105.5C 1463.51,1104.21 1463.34,1102.87 1463.5,1101.5C 1465.14,1101.71 1466.64,1101.38 1468,1100.5C 1468.67,1103.17 1469.33,1103.17 1470,1100.5C 1471.84,1101.83 1472.34,1101.67 1471.5,1100C 1473.17,1098.67 1474.83,1097.33 1476.5,1096C 1475.66,1094.33 1476.16,1094.17 1478,1095.5C 1478.49,1096.79 1478.66,1098.13 1478.5,1099.5C 1479.55,1099.35 1480.55,1099.52 1481.5,1100C 1480.66,1101.01 1480.33,1102.18 1480.5,1103.5 Z"/></g>
<g><path style="opacity:1" fill="#8f7d5f" d="M 1462.5,1101.5 C 1462.67,1102.82 1462.34,1103.99 1461.5,1105C 1462.38,1105.71 1463.05,1106.54 1463.5,1107.5C 1460.51,1107.05 1459.51,1105.55 1460.5,1103C 1459.69,1102.69 1459.03,1102.19 1458.5,1101.5C 1459.81,1100.37 1461.14,1100.37 1462.5,1101.5 Z"/></g>
<g><path style="opacity:1" fill="#968655" d="M 1480.5,1103.5 C 1484.54,1104.35 1488.21,1106.02 1491.5,1108.5C 1488.82,1110.17 1486.15,1111.84 1483.5,1113.5C 1482.57,1112.69 1481.57,1111.85 1480.5,1111C 1482.3,1110.68 1482.63,1110.02 1481.5,1109C 1482.83,1108.67 1484.17,1108.33 1485.5,1108C 1483.76,1106.48 1482.09,1104.98 1480.5,1103.5 Z"/></g>
<g><path style="opacity:1" fill="#8bb47f" d="M 1463.5,1107.5 C 1465.15,1108.93 1467.15,1109.76 1469.5,1110C 1468.89,1112.06 1467.89,1112.89 1466.5,1112.5C 1467.03,1113.19 1467.69,1113.69 1468.5,1114C 1467.04,1116.07 1465.37,1116.91 1463.5,1116.5C 1463.81,1117.31 1464.31,1117.97 1465,1118.5C 1466,1118.17 1467,1117.83 1468,1117.5C 1468.46,1118.09 1468.63,1118.76 1468.5,1119.5C 1465.87,1120.42 1463.21,1121.42 1460.5,1122.5C 1460.17,1122.17 1459.83,1121.83 1459.5,1121.5C 1460.38,1120.75 1461.38,1120.25 1462.5,1120C 1461.83,1119.67 1461.17,1119.33 1460.5,1119C 1461.97,1117.9 1462.8,1116.4 1463,1114.5C 1463.92,1114.07 1464.75,1113.74 1465.5,1113.5C 1463.54,1111.66 1462.87,1109.66 1463.5,1107.5 Z"/></g>
<g><path style="opacity:1" fill="#9c6a9f" d="M 1463.5,1101.5 C 1463.34,1102.87 1463.51,1104.21 1464,1105.5C 1467.29,1109.81 1468.63,1109.48 1468,1104.5C 1469.31,1105.31 1470.48,1106.31 1471.5,1107.5C 1472.84,1106.1 1473.68,1106.43 1474,1108.5C 1475.56,1105.98 1477.72,1104.31 1480.5,1103.5C 1482.09,1104.98 1483.76,1106.48 1485.5,1108C 1484.17,1108.33 1482.83,1108.67 1481.5,1109C 1482.63,1110.02 1482.3,1110.68 1480.5,1111C 1481.57,1111.85 1482.57,1112.69 1483.5,1113.5C 1481.58,1115.71 1480.91,1118.04 1481.5,1120.5C 1480.31,1119.32 1479.15,1119.32 1478,1120.5C 1477.33,1119.5 1477.33,1118.5 1478,1117.5C 1478.91,1118.65 1479.75,1118.49 1480.5,1117C 1478.97,1115.11 1476.97,1114.11 1474.5,1114C 1475.83,1113.67 1477.17,1113.33 1478.5,1113C 1479.71,1112.11 1479.71,1111.27 1478.5,1110.5C 1477.28,1111.71 1476.11,1111.71 1475,1110.5C 1474.5,1111.67 1473.67,1112.5 1472.5,1113C 1471.79,1115.31 1471.79,1117.81 1472.5,1120.5C 1470.9,1120.77 1469.57,1120.43 1468.5,1119.5C 1468.63,1118.76 1468.46,1118.09 1468,1117.5C 1467,1117.83 1466,1118.17 1465,1118.5C 1464.31,1117.97 1463.81,1117.31 1463.5,1116.5C 1465.37,1116.91 1467.04,1116.07 1468.5,1114C 1467.69,1113.69 1467.03,1113.19 1466.5,1112.5C 1467.89,1112.89 1468.89,1112.06 1469.5,1110C 1467.15,1109.76 1465.15,1108.93 1463.5,1107.5C 1463.05,1106.54 1462.38,1105.71 1461.5,1105C 1462.34,1103.99 1462.67,1102.82 1462.5,1101.5C 1462.83,1100.17 1463.17,1100.17 1463.5,1101.5 Z"/></g>
<g><path style="opacity:1" fill="#b09878" d="M 1481.5,1120.5 C 1481.59,1123.6 1481.09,1123.93 1480,1121.5C 1479.67,1122.17 1479.33,1122.83 1479,1123.5C 1477.62,1122.45 1476.62,1121.12 1476,1119.5C 1475.67,1120.5 1475.33,1121.5 1475,1122.5C 1474.58,1121.24 1473.75,1120.58 1472.5,1120.5C 1471.79,1117.81 1471.79,1115.31 1472.5,1113C 1473.67,1112.5 1474.5,1111.67 1475,1110.5C 1476.11,1111.71 1477.28,1111.71 1478.5,1110.5C 1479.71,1111.27 1479.71,1112.11 1478.5,1113C 1477.17,1113.33 1475.83,1113.67 1474.5,1114C 1476.97,1114.11 1478.97,1115.11 1480.5,1117C 1479.75,1118.49 1478.91,1118.65 1478,1117.5C 1477.33,1118.5 1477.33,1119.5 1478,1120.5C 1479.15,1119.32 1480.31,1119.32 1481.5,1120.5 Z"/></g>
<g><path style="opacity:1" fill="#98cd82" d="M 1514.5,1141.5 C 1512.39,1140.03 1510.56,1140.37 1509,1142.5C 1508.52,1141.55 1508.35,1140.55 1508.5,1139.5C 1509.87,1139.66 1511.21,1139.49 1512.5,1139C 1509.71,1137.44 1506.71,1137.11 1503.5,1138C 1504.07,1138.99 1504.73,1139.83 1505.5,1140.5C 1506.75,1140.97 1506.58,1141.3 1505,1141.5C 1503.5,1141 1502,1140.5 1500.5,1140C 1500.83,1139.67 1501.17,1139.33 1501.5,1139C 1500.35,1138.36 1499.35,1137.52 1498.5,1136.5C 1496.56,1136.62 1494.72,1136.62 1493,1136.5C 1491.78,1135.73 1490.78,1134.73 1490,1133.5C 1489.72,1134.42 1489.22,1135.08 1488.5,1135.5C 1484.69,1135.4 1484.69,1134.74 1488.5,1133.5C 1487.73,1132.29 1486.89,1132.29 1486,1133.5C 1485.41,1132.52 1485.74,1131.85 1487,1131.5C 1487.87,1131.26 1488.71,1130.93 1489.5,1130.5C 1491.67,1132.45 1494,1133.12 1496.5,1132.5C 1497,1129.66 1498.67,1128.32 1501.5,1128.5C 1501.35,1127.45 1501.52,1126.45 1502,1125.5C 1503,1125.17 1504,1124.83 1505,1124.5C 1504.83,1126.33 1504.67,1128.17 1504.5,1130C 1507.17,1130.67 1507.17,1131.33 1504.5,1132C 1505.45,1132.48 1506.45,1132.65 1507.5,1132.5C 1507.31,1134.1 1507.81,1135.44 1509,1136.5C 1511.18,1135.89 1513.18,1136.56 1515,1138.5C 1515.47,1139.58 1515.3,1140.58 1514.5,1141.5 Z"/></g>
<g><path style="opacity:1" fill="#7947d4" d="M 1508.5,1139.5 C 1507.21,1139.26 1506.21,1139.6 1505.5,1140.5C 1504.73,1139.83 1504.07,1138.99 1503.5,1138C 1506.71,1137.11 1509.71,1137.44 1512.5,1139C 1511.21,1139.49 1509.87,1139.66 1508.5,1139.5 Z"/></g>
<g><path style="opacity:1" fill="#9b8176" d="M 1505.5,1140.5 C 1506.21,1139.6 1507.21,1139.26 1508.5,1139.5C 1508.35,1140.55 1508.52,1141.55 1509,1142.5C 1510.56,1140.37 1512.39,1140.03 1514.5,1141.5C 1513.17,1142.93 1511.67,1144.27 1510,1145.5C 1508.08,1145.64 1506.25,1145.14 1504.5,1144C 1505.19,1145.07 1505.69,1146.23 1506,1147.5C 1506.89,1146.29 1507.73,1146.29 1508.5,1147.5C 1506.67,1148.43 1506.33,1149.59 1507.5,1151C 1504.83,1151.67 1504.83,1152.33 1507.5,1153C 1506.83,1153.33 1506.17,1153.67 1505.5,1154C 1506.96,1154.42 1507.46,1155.26 1507,1156.5C 1505.04,1156.97 1503.2,1156.3 1501.5,1154.5C 1501.71,1153.91 1502.04,1153.41 1502.5,1153C 1501.33,1152.58 1500.33,1151.91 1499.5,1151C 1501.18,1147.91 1500.35,1145.74 1497,1144.5C 1496.25,1145.13 1495.42,1145.63 1494.5,1146C 1498.81,1146.87 1499.14,1147.87 1495.5,1149C 1496.17,1149.33 1496.83,1149.67 1497.5,1150C 1494.44,1151.61 1491.6,1151.78 1489,1150.5C 1486.04,1153.39 1485.21,1153.06 1486.5,1149.5C 1487.32,1148.61 1488.32,1148.28 1489.5,1148.5C 1489.28,1147.32 1489.61,1146.32 1490.5,1145.5C 1491.77,1143.82 1493.44,1142.65 1495.5,1142C 1493.02,1141.32 1491.19,1142.15 1490,1144.5C 1490.7,1142.24 1490.2,1140.4 1488.5,1139C 1489.17,1138.67 1489.83,1138.33 1490.5,1138C 1489.62,1137.29 1488.95,1136.46 1488.5,1135.5C 1489.22,1135.08 1489.72,1134.42 1490,1133.5C 1490.78,1134.73 1491.78,1135.73 1493,1136.5C 1494.72,1136.62 1496.56,1136.62 1498.5,1136.5C 1499.35,1137.52 1500.35,1138.36 1501.5,1139C 1501.17,1139.33 1500.83,1139.67 1500.5,1140C 1502,1140.5 1503.5,1141 1505,1141.5C 1506.58,1141.3 1506.75,1140.97 1505.5,1140.5 Z"/></g>
<g><path style="opacity:0.962" fill="#2c3e50" d="M 872.5,1447.5 C 888.882,1447.08 905.215,1447.58 921.5,1449C 953.593,1457.59 970.926,1478.42 973.5,1511.5C 961.518,1512.5 949.518,1512.83 937.5,1512.5C 934.932,1492.43 923.598,1480.6 903.5,1477C 890.138,1474.9 877.471,1476.9 865.5,1483C 852.831,1492.68 850.331,1504.51 858,1518.5C 861.251,1522.42 865.084,1525.59 869.5,1528C 893.01,1536.46 916.676,1544.46 940.5,1552C 973.708,1568.59 982.874,1594.09 968,1628.5C 958.6,1642.56 945.766,1652.06 929.5,1657C 898.988,1664.91 869.988,1661.24 842.5,1646C 829.155,1637.16 820.322,1624.99 816,1609.5C 815.501,1604.85 815.334,1600.18 815.5,1595.5C 827.167,1595.5 838.833,1595.5 850.5,1595.5C 854.522,1615.68 866.856,1627.18 887.5,1630C 899.863,1631.56 911.863,1630.23 923.5,1626C 938.939,1617.34 943.439,1604.84 937,1588.5C 931.74,1582.45 925.24,1578.28 917.5,1576C 903.969,1571.53 890.303,1567.53 876.5,1564C 859.729,1560.09 844.895,1552.59 832,1541.5C 820.102,1528.05 815.769,1512.38 819,1494.5C 822.819,1477.7 832.319,1465.2 847.5,1457C 855.604,1452.91 863.937,1449.75 872.5,1447.5 Z"/></g>
<g><path style="opacity:0.972" fill="#2c3e50" d="M 1113.5,1447.5 C 1157.26,1440.35 1191.76,1454.68 1217,1490.5C 1235.69,1526.46 1238.02,1563.46 1224,1601.5C 1202.86,1645.83 1167.69,1665.33 1118.5,1660C 1092.66,1655.84 1072.49,1643.01 1058,1621.5C 1057.5,1666.17 1057.33,1710.83 1057.5,1755.5C 1045.83,1755.5 1034.17,1755.5 1022.5,1755.5C 1022.5,1653.5 1022.5,1551.5 1022.5,1449.5C 1034.17,1449.5 1045.83,1449.5 1057.5,1449.5C 1057.33,1461.5 1057.5,1473.5 1058,1485.5C 1071.66,1465.75 1090.16,1453.09 1113.5,1447.5 Z M 1123.5,1476.5 C 1164.87,1477.71 1189.04,1498.71 1196,1539.5C 1199.44,1563.73 1194.11,1585.73 1180,1605.5C 1160.16,1626.84 1135.99,1634.01 1107.5,1627C 1077.42,1615.57 1060.92,1593.73 1058,1561.5C 1055.75,1535.93 1063.25,1513.76 1080.5,1495C 1092.99,1484.42 1107.33,1478.25 1123.5,1476.5 Z"/></g>
<g><path style="opacity:0.965" fill="#2c3e50" d="M 1341.5,1447.5 C 1373.4,1441.57 1401.73,1448.74 1426.5,1469C 1431.05,1473.88 1435.21,1479.04 1439,1484.5C 1439.5,1472.84 1439.67,1461.17 1439.5,1449.5C 1451.5,1449.5 1463.5,1449.5 1475.5,1449.5C 1475.5,1518.83 1475.5,1588.17 1475.5,1657.5C 1463.5,1657.5 1451.5,1657.5 1439.5,1657.5C 1439.67,1645.5 1439.5,1633.5 1439,1621.5C 1424.61,1643.18 1404.45,1656.02 1378.5,1660C 1330.09,1665.21 1295.25,1646.04 1274,1602.5C 1261.75,1570.29 1261.41,1537.96 1273,1505.5C 1286.55,1475.11 1309.39,1455.77 1341.5,1447.5 Z M 1366.5,1476.5 C 1409.06,1478.89 1433.22,1501.22 1439,1543.5C 1442.59,1574.78 1432.09,1599.95 1407.5,1619C 1384.68,1631.82 1361.35,1632.82 1337.5,1622C 1315.04,1608.28 1302.87,1588.11 1301,1561.5C 1298.22,1533.51 1307.05,1510.01 1327.5,1491C 1339.28,1482.69 1352.28,1477.85 1366.5,1476.5 Z"/></g>
<g><path style="opacity:0.965" fill="#2c3e50" d="M 1598.5,1447.5 C 1613.84,1447.33 1629.17,1447.5 1644.5,1448C 1683.01,1455.67 1707.01,1478.51 1716.5,1516.5C 1703.82,1516.83 1691.15,1516.5 1678.5,1515.5C 1670.65,1493.82 1655.31,1480.99 1632.5,1477C 1594.91,1472.86 1570.41,1488.7 1559,1524.5C 1552.52,1551.18 1555.19,1576.84 1567,1601.5C 1582.76,1624.54 1604.59,1634.04 1632.5,1630C 1655.91,1626.76 1671.24,1613.92 1678.5,1591.5C 1691.15,1590.5 1703.82,1590.17 1716.5,1590.5C 1707.08,1625.75 1684.75,1648.25 1649.5,1658C 1619.58,1664.82 1591.24,1660.82 1564.5,1646C 1541.45,1630.1 1527.28,1608.27 1522,1580.5C 1515.84,1549.25 1520.17,1519.58 1535,1491.5C 1550.23,1468.3 1571.4,1453.63 1598.5,1447.5 Z"/></g>
<g><path style="opacity:0.966" fill="#2c3e50" d="M 1828.5,1447.5 C 1845.22,1447.07 1861.88,1447.57 1878.5,1449C 1919.62,1460.45 1943.45,1487.29 1950,1529.5C 1950.67,1541.5 1950.67,1553.5 1950,1565.5C 1894.9,1566.5 1839.74,1566.83 1784.5,1566.5C 1787.4,1601.18 1805.73,1622.35 1839.5,1630C 1863.54,1634.1 1883.7,1627.27 1900,1609.5C 1903.61,1604.61 1906.45,1599.28 1908.5,1593.5C 1921.15,1592.5 1933.82,1592.17 1946.5,1592.5C 1936.92,1627.24 1914.59,1649.08 1879.5,1658C 1838.76,1667.41 1803.59,1657.58 1774,1628.5C 1752.07,1599.78 1744.07,1567.44 1750,1531.5C 1757.48,1485.86 1783.65,1457.86 1828.5,1447.5 Z M 1838.5,1476.5 C 1860.26,1473.94 1879.59,1479.44 1896.5,1493C 1908.42,1505.34 1914.42,1520.18 1914.5,1537.5C 1871.5,1537.5 1828.5,1537.5 1785.5,1537.5C 1788.61,1504.39 1806.28,1484.06 1838.5,1476.5 Z"/></g>
</svg>
