<?xml version="1.0" encoding="UTF-8"?>
<!DOCTYPE svg PUBLIC "-//W3C//DTD SVG 1.1//EN" "http://www.w3.org/Graphics/SVG/1.1/DTD/svg11.dtd">
<svg xmlns="http://www.w3.org/2000/svg" version="1.1" width="127px" height="127px" style="shape-rendering:geometricPrecision; text-rendering:geometricPrecision; image-rendering:optimizeQuality; fill-rule:evenodd; clip-rule:evenodd" xmlns:xlink="http://www.w3.org/1999/xlink">
<g><path style="opacity:1" fill="#d1ad47" d="M 24.5,1.5 C 27.1667,2.16667 29.8333,2.83333 32.5,3.5C 28.9581,3.18723 25.6248,3.52056 22.5,4.5C 22.5,27.1667 22.5,49.8333 22.5,72.5C 21.8333,78.1667 21.1667,83.8333 20.5,89.5C 20.5,60.5 20.5,31.5 20.5,2.5C 21.7079,1.76589 23.0413,1.43255 24.5,1.5 Z"/></g>
<g><path style="opacity:1" fill="#d6ad3b" d="M 27.5,0.5 C 36.5062,0.333562 45.5062,0.500228 54.5,1C 55.8333,1.66667 55.8333,2.33333 54.5,3C 47.1742,3.49966 39.8409,3.66632 32.5,3.5C 29.8333,2.83333 27.1667,2.16667 24.5,1.5C 25.391,0.890217 26.391,0.556884 27.5,0.5 Z"/></g>
<g><path style="opacity:1" fill="#f3e09f" d="M 27.5,0.5 C 27.5,0.166667 27.5,-0.166667 27.5,-0.5C 38.8333,-0.5 50.1667,-0.5 61.5,-0.5C 62.1667,0.833333 62.8333,0.833333 63.5,-0.5C 65.5,-0.5 67.5,-0.5 69.5,-0.5C 70.8333,0.833333 72.1667,0.833333 73.5,-0.5C 82.8333,-0.5 92.1667,-0.5 101.5,-0.5C 101.5,-0.166667 101.5,0.166667 101.5,0.5C 100.167,0.5 98.8333,0.5 97.5,0.5C 89.0567,0.0618658 80.7233,0.561866 72.5,2C 80.6626,3.4672 88.9959,3.9672 97.5,3.5C 99.7354,3.20528 101.735,3.53862 103.5,4.5C 76.5,4.5 49.5,4.5 22.5,4.5C 25.6248,3.52056 28.9581,3.18723 32.5,3.5C 39.8409,3.66632 47.1742,3.49966 54.5,3C 55.8333,2.33333 55.8333,1.66667 54.5,1C 45.5062,0.500228 36.5062,0.333562 27.5,0.5 Z"/></g>
<g><path style="opacity:1" fill="#fae773" d="M 97.5,0.5 C 96.1667,1.5 96.1667,2.5 97.5,3.5C 88.9959,3.9672 80.6626,3.4672 72.5,2C 80.7233,0.561866 89.0567,0.0618658 97.5,0.5 Z"/></g>
<g><path style="opacity:1" fill="#fbef86" d="M 97.5,0.5 C 98.8333,0.5 100.167,0.5 101.5,0.5C 102.833,0.5 104.167,0.5 105.5,0.5C 105.666,9.83928 105.5,19.1726 105,28.5C 104.768,27.2625 104.268,26.2625 103.5,25.5C 103.5,18.5 103.5,11.5 103.5,4.5C 101.735,3.53862 99.7354,3.20528 97.5,3.5C 96.1667,2.5 96.1667,1.5 97.5,0.5 Z"/></g>
<g><path style="opacity:0.641" fill="#dcca8c" d="M 20.5,2.5 C 20.5,31.5 20.5,60.5 20.5,89.5C 19.8037,66.3201 19.137,42.9868 18.5,19.5C 19.7927,14.9959 19.7927,10.4959 18.5,6C 18.3866,4.30085 19.0532,3.13419 20.5,2.5 Z"/></g>
<g><path style="opacity:1" fill="#ebeee9" d="M 22.5,4.5 C 49.5,4.5 76.5,4.5 103.5,4.5C 103.5,11.5 103.5,18.5 103.5,25.5C 103.667,46.8359 103.5,68.1693 103,89.5C 102.487,90.5266 101.987,91.5266 101.5,92.5C 101.167,92.5 100.833,92.5 100.5,92.5C 100.833,91.1667 101.167,89.8333 101.5,88.5C 102.833,60.8333 102.833,33.1667 101.5,5.5C 75.8333,5.5 50.1667,5.5 24.5,5.5C 23.502,33.3284 23.1687,61.3284 23.5,89.5C 22.5111,84.0247 22.1778,78.358 22.5,72.5C 22.5,49.8333 22.5,27.1667 22.5,4.5 Z"/></g>
<g><path style="opacity:1" fill="#1f629f" d="M 72.5,17.5 C 72.5,17.8333 72.5,18.1667 72.5,18.5C 74.631,19.3138 76.9644,19.8138 79.5,20C 80.056,20.3826 80.3893,20.8826 80.5,21.5C 80.5,24.1667 80.5,26.8333 80.5,29.5C 81.9778,29.238 83.3112,29.5713 84.5,30.5C 84.8881,34.1243 84.8881,37.7909 84.5,41.5C 83.1667,41.5 81.8333,41.5 80.5,41.5C 81.0365,38.2978 81.0365,34.9645 80.5,31.5C 78.556,30.1993 76.556,29.1993 74.5,28.5C 78.6518,28.3692 79.3185,26.8692 76.5,24C 77.567,21.5728 76.9003,21.0728 74.5,22.5C 73.2223,22.7822 72.2223,23.4489 71.5,24.5C 71.6716,23.5084 71.3382,22.8417 70.5,22.5C 68.0521,21.5269 65.3854,21.1936 62.5,21.5C 65.8489,20.291 69.1823,18.9577 72.5,17.5 Z"/></g>
<g><path style="opacity:1" fill="#2c6da7" d="M 67.5,28.5 C 68.2216,28.0825 68.7216,27.4158 69,26.5C 72.4762,29.1859 72.9762,28.8525 70.5,25.5C 70.6236,24.8933 70.9569,24.56 71.5,24.5C 72.2223,23.4489 73.2223,22.7822 74.5,22.5C 74.4802,24.143 75.1468,25.4763 76.5,26.5C 75.7573,27.1818 75.0906,27.8485 74.5,28.5C 72.691,31.6013 71.3577,34.6013 70.5,37.5C 70.5,36.5 70.5,35.5 70.5,34.5C 69.209,34.2627 68.209,34.596 67.5,35.5C 66.391,35.5569 65.391,35.8902 64.5,36.5C 64.1788,34.9519 63.1788,34.2852 61.5,34.5C 61.5,35.5 61.5,36.5 61.5,37.5C 62.5,37.5 63.5,37.5 64.5,37.5C 64.5,37.8333 64.5,38.1667 64.5,38.5C 62.0194,38.6766 60.1861,37.6766 59,35.5C 58.5172,36.448 58.3505,37.448 58.5,38.5C 58.1667,38.5 57.8333,38.5 57.5,38.5C 57.5,37.5 57.5,36.5 57.5,35.5C 56.209,35.2627 55.209,35.596 54.5,36.5C 53.5266,36.0133 52.5266,35.5133 51.5,35C 53.4727,34.5045 55.4727,34.3379 57.5,34.5C 57.5,32.1667 57.5,29.8333 57.5,27.5C 57.8417,26.6618 58.5084,26.3284 59.5,26.5C 60.1634,29.423 61.8301,30.0897 64.5,28.5C 64.8256,26.4898 65.1589,24.4898 65.5,22.5C 66.1687,24.6309 66.8354,26.6309 67.5,28.5 Z"/></g>
<g><path style="opacity:1" fill="#14518c" d="M 39.5,25.5 C 40.8333,26.1667 41.8333,27.1667 42.5,28.5C 42.56,29.0431 42.8933,29.3764 43.5,29.5C 44.3857,28.675 44.719,27.675 44.5,26.5C 45.5,27.1667 46.5,27.8333 47.5,28.5C 45.9586,29.6668 44.6252,31.0001 43.5,32.5C 43.8333,33.1667 44.1667,33.8333 44.5,34.5C 42.0706,34.8844 39.7373,35.551 37.5,36.5C 37.7947,38.7354 37.4614,40.7354 36.5,42.5C 35.5084,42.6716 34.8417,42.3382 34.5,41.5C 32.5756,39.305 30.9089,36.9717 29.5,34.5C 28.8333,33.1667 28.1667,31.8333 27.5,30.5C 31.4338,29.6403 35.4338,29.307 39.5,29.5C 39.5,28.1667 39.5,26.8333 39.5,25.5 Z"/></g>
<g><path style="opacity:1" fill="#1561a4" d="M 57.5,27.5 C 57.5,29.8333 57.5,32.1667 57.5,34.5C 55.4727,34.3379 53.4727,34.5045 51.5,35C 52.5266,35.5133 53.5266,36.0133 54.5,36.5C 54.3284,37.4916 54.6618,38.1583 55.5,38.5C 55.44,39.0431 55.1067,39.3764 54.5,39.5C 52.8211,37.8955 50.8211,37.2289 48.5,37.5C 47.962,35.8828 47.6287,34.2161 47.5,32.5C 46.5,32.5 45.5,32.5 44.5,32.5C 47.8242,30.2607 51.4909,28.9274 55.5,28.5C 56.1667,28.1667 56.8333,27.8333 57.5,27.5 Z"/></g>
<g><path style="opacity:1" fill="#2d6da5" d="M 80.5,21.5 C 81.5,21.5 82.5,21.5 83.5,21.5C 83.1281,24.0217 83.9614,26.0217 86,27.5C 86.2784,26.5842 86.7784,25.9175 87.5,25.5C 87.281,26.675 87.6143,27.675 88.5,28.5C 91.0576,19.2879 93.0576,19.2879 94.5,28.5C 94.5,28.8333 94.5,29.1667 94.5,29.5C 94.408,31.7708 94.0747,34.1041 93.5,36.5C 93.8684,38.1753 94.8684,39.1753 96.5,39.5C 96.5,39.8333 96.5,40.1667 96.5,40.5C 94.1667,43.1667 91.8333,45.8333 89.5,48.5C 88.5041,48.5858 87.6708,48.2524 87,47.5C 86.3448,45.3716 85.5114,43.3716 84.5,41.5C 84.8881,37.7909 84.8881,34.1243 84.5,30.5C 83.3112,29.5713 81.9778,29.238 80.5,29.5C 80.5,26.8333 80.5,24.1667 80.5,21.5 Z"/></g>
<g><path style="opacity:1" fill="#4f7698" d="M 101.5,5.5 C 102.833,33.1667 102.833,60.8333 101.5,88.5C 101.5,78.5 101.5,68.5 101.5,58.5C 101.5,56.1667 101.5,53.8333 101.5,51.5C 101.666,45.8236 101.499,40.1569 101,34.5C 99.955,35.3734 99.1217,36.3734 98.5,37.5C 97.9569,37.44 97.6236,37.1067 97.5,36.5C 99.6206,33.1434 99.7873,29.81 98,26.5C 97.5172,27.448 97.3505,28.448 97.5,29.5C 96.5,29.5 95.5,29.5 94.5,29.5C 94.5,29.1667 94.5,28.8333 94.5,28.5C 95.9779,27.5525 96.9779,26.2191 97.5,24.5C 98.9311,24.1193 99.7645,23.1193 100,21.5C 100.778,16.4158 100.611,11.4158 99.5,6.5C 100.492,6.67158 101.158,6.33825 101.5,5.5 Z"/></g>
<g><path style="opacity:1" fill="#849db0" d="M 74.5,28.5 C 75.0906,27.8485 75.7573,27.1818 76.5,26.5C 75.1468,25.4763 74.4802,24.143 74.5,22.5C 76.9003,21.0728 77.567,21.5728 76.5,24C 79.3185,26.8692 78.6518,28.3692 74.5,28.5 Z"/></g>
<g><path style="opacity:1" fill="#74889c" d="M 31.5,27.5 C 32.4614,25.7354 32.7947,23.7354 32.5,21.5C 33.791,21.2627 34.791,21.596 35.5,22.5C 34.6981,23.9516 34.1981,25.6183 34,27.5C 28.6687,28.9471 27.1687,26.9471 29.5,21.5C 30.1687,23.6309 30.8354,25.6309 31.5,27.5 Z"/></g>
<g><path style="opacity:1" fill="#99a8b5" d="M 42.5,28.5 C 41.8333,27.1667 40.8333,26.1667 39.5,25.5C 38.5826,25.4936 38.0826,26.4936 38,28.5C 37.5172,27.552 37.3505,26.552 37.5,25.5C 37.281,24.325 37.6143,23.325 38.5,22.5C 39.8139,23.3128 40.9805,24.3128 42,25.5C 42.3333,24.5 42.6667,23.5 43,22.5C 43.7891,24.7116 43.6225,26.7116 42.5,28.5 Z"/></g>
<g><path style="opacity:1" fill="#a1b1bd" d="M 70.5,22.5 C 71.3382,22.8417 71.6716,23.5084 71.5,24.5C 70.9569,24.56 70.6236,24.8933 70.5,25.5C 72.9762,28.8525 72.4762,29.1859 69,26.5C 68.7216,27.4158 68.2216,28.0825 67.5,28.5C 67.3379,26.4727 67.5045,24.4727 68,22.5C 68.3333,23.5 68.6667,24.5 69,25.5C 69.2321,24.2625 69.7321,23.2625 70.5,22.5 Z"/></g>
<g><path style="opacity:1" fill="#51789d" d="M 61.5,21.5 C 61.8333,21.5 62.1667,21.5 62.5,21.5C 65.3854,21.1936 68.0521,21.5269 70.5,22.5C 69.7321,23.2625 69.2321,24.2625 69,25.5C 68.6667,24.5 68.3333,23.5 68,22.5C 67.5045,24.4727 67.3379,26.4727 67.5,28.5C 66.8354,26.6309 66.1687,24.6309 65.5,22.5C 65.1589,24.4898 64.8256,26.4898 64.5,28.5C 61.8301,30.0897 60.1634,29.423 59.5,26.5C 59.0773,24.2188 59.744,22.5521 61.5,21.5 Z"/></g>
<g><path style="opacity:1" fill="#1b4472" d="M 29.5,18.5 C 30.3091,16.7078 30.8091,14.7078 31,12.5C 31.2163,14.3839 31.883,16.0506 33,17.5C 32.8915,16.2312 33.0582,15.2312 33.5,14.5C 34.5,14.5 35.5,14.5 36.5,14.5C 36.2627,13.209 36.596,12.209 37.5,11.5C 36.9898,14.3878 37.6565,16.7211 39.5,18.5C 39.5,18.8333 39.5,19.1667 39.5,19.5C 32.5,17.8333 29.8333,20.5 31.5,27.5C 30.8354,25.6309 30.1687,23.6309 29.5,21.5C 27.1687,26.9471 28.6687,28.9471 34,27.5C 34.1981,25.6183 34.6981,23.9516 35.5,22.5C 35.3433,23.8734 35.51,25.2068 36,26.5C 36.3826,25.944 36.8826,25.6107 37.5,25.5C 37.3505,26.552 37.5172,27.552 38,28.5C 38.0826,26.4936 38.5826,25.4936 39.5,25.5C 39.5,26.8333 39.5,28.1667 39.5,29.5C 35.4338,29.307 31.4338,29.6403 27.5,30.5C 26.5,29.8333 25.5,29.1667 24.5,28.5C 24.5,23.1667 24.5,17.8333 24.5,12.5C 25.7079,11.7659 27.0413,11.4326 28.5,11.5C 28.1984,14.0593 28.5318,16.3926 29.5,18.5 Z"/></g>
<g><path style="opacity:1" fill="#245690" d="M 60.5,18.5 C 61.5,18.5 62.5,18.5 63.5,18.5C 62.7375,19.2679 61.7375,19.7679 60.5,20C 61.056,20.3826 61.3893,20.8826 61.5,21.5C 59.744,22.5521 59.0773,24.2188 59.5,26.5C 58.5084,26.3284 57.8417,26.6618 57.5,27.5C 56.8333,27.8333 56.1667,28.1667 55.5,28.5C 51.4909,28.9274 47.8242,30.2607 44.5,32.5C 44.1667,32.5 43.8333,32.5 43.5,32.5C 44.6252,31.0001 45.9586,29.6668 47.5,28.5C 47.4576,24.9913 48.1242,21.658 49.5,18.5C 50.7079,17.7659 52.0413,17.4326 53.5,17.5C 54.209,18.404 55.209,18.7373 56.5,18.5C 57.4584,18.0472 58.2917,17.3805 59,16.5C 59.2784,17.4158 59.7784,18.0825 60.5,18.5 Z"/></g>
<g><path style="opacity:1" fill="#8c9db0" d="M 55.5,28.5 C 53.2281,27.2033 52.3948,25.2033 53,22.5C 54.6936,26.3955 55.8602,26.0622 56.5,21.5C 56.8333,22 57.1667,22.5 57.5,23C 56.6805,24.8003 56.0138,26.6336 55.5,28.5 Z"/></g>
<g><path style="opacity:1" fill="#205b92" d="M 75.5,11.5 C 76.1667,11.5 76.8333,11.5 77.5,11.5C 77.5,13.8333 77.5,16.1667 77.5,18.5C 80.7973,18.6713 81.1306,18.0046 78.5,16.5C 79.0253,15.8076 79.6919,15.3076 80.5,15C 78.0688,13.9076 78.0688,12.7409 80.5,11.5C 81.5,11.5 82.5,11.5 83.5,11.5C 83.5,13.8333 83.5,16.1667 83.5,18.5C 84.1667,19.5 84.8333,20.5 85.5,21.5C 86.7954,22.0306 87.4621,23.3639 87.5,25.5C 86.7784,25.9175 86.2784,26.5842 86,27.5C 83.9614,26.0217 83.1281,24.0217 83.5,21.5C 82.5,21.5 81.5,21.5 80.5,21.5C 80.3893,20.8826 80.056,20.3826 79.5,20C 76.9644,19.8138 74.631,19.3138 72.5,18.5C 73.4345,17.4324 73.7678,16.099 73.5,14.5C 74.1667,13.5 74.8333,12.5 75.5,11.5 Z"/></g>
<g><path style="opacity:1" fill="#174b82" d="M 39.5,19.5 C 41.0109,20.5025 42.6776,21.1692 44.5,21.5C 44.5,23.1667 44.5,24.8333 44.5,26.5C 44.719,27.675 44.3857,28.675 43.5,29.5C 42.8933,29.3764 42.56,29.0431 42.5,28.5C 43.6225,26.7116 43.7891,24.7116 43,22.5C 42.6667,23.5 42.3333,24.5 42,25.5C 40.9805,24.3128 39.8139,23.3128 38.5,22.5C 37.6143,23.325 37.281,24.325 37.5,25.5C 36.8826,25.6107 36.3826,25.944 36,26.5C 35.51,25.2068 35.3433,23.8734 35.5,22.5C 34.791,21.596 33.791,21.2627 32.5,21.5C 32.7947,23.7354 32.4614,25.7354 31.5,27.5C 29.8333,20.5 32.5,17.8333 39.5,19.5 Z"/></g>
<g><path style="opacity:1" fill="#25598b" d="M 85.5,11.5 C 86.9989,10.506 88.6656,10.506 90.5,11.5C 90.8807,12.9311 91.8807,13.7645 93.5,14C 91.3436,15.6034 90.0102,17.77 89.5,20.5C 88.3112,21.4287 86.9778,21.762 85.5,21.5C 84.8333,20.5 84.1667,19.5 83.5,18.5C 85.1644,17.0512 85.9977,15.0512 86,12.5C 86.3333,14.1667 86.6667,15.8333 87,17.5C 87.7175,18.4506 88.5509,18.6172 89.5,18C 88.3574,15.5746 87.024,13.4079 85.5,11.5 Z"/></g>
<g><path style="opacity:1" fill="#557ba0" d="M 90.5,11.5 C 92.8205,12.6249 95.1538,12.7916 97.5,12C 96.8333,12.3333 96.1667,12.6667 95.5,13C 98.3264,15.5219 97.9931,17.5219 94.5,19C 95.5,19.3333 96.5,19.6667 97.5,20C 98.0718,21.2768 98.0718,22.7768 97.5,24.5C 96.9779,26.2191 95.9779,27.5525 94.5,28.5C 93.0576,19.2879 91.0576,19.2879 88.5,28.5C 87.6143,27.675 87.281,26.675 87.5,25.5C 87.4621,23.3639 86.7954,22.0306 85.5,21.5C 86.9778,21.762 88.3112,21.4287 89.5,20.5C 90.0102,17.77 91.3436,15.6034 93.5,14C 91.8807,13.7645 90.8807,12.9311 90.5,11.5 Z"/></g>
<g><path style="opacity:1" fill="#265682" d="M 90.5,6.5 C 93.5,6.5 96.5,6.5 99.5,6.5C 100.611,11.4158 100.778,16.4158 100,21.5C 99.7645,23.1193 98.9311,24.1193 97.5,24.5C 98.0718,22.7768 98.0718,21.2768 97.5,20C 96.5,19.6667 95.5,19.3333 94.5,19C 97.9931,17.5219 98.3264,15.5219 95.5,13C 96.1667,12.6667 96.8333,12.3333 97.5,12C 95.1538,12.7916 92.8205,12.6249 90.5,11.5C 89.1667,9.83333 89.1667,8.16667 90.5,6.5 Z"/></g>
<g><path style="opacity:1" fill="#a7b1ba" d="M 77.5,11.5 C 78.5,11.5 79.5,11.5 80.5,11.5C 78.0688,12.7409 78.0688,13.9076 80.5,15C 79.6919,15.3076 79.0253,15.8076 78.5,16.5C 81.1306,18.0046 80.7973,18.6713 77.5,18.5C 77.5,16.1667 77.5,13.8333 77.5,11.5 Z"/></g>
<g><path style="opacity:1" fill="#adb3bb" d="M 37.5,11.5 C 38.1667,11.5 38.8333,11.5 39.5,11.5C 40.8333,13.8333 40.8333,16.1667 39.5,18.5C 37.6565,16.7211 36.9898,14.3878 37.5,11.5 Z"/></g>
<g><path style="opacity:1" fill="#a3aeb8" d="M 29.5,11.5 C 31.9726,11.0882 33.3059,12.0882 33.5,14.5C 33.0582,15.2312 32.8915,16.2312 33,17.5C 31.883,16.0506 31.2163,14.3839 31,12.5C 30.8091,14.7078 30.3091,16.7078 29.5,18.5C 29.5,16.1667 29.5,13.8333 29.5,11.5 Z"/></g>
<g><path style="opacity:1" fill="#9cabb6" d="M 66.5,11.5 C 68.0931,12.3479 69.2597,13.6813 70,15.5C 70.9147,14.6721 71.5814,13.6721 72,12.5C 72.3826,13.056 72.8826,13.3893 73.5,13.5C 73.5,13.8333 73.5,14.1667 73.5,14.5C 73.7678,16.099 73.4345,17.4324 72.5,18.5C 72.5,18.1667 72.5,17.8333 72.5,17.5C 72.2252,15.1582 71.3919,15.1582 70,17.5C 68.2213,14.7236 67.2213,15.0569 67,18.5C 66.5034,16.1902 66.3367,13.8568 66.5,11.5 Z"/></g>
<g><path style="opacity:1" fill="#b8bfc6" d="M 53.5,11.5 C 53.8333,11.5 54.1667,11.5 54.5,11.5C 54.3601,13.1238 55.0267,14.2904 56.5,15C 54.0688,16.0924 54.0688,17.2591 56.5,18.5C 55.209,18.7373 54.209,18.404 53.5,17.5C 53.5,15.5 53.5,13.5 53.5,11.5 Z"/></g>
<g><path style="opacity:1" fill="#8e97a5" d="M 48.5,11.5 C 51.1667,13.8333 51.1667,16.1667 48.5,18.5C 46.8333,18.5 45.1667,18.5 43.5,18.5C 43.5,16.1667 43.5,13.8333 43.5,11.5C 45.1667,11.5 46.8333,11.5 48.5,11.5 Z"/></g>
<g><path style="opacity:1" fill="#2b6193" d="M 66.5,11.5 C 66.3367,13.8568 66.5034,16.1902 67,18.5C 67.2213,15.0569 68.2213,14.7236 70,17.5C 71.3919,15.1582 72.2252,15.1582 72.5,17.5C 69.1823,18.9577 65.8489,20.291 62.5,21.5C 62.1667,21.5 61.8333,21.5 61.5,21.5C 61.3893,20.8826 61.056,20.3826 60.5,20C 61.7375,19.7679 62.7375,19.2679 63.5,18.5C 61.0688,17.2591 61.0688,16.0924 63.5,15C 60.8875,13.9288 60.8875,13.0955 63.5,12.5C 64.609,12.4431 65.609,12.1098 66.5,11.5 Z"/></g>
<g><path style="opacity:1" fill="#0e3568" d="M 45.5,12.5 C 48.9563,13.5362 49.2896,15.2029 46.5,17.5C 45.5481,15.9547 45.2148,14.288 45.5,12.5 Z"/></g>
<g><path style="opacity:1" fill="#0d386f" d="M 48.5,11.5 C 46.8333,11.5 45.1667,11.5 43.5,11.5C 43.5,13.8333 43.5,16.1667 43.5,18.5C 45.1667,18.5 46.8333,18.5 48.5,18.5C 48.8333,18.5 49.1667,18.5 49.5,18.5C 48.1242,21.658 47.4576,24.9913 47.5,28.5C 46.5,27.8333 45.5,27.1667 44.5,26.5C 44.5,24.8333 44.5,23.1667 44.5,21.5C 42.6776,21.1692 41.0109,20.5025 39.5,19.5C 39.5,19.1667 39.5,18.8333 39.5,18.5C 40.8333,16.1667 40.8333,13.8333 39.5,11.5C 40.8714,10.2132 42.7047,9.5465 45,9.5C 46.8333,9.66667 48.6667,9.83333 50.5,10C 49.5842,10.2784 48.9175,10.7784 48.5,11.5 Z"/></g>
<g><path style="opacity:1" fill="#92a3b0" d="M 83.5,11.5 C 84.1667,11.5 84.8333,11.5 85.5,11.5C 87.024,13.4079 88.3574,15.5746 89.5,18C 88.5509,18.6172 87.7175,18.4506 87,17.5C 86.6667,15.8333 86.3333,14.1667 86,12.5C 85.9977,15.0512 85.1644,17.0512 83.5,18.5C 83.5,16.1667 83.5,13.8333 83.5,11.5 Z"/></g>
<g><path style="opacity:1" fill="#a7b2bc" d="M 63.5,12.5 C 60.8875,13.0955 60.8875,13.9288 63.5,15C 61.0688,16.0924 61.0688,17.2591 63.5,18.5C 62.5,18.5 61.5,18.5 60.5,18.5C 60.5,16.1667 60.5,13.8333 60.5,11.5C 61.791,11.2627 62.791,11.596 63.5,12.5 Z"/></g>
<g><path style="opacity:1" fill="#2f608d" d="M 73.5,13.5 C 72.8826,13.3893 72.3826,13.056 72,12.5C 71.5814,13.6721 70.9147,14.6721 70,15.5C 69.2597,13.6813 68.0931,12.3479 66.5,11.5C 65.609,12.1098 64.609,12.4431 63.5,12.5C 62.791,11.596 61.791,11.2627 60.5,11.5C 60.5,13.8333 60.5,16.1667 60.5,18.5C 59.7784,18.0825 59.2784,17.4158 59,16.5C 58.2917,17.3805 57.4584,18.0472 56.5,18.5C 54.0688,17.2591 54.0688,16.0924 56.5,15C 55.0267,14.2904 54.3601,13.1238 54.5,11.5C 57.2335,10.279 60.0669,9.27897 63,8.5C 64.1667,8.66667 65.3333,8.83333 66.5,9C 69.1067,10.3522 71.44,11.8522 73.5,13.5 Z"/></g>
<g><path style="opacity:1" fill="#092c60" d="M 90.5,6.5 C 89.1667,8.16667 89.1667,9.83333 90.5,11.5C 88.6656,10.506 86.9989,10.506 85.5,11.5C 84.8333,11.5 84.1667,11.5 83.5,11.5C 82.5,11.5 81.5,11.5 80.5,11.5C 79.5,11.5 78.5,11.5 77.5,11.5C 76.8333,11.5 76.1667,11.5 75.5,11.5C 75.5774,10.2502 76.244,9.41691 77.5,9C 76.8333,8.66667 76.1667,8.33333 75.5,8C 76.7932,7.50999 78.1266,7.34332 79.5,7.5C 83.1185,6.75638 86.7852,6.42305 90.5,6.5 Z"/></g>
<g><path style="opacity:1" fill="#0e3868" d="M 54.5,6.5 C 63.0168,6.17395 71.3501,6.50728 79.5,7.5C 78.1266,7.34332 76.7932,7.50999 75.5,8C 76.1667,8.33333 76.8333,8.66667 77.5,9C 76.244,9.41691 75.5774,10.2502 75.5,11.5C 74.8333,12.5 74.1667,13.5 73.5,14.5C 73.5,14.1667 73.5,13.8333 73.5,13.5C 71.44,11.8522 69.1067,10.3522 66.5,9C 65.3333,8.83333 64.1667,8.66667 63,8.5C 60.0669,9.27897 57.2335,10.279 54.5,11.5C 54.1667,11.5 53.8333,11.5 53.5,11.5C 54.3007,9.95819 54.634,8.29152 54.5,6.5 Z"/></g>
<g><path style="opacity:1" fill="#0a3264" d="M 54.5,6.5 C 54.634,8.29152 54.3007,9.95819 53.5,11.5C 53.5,13.5 53.5,15.5 53.5,17.5C 52.0413,17.4326 50.7079,17.7659 49.5,18.5C 49.1667,18.5 48.8333,18.5 48.5,18.5C 51.1667,16.1667 51.1667,13.8333 48.5,11.5C 48.9175,10.7784 49.5842,10.2784 50.5,10C 48.6667,9.83333 46.8333,9.66667 45,9.5C 42.7047,9.5465 40.8714,10.2132 39.5,11.5C 38.8333,11.5 38.1667,11.5 37.5,11.5C 36.596,12.209 36.2627,13.209 36.5,14.5C 35.5,14.5 34.5,14.5 33.5,14.5C 33.3059,12.0882 31.9726,11.0882 29.5,11.5C 31.69,10.6255 32.69,8.95888 32.5,6.5C 39.8333,6.5 47.1667,6.5 54.5,6.5 Z"/></g>
<g><path style="opacity:1" fill="#3a5371" d="M 24.5,5.5 C 50.1667,5.5 75.8333,5.5 101.5,5.5C 101.158,6.33825 100.492,6.67158 99.5,6.5C 96.5,6.5 93.5,6.5 90.5,6.5C 86.7852,6.42305 83.1185,6.75638 79.5,7.5C 71.3501,6.50728 63.0168,6.17395 54.5,6.5C 47.1667,6.5 39.8333,6.5 32.5,6.5C 32.69,8.95888 31.69,10.6255 29.5,11.5C 29.5,13.8333 29.5,16.1667 29.5,18.5C 28.5318,16.3926 28.1984,14.0593 28.5,11.5C 27.0413,11.4326 25.7079,11.7659 24.5,12.5C 24.5,10.1667 24.5,7.83333 24.5,5.5 Z"/></g>
<g><path style="opacity:1" fill="#1b5c9e" d="M 74.5,28.5 C 76.556,29.1993 78.556,30.1993 80.5,31.5C 81.0365,34.9645 81.0365,38.2978 80.5,41.5C 79.8333,41.5 79.5,41.8333 79.5,42.5C 79.5,42.8333 79.5,43.1667 79.5,43.5C 78.8333,43.5 78.1667,43.5 77.5,43.5C 77.7947,41.2646 77.4614,39.2646 76.5,37.5C 74.9519,37.8212 74.2852,38.8212 74.5,40.5C 72.7085,40.634 71.0418,40.3007 69.5,39.5C 67.5853,39.7845 65.9187,39.4511 64.5,38.5C 64.5,38.1667 64.5,37.8333 64.5,37.5C 64.5,37.1667 64.5,36.8333 64.5,36.5C 65.391,35.8902 66.391,35.5569 67.5,35.5C 67.8212,37.0481 68.8212,37.7148 70.5,37.5C 71.3577,34.6013 72.691,31.6013 74.5,28.5 Z"/></g>
<g><path style="opacity:1" fill="#033871" d="M 24.5,28.5 C 25.5,29.1667 26.5,29.8333 27.5,30.5C 28.1667,31.8333 28.8333,33.1667 29.5,34.5C 28.1264,39.3458 27.1264,44.0125 26.5,48.5C 25.8333,48.1667 25.1667,47.8333 24.5,47.5C 24.5,41.1667 24.5,34.8333 24.5,28.5 Z"/></g>
<g><path style="opacity:1" fill="#a79b66" d="M 70.5,37.5 C 68.8212,37.7148 67.8212,37.0481 67.5,35.5C 68.209,34.596 69.209,34.2627 70.5,34.5C 70.5,35.5 70.5,36.5 70.5,37.5 Z"/></g>
<g><path style="opacity:1" fill="#04417f" d="M 29.5,34.5 C 30.9089,36.9717 32.5756,39.305 34.5,41.5C 32.5772,45.0293 31.9106,49.0293 32.5,53.5C 31.1283,52.4884 29.795,51.4884 28.5,50.5C 27.8333,49.8333 27.1667,49.1667 26.5,48.5C 27.1264,44.0125 28.1264,39.3458 29.5,34.5 Z"/></g>
<g><path style="opacity:1" fill="#2f6da5" d="M 43.5,32.5 C 43.8333,32.5 44.1667,32.5 44.5,32.5C 45.5,32.5 46.5,32.5 47.5,32.5C 47.6287,34.2161 47.962,35.8828 48.5,37.5C 49.5,38.1667 50.5,38.8333 51.5,39.5C 50.325,39.281 49.325,39.6143 48.5,40.5C 48.9569,41.2975 49.6236,41.6309 50.5,41.5C 50.1667,42.1667 49.8333,42.8333 49.5,43.5C 48.0632,46.0356 46.3965,48.369 44.5,50.5C 43.0527,49.1148 42.0527,49.4482 41.5,51.5C 40.5489,50.0813 40.2155,48.4147 40.5,46.5C 44.2965,45.0886 44.2965,44.0886 40.5,43.5C 40.5,41.5 40.5,39.5 40.5,37.5C 42.288,37.7852 43.9547,37.4519 45.5,36.5C 45.1373,35.8165 44.8039,35.1499 44.5,34.5C 44.1667,33.8333 43.8333,33.1667 43.5,32.5 Z"/></g>
<g><path style="opacity:1" fill="#9f9a73" d="M 64.5,36.5 C 64.5,36.8333 64.5,37.1667 64.5,37.5C 63.5,37.5 62.5,37.5 61.5,37.5C 61.5,36.5 61.5,35.5 61.5,34.5C 63.1788,34.2852 64.1788,34.9519 64.5,36.5 Z"/></g>
<g><path style="opacity:1" fill="#2a689c" d="M 98.5,37.5 C 98.1667,38.5 97.5,39.1667 96.5,39.5C 94.8684,39.1753 93.8684,38.1753 93.5,36.5C 94.0747,34.1041 94.408,31.7708 94.5,29.5C 95.5,29.5 96.5,29.5 97.5,29.5C 97.3505,28.448 97.5172,27.448 98,26.5C 99.7873,29.81 99.6206,33.1434 97.5,36.5C 97.6236,37.1067 97.9569,37.44 98.5,37.5 Z"/></g>
<g><path style="opacity:1" fill="#8e8a72" d="M 57.5,38.5 C 56.8333,38.5 56.1667,38.5 55.5,38.5C 54.6618,38.1583 54.3284,37.4916 54.5,36.5C 55.209,35.596 56.209,35.2627 57.5,35.5C 57.5,36.5 57.5,37.5 57.5,38.5 Z"/></g>
<g><path style="opacity:1" fill="#b6a358" d="M 76.5,37.5 C 76.7148,39.1788 76.0481,40.1788 74.5,40.5C 74.2852,38.8212 74.9519,37.8212 76.5,37.5 Z"/></g>
<g><path style="opacity:1" fill="#1b5b90" d="M 101.5,51.5 C 100.391,51.5569 99.391,51.8902 98.5,52.5C 97.7833,48.8507 97.1167,44.8507 96.5,40.5C 96.5,40.1667 96.5,39.8333 96.5,39.5C 97.5,39.1667 98.1667,38.5 98.5,37.5C 99.1217,36.3734 99.955,35.3734 101,34.5C 101.499,40.1569 101.666,45.8236 101.5,51.5 Z"/></g>
<g><path style="opacity:1" fill="#b3a25f" d="M 51.5,39.5 C 51.6716,40.4916 51.3382,41.1583 50.5,41.5C 49.6236,41.6309 48.9569,41.2975 48.5,40.5C 49.325,39.6143 50.325,39.281 51.5,39.5 Z"/></g>
<g><path style="opacity:1" fill="#3272ad" d="M 79.5,42.5 C 79.5,41.8333 79.8333,41.5 80.5,41.5C 81.8333,41.5 83.1667,41.5 84.5,41.5C 85.5114,43.3716 86.3448,45.3716 87,47.5C 87.6708,48.2524 88.5041,48.5858 89.5,48.5C 88.4408,51.8695 86.1075,53.5361 82.5,53.5C 78.2968,51.5849 76.6302,48.2516 77.5,43.5C 78.1667,43.5 78.8333,43.5 79.5,43.5C 80.0768,44.7733 80.7435,44.7733 81.5,43.5C 81.0431,42.7025 80.3764,42.3691 79.5,42.5 Z"/></g>
<g><path style="opacity:1" fill="#2c71b0" d="M 64.5,38.5 C 65.9187,39.4511 67.5853,39.7845 69.5,39.5C 70.3597,43.4338 70.693,47.4338 70.5,51.5C 68.9731,51.427 67.9731,52.0937 67.5,53.5C 67.1667,53.5 66.8333,53.5 66.5,53.5C 66.6882,51.8967 66.1882,50.5634 65,49.5C 63.9609,50.7101 62.7942,51.7101 61.5,52.5C 61.2322,50.901 61.5655,49.5676 62.5,48.5C 64.5273,48.6621 66.5273,48.4955 68.5,48C 69.3366,46.9887 69.67,45.8221 69.5,44.5C 65.8422,45.3203 63.5088,43.9869 62.5,40.5C 60.2715,44.0413 58.9382,43.3746 58.5,38.5C 58.3505,37.448 58.5172,36.448 59,35.5C 60.1861,37.6766 62.0194,38.6766 64.5,38.5 Z"/></g>
<g><path style="opacity:1" fill="#1d66ac" d="M 76.5,37.5 C 77.4614,39.2646 77.7947,41.2646 77.5,43.5C 76.6302,48.2516 78.2968,51.5849 82.5,53.5C 81.8501,53.8039 81.1835,54.1373 80.5,54.5C 79.1667,53.5 77.8333,52.5 76.5,51.5C 74.677,52.7472 72.677,53.4139 70.5,53.5C 70.5,52.8333 70.5,52.1667 70.5,51.5C 70.693,47.4338 70.3597,43.4338 69.5,39.5C 71.0418,40.3007 72.7085,40.634 74.5,40.5C 76.0481,40.1788 76.7148,39.1788 76.5,37.5 Z"/></g>
<g><path style="opacity:1" fill="#c6a84f" d="M 79.5,42.5 C 80.3764,42.3691 81.0431,42.7025 81.5,43.5C 80.7435,44.7733 80.0768,44.7733 79.5,43.5C 79.5,43.1667 79.5,42.8333 79.5,42.5 Z"/></g>
<g><path style="opacity:1" fill="#1b609d" d="M 96.5,40.5 C 97.1167,44.8507 97.7833,48.8507 98.5,52.5C 97.4206,54.543 95.754,55.8763 93.5,56.5C 92.8501,56.8039 92.1835,57.1373 91.5,57.5C 90.561,55.9466 89.3943,54.6133 88,53.5C 86.3164,53.6834 86.1498,54.3501 87.5,55.5C 86.5,55.5 85.5,55.5 84.5,55.5C 83.5,55.1667 82.8333,54.5 82.5,53.5C 86.1075,53.5361 88.4408,51.8695 89.5,48.5C 91.8333,45.8333 94.1667,43.1667 96.5,40.5 Z"/></g>
<g><path style="opacity:1" fill="#125497" d="M 44.5,34.5 C 44.8039,35.1499 45.1373,35.8165 45.5,36.5C 43.9547,37.4519 42.288,37.7852 40.5,37.5C 40.5,39.5 40.5,41.5 40.5,43.5C 44.2965,44.0886 44.2965,45.0886 40.5,46.5C 40.1667,46.5 39.8333,46.5 39.5,46.5C 37.7376,45.7377 36.7376,44.4044 36.5,42.5C 37.4614,40.7354 37.7947,38.7354 37.5,36.5C 39.7373,35.551 42.0706,34.8844 44.5,34.5 Z"/></g>
<g><path style="opacity:1" fill="#0e519b" d="M 48.5,37.5 C 50.8211,37.2289 52.8211,37.8955 54.5,39.5C 55.1067,39.3764 55.44,39.0431 55.5,38.5C 56.1667,38.5 56.8333,38.5 57.5,38.5C 57.8333,38.5 58.1667,38.5 58.5,38.5C 58.9382,43.3746 60.2715,44.0413 62.5,40.5C 63.5088,43.9869 65.8422,45.3203 69.5,44.5C 69.67,45.8221 69.3366,46.9887 68.5,48C 66.5273,48.4955 64.5273,48.6621 62.5,48.5C 62.2648,47.9033 61.7648,47.5699 61,47.5C 60,48.1667 59,48.8333 58,49.5C 56.4329,48.1439 54.5996,47.4772 52.5,47.5C 52.5,46.1667 52.5,44.8333 52.5,43.5C 51.5,43.5 50.5,43.5 49.5,43.5C 49.8333,42.8333 50.1667,42.1667 50.5,41.5C 51.3382,41.1583 51.6716,40.4916 51.5,39.5C 50.5,38.8333 49.5,38.1667 48.5,37.5 Z"/></g>
<g><path style="opacity:1" fill="#03468e" d="M 34.5,41.5 C 34.8417,42.3382 35.5084,42.6716 36.5,42.5C 36.7376,44.4044 37.7376,45.7377 39.5,46.5C 39.4279,49.5525 38.4279,52.2192 36.5,54.5C 35.5,55.8333 34.5,55.8333 33.5,54.5C 33.5,53.8333 33.1667,53.5 32.5,53.5C 31.9106,49.0293 32.5772,45.0293 34.5,41.5 Z"/></g>
<g><path style="opacity:1" fill="#bba559" d="M 44.5,44.5 C 46.337,44.6395 46.6704,45.3061 45.5,46.5C 44.7025,46.0431 44.3691,45.3764 44.5,44.5 Z"/></g>
<g><path style="opacity:1" fill="#2373b6" d="M 49.5,43.5 C 50.5,43.5 51.5,43.5 52.5,43.5C 52.5,44.8333 52.5,46.1667 52.5,47.5C 52.4082,50.3586 52.0749,52.8586 51.5,55C 53.2297,56.8524 54.3964,56.6857 55,54.5C 55.2784,55.4158 55.7784,56.0825 56.5,56.5C 56.1201,58.698 56.7868,60.3646 58.5,61.5C 58.5,61.8333 58.5,62.1667 58.5,62.5C 55.8333,62.1667 53.1667,61.8333 50.5,61.5C 48.8036,59.4752 47.137,57.4752 45.5,55.5C 44.8333,54.5 44.1667,53.5 43.5,52.5C 44.3382,52.1583 44.6716,51.4916 44.5,50.5C 46.3965,48.369 48.0632,46.0356 49.5,43.5 Z"/></g>
<g><path style="opacity:1" fill="#1d6cb4" d="M 52.5,47.5 C 54.5996,47.4772 56.4329,48.1439 58,49.5C 59,48.8333 60,48.1667 61,47.5C 61.7648,47.5699 62.2648,47.9033 62.5,48.5C 61.5655,49.5676 61.2322,50.901 61.5,52.5C 61.5,52.8333 61.5,53.1667 61.5,53.5C 58.7287,52.2266 57.062,53.2266 56.5,56.5C 55.7784,56.0825 55.2784,55.4158 55,54.5C 54.3964,56.6857 53.2297,56.8524 51.5,55C 52.0749,52.8586 52.4082,50.3586 52.5,47.5 Z"/></g>
<g><path style="opacity:1" fill="#9f9b79" d="M 83.5,48.5 C 85.0481,48.8212 85.7148,49.8212 85.5,51.5C 82.7524,51.5983 82.0857,50.5983 83.5,48.5 Z"/></g>
<g><path style="opacity:1" fill="#909076" d="M 44.5,50.5 C 44.6716,51.4916 44.3382,52.1583 43.5,52.5C 42.5084,52.6716 41.8417,52.3382 41.5,51.5C 42.0527,49.4482 43.0527,49.1148 44.5,50.5 Z"/></g>
<g><path style="opacity:1" fill="#edd924" d="M 66.5,53.5 C 63.7299,55.3658 62.2299,58.0324 62,61.5C 61.2828,60.9558 60.7828,60.2891 60.5,59.5C 60.3253,57.3792 60.6586,55.3792 61.5,53.5C 61.5,53.1667 61.5,52.8333 61.5,52.5C 62.7942,51.7101 63.9609,50.7101 65,49.5C 66.1882,50.5634 66.6882,51.8967 66.5,53.5 Z"/></g>
<g><path style="opacity:1" fill="#2c73b4" d="M 82.5,53.5 C 82.8333,54.5 83.5,55.1667 84.5,55.5C 84.5,56.1667 84.5,56.8333 84.5,57.5C 83.8333,57.5 83.5,57.8333 83.5,58.5C 81.4156,60.7442 78.9156,62.4108 76,63.5C 74.5232,62.556 73.5232,61.2226 73,59.5C 72.6174,60.056 72.1174,60.3893 71.5,60.5C 71.5,60.1667 71.5,59.8333 71.5,59.5C 72.355,58.4693 73.0217,57.3026 73.5,56C 72.2795,55.7537 71.2795,54.9204 70.5,53.5C 72.677,53.4139 74.677,52.7472 76.5,51.5C 77.8333,52.5 79.1667,53.5 80.5,54.5C 81.1835,54.1373 81.8501,53.8039 82.5,53.5 Z"/></g>
<g><path style="opacity:1" fill="#e7e434" d="M 70.5,51.5 C 70.5,52.1667 70.5,52.8333 70.5,53.5C 71.2795,54.9204 72.2795,55.7537 73.5,56C 73.0217,57.3026 72.355,58.4693 71.5,59.5C 70.1667,59.5 68.8333,59.5 67.5,59.5C 67.9528,58.5416 68.6195,57.7083 69.5,57C 67.6133,56.8374 66.1133,57.6707 65,59.5C 64.8333,59 64.6667,58.5 64.5,58C 65.3146,56.3566 66.3146,54.8566 67.5,53.5C 67.9731,52.0937 68.9731,51.427 70.5,51.5 Z"/></g>
<g><path style="opacity:1" fill="#6389ac" d="M 24.5,5.5 C 24.5,7.83333 24.5,10.1667 24.5,12.5C 24.5,17.8333 24.5,23.1667 24.5,28.5C 24.5,34.8333 24.5,41.1667 24.5,47.5C 24.5,52.8333 24.5,58.1667 24.5,63.5C 24.2201,72.8864 24.5534,82.2197 25.5,91.5C 24.1667,91.5 23.5,90.8333 23.5,89.5C 23.1687,61.3284 23.502,33.3284 24.5,5.5 Z"/></g>
<g><path style="opacity:1" fill="#b9a355" d="M 84.5,55.5 C 85.5,55.5 86.5,55.5 87.5,55.5C 87.1788,57.0481 86.1788,57.7148 84.5,57.5C 84.5,56.8333 84.5,56.1667 84.5,55.5 Z"/></g>
<g><path style="opacity:1" fill="#114e87" d="M 28.5,50.5 C 29.795,51.4884 31.1283,52.4884 32.5,53.5C 33.1667,53.5 33.5,53.8333 33.5,54.5C 32.7752,58.3953 32.1086,62.3953 31.5,66.5C 31.1667,66.5 30.8333,66.5 30.5,66.5C 29.7095,65.5987 28.7095,64.9321 27.5,64.5C 26.2742,62.8127 26.6076,61.3127 28.5,60C 28.0245,58.2367 27.3578,56.57 26.5,55C 27.0989,53.3775 27.7656,51.8775 28.5,50.5 Z"/></g>
<g><path style="opacity:1" fill="#9e9b74" d="M 43.5,57.5 C 43.5,57.8333 43.5,58.1667 43.5,58.5C 42.5,58.5 41.5,58.5 40.5,58.5C 40.5,57.5 40.5,56.5 40.5,55.5C 42.1788,55.2852 43.1788,55.9519 43.5,57.5 Z"/></g>
<g><path style="opacity:1" fill="#1365b2" d="M 45.5,55.5 C 47.137,57.4752 48.8036,59.4752 50.5,61.5C 50.8333,62.1667 51.1667,62.8333 51.5,63.5C 50.2387,66.8204 48.572,67.1537 46.5,64.5C 45.044,62.7155 44.044,60.7155 43.5,58.5C 43.5,58.1667 43.5,57.8333 43.5,57.5C 44.1667,56.8333 44.8333,56.1667 45.5,55.5 Z"/></g>
<g><path style="opacity:1" fill="#28689e" d="M 101.5,51.5 C 101.5,53.8333 101.5,56.1667 101.5,58.5C 98.271,60.5662 96.6043,63.5662 96.5,67.5C 96.1667,67.5 95.8333,67.5 95.5,67.5C 94.0807,63.9852 93.414,60.3186 93.5,56.5C 95.754,55.8763 97.4206,54.543 98.5,52.5C 99.391,51.8902 100.391,51.5569 101.5,51.5 Z"/></g>
<g><path style="opacity:1" fill="#e9a72c" d="M 67.5,59.5 C 68.8333,59.5 70.1667,59.5 71.5,59.5C 71.5,59.8333 71.5,60.1667 71.5,60.5C 70.1667,61.1667 68.8333,61.8333 67.5,62.5C 66.8333,62.5 66.1667,62.5 65.5,62.5C 65.427,60.9731 66.0937,59.9731 67.5,59.5 Z"/></g>
<g><path style="opacity:1" fill="#1e5596" d="M 93.5,56.5 C 93.414,60.3186 94.0807,63.9852 95.5,67.5C 89.4163,69.41 83.7496,72.0767 78.5,75.5C 78.5,75.8333 78.5,76.1667 78.5,76.5C 78.0954,77.5498 77.4288,77.5498 76.5,76.5C 75.6143,75.675 75.281,74.675 75.5,73.5C 75.5,72.8333 75.8333,72.5 76.5,72.5C 77.8333,71.1667 79.1667,69.8333 80.5,68.5C 80.7215,66.3364 81.7215,64.6697 83.5,63.5C 83.8212,65.0481 84.8212,65.7148 86.5,65.5C 86.5,64.5 86.5,63.5 86.5,62.5C 85.5,62.5 84.5,62.5 83.5,62.5C 84.8333,61.1667 84.8333,59.8333 83.5,58.5C 83.5,57.8333 83.8333,57.5 84.5,57.5C 86.1788,57.7148 87.1788,57.0481 87.5,55.5C 86.1498,54.3501 86.3164,53.6834 88,53.5C 89.3943,54.6133 90.561,55.9466 91.5,57.5C 92.1835,57.1373 92.8501,56.8039 93.5,56.5 Z"/></g>
<g><path style="opacity:1" fill="#124881" d="M 24.5,47.5 C 25.1667,47.8333 25.8333,48.1667 26.5,48.5C 27.1667,49.1667 27.8333,49.8333 28.5,50.5C 27.7656,51.8775 27.0989,53.3775 26.5,55C 27.3578,56.57 28.0245,58.2367 28.5,60C 26.6076,61.3127 26.2742,62.8127 27.5,64.5C 26.391,64.4431 25.391,64.1098 24.5,63.5C 24.5,58.1667 24.5,52.8333 24.5,47.5 Z"/></g>
<g><path style="opacity:1" fill="#125498" d="M 33.5,54.5 C 34.5,55.8333 35.5,55.8333 36.5,54.5C 39.1864,55.9881 38.8531,56.6547 35.5,56.5C 35.1901,60.6995 35.8568,64.6995 37.5,68.5C 35.2972,68.3964 33.2972,67.7298 31.5,66.5C 32.1086,62.3953 32.7752,58.3953 33.5,54.5 Z"/></g>
<g><path style="opacity:1" fill="#c8bc49" d="M 61.5,53.5 C 60.6586,55.3792 60.3253,57.3792 60.5,59.5C 59.8333,60.1667 59.1667,60.8333 58.5,61.5C 56.7868,60.3646 56.1201,58.698 56.5,56.5C 57.062,53.2266 58.7287,52.2266 61.5,53.5 Z"/></g>
<g><path style="opacity:1" fill="#acac6d" d="M 66.5,53.5 C 66.8333,53.5 67.1667,53.5 67.5,53.5C 66.3146,54.8566 65.3146,56.3566 64.5,58C 64.6667,58.5 64.8333,59 65,59.5C 66.1133,57.6707 67.6133,56.8374 69.5,57C 68.6195,57.7083 67.9528,58.5416 67.5,59.5C 66.0937,59.9731 65.427,60.9731 65.5,62.5C 63.8333,62.5 62.1667,62.5 60.5,62.5C 59.8333,62.5 59.1667,62.5 58.5,62.5C 58.5,62.1667 58.5,61.8333 58.5,61.5C 59.1667,60.8333 59.8333,60.1667 60.5,59.5C 60.7828,60.2891 61.2828,60.9558 62,61.5C 62.2299,58.0324 63.7299,55.3658 66.5,53.5 Z"/></g>
<g><path style="opacity:1" fill="#296dac" d="M 39.5,46.5 C 39.8333,46.5 40.1667,46.5 40.5,46.5C 40.2155,48.4147 40.5489,50.0813 41.5,51.5C 41.8417,52.3382 42.5084,52.6716 43.5,52.5C 44.1667,53.5 44.8333,54.5 45.5,55.5C 44.8333,56.1667 44.1667,56.8333 43.5,57.5C 43.1788,55.9519 42.1788,55.2852 40.5,55.5C 40.5,56.5 40.5,57.5 40.5,58.5C 41.5,58.5 42.5,58.5 43.5,58.5C 44.044,60.7155 45.044,62.7155 46.5,64.5C 46.4326,65.9587 46.7659,67.2921 47.5,68.5C 47.5,68.8333 47.5,69.1667 47.5,69.5C 44.8333,68.1667 44.1667,68.8333 45.5,71.5C 43.1055,70.9853 40.7722,70.3186 38.5,69.5C 38.5,68.8333 38.1667,68.5 37.5,68.5C 35.8568,64.6995 35.1901,60.6995 35.5,56.5C 38.8531,56.6547 39.1864,55.9881 36.5,54.5C 38.4279,52.2192 39.4279,49.5525 39.5,46.5 Z"/></g>
<g><path style="opacity:1" fill="#c7aa4a" d="M 41.5,62.5 C 43.337,62.6395 43.6704,63.3061 42.5,64.5C 41.7025,64.0431 41.3691,63.3764 41.5,62.5 Z"/></g>
<g><path style="opacity:1" fill="#1e6fb9" d="M 50.5,61.5 C 53.1667,61.8333 55.8333,62.1667 58.5,62.5C 59.1667,62.5 59.8333,62.5 60.5,62.5C 62.8971,66.8151 63.8971,71.4818 63.5,76.5C 62.5,75.8333 61.5,75.1667 60.5,74.5C 57.8482,70.5181 54.8482,66.8514 51.5,63.5C 51.1667,62.8333 50.8333,62.1667 50.5,61.5 Z"/></g>
<g><path style="opacity:1" fill="#9c9879" d="M 83.5,62.5 C 84.5,62.5 85.5,62.5 86.5,62.5C 86.5,63.5 86.5,64.5 86.5,65.5C 84.8212,65.7148 83.8212,65.0481 83.5,63.5C 83.5,63.1667 83.5,62.8333 83.5,62.5 Z"/></g>
<g><path style="opacity:1" fill="#1468b4" d="M 51.5,63.5 C 54.8482,66.8514 57.8482,70.5181 60.5,74.5C 56.8064,72.455 53.1397,70.455 49.5,68.5C 48.8333,68.5 48.1667,68.5 47.5,68.5C 46.7659,67.2921 46.4326,65.9587 46.5,64.5C 48.572,67.1537 50.2387,66.8204 51.5,63.5 Z"/></g>
<g><path style="opacity:1" fill="#10549e" d="M 83.5,58.5 C 84.8333,59.8333 84.8333,61.1667 83.5,62.5C 83.5,62.8333 83.5,63.1667 83.5,63.5C 81.7215,64.6697 80.7215,66.3364 80.5,68.5C 79.1667,69.8333 77.8333,71.1667 76.5,72.5C 77.1616,70.5295 77.8283,68.5295 78.5,66.5C 74.6845,66.0698 72.3512,64.0698 71.5,60.5C 72.1174,60.3893 72.6174,60.056 73,59.5C 73.5232,61.2226 74.5232,62.556 76,63.5C 78.9156,62.4108 81.4156,60.7442 83.5,58.5 Z"/></g>
<g><path style="opacity:1" fill="#03458b" d="M 30.5,66.5 C 30.8333,66.5 31.1667,66.5 31.5,66.5C 33.2972,67.7298 35.2972,68.3964 37.5,68.5C 38.1667,68.5 38.5,68.8333 38.5,69.5C 36.2119,70.7147 35.5452,72.3813 36.5,74.5C 35.8333,74.5 35.1667,74.5 34.5,74.5C 32.8333,74.5 31.1667,74.5 29.5,74.5C 29.0183,73.5837 28.685,72.5837 28.5,71.5C 29.1869,69.8228 29.8535,68.1561 30.5,66.5 Z"/></g>
<g><path style="opacity:1" fill="#acc5d5" d="M 60.5,62.5 C 62.1667,62.5 63.8333,62.5 65.5,62.5C 66.1667,62.5 66.8333,62.5 67.5,62.5C 67.5,63.8333 67.5,65.1667 67.5,66.5C 66.6911,70.463 65.3578,74.1297 63.5,77.5C 63.5,77.1667 63.5,76.8333 63.5,76.5C 63.8971,71.4818 62.8971,66.8151 60.5,62.5 Z"/></g>
<g><path style="opacity:1" fill="#b5a564" d="M 47.5,69.5 C 47.1667,70.5 46.5,71.1667 45.5,71.5C 44.1667,68.8333 44.8333,68.1667 47.5,69.5 Z"/></g>
<g><path style="opacity:1" fill="#9a9677" d="M 80.5,68.5 C 81.5,68.5 82.5,68.5 83.5,68.5C 83.5,69.5 83.5,70.5 83.5,71.5C 82.5,71.5 81.5,71.5 80.5,71.5C 80.5,70.5 80.5,69.5 80.5,68.5 Z"/></g>
<g><path style="opacity:1" fill="#054890" d="M 95.5,67.5 C 95.8333,67.5 96.1667,67.5 96.5,67.5C 96.0074,69.8056 95.6741,72.139 95.5,74.5C 93.9582,75.3007 92.2915,75.634 90.5,75.5C 86.6506,75.632 83.1506,76.632 80,78.5C 79.7216,77.5842 79.2216,76.9175 78.5,76.5C 78.5,76.1667 78.5,75.8333 78.5,75.5C 83.7496,72.0767 89.4163,69.41 95.5,67.5 Z"/></g>
<g><path style="opacity:1" fill="#0d427c" d="M 101.5,58.5 C 101.5,68.5 101.5,78.5 101.5,88.5C 99.9826,88.4894 98.8159,87.8228 98,86.5C 94.6189,90.7593 91.1189,94.9259 87.5,99C 91.3673,100.987 91.3673,101.487 87.5,100.5C 86.7025,100.957 86.3691,101.624 86.5,102.5C 86.5,103.167 86.1667,103.5 85.5,103.5C 83.4899,102.651 81.8233,103.318 80.5,105.5C 79.1417,106.626 77.8084,106.626 76.5,105.5C 77.6085,103.786 76.9418,103.119 74.5,103.5C 73.8902,102.609 73.5569,101.609 73.5,100.5C 76.8333,100.5 80.1667,100.5 83.5,100.5C 83.1156,98.0706 82.449,95.7373 81.5,93.5C 83.9946,93.9688 86.6613,93.9688 89.5,93.5C 89.5271,91.8007 90.1938,90.4674 91.5,89.5C 92.2751,87.3881 92.2751,85.3881 91.5,83.5C 93.0603,83.4809 94.5603,83.1476 96,82.5C 97.0567,83.6274 98.2234,84.1274 99.5,84C 100.566,81.0768 100.566,77.9101 99.5,74.5C 98.1667,74.5 96.8333,74.5 95.5,74.5C 95.6741,72.139 96.0074,69.8056 96.5,67.5C 96.6043,63.5662 98.271,60.5662 101.5,58.5 Z"/></g>
<g><path style="opacity:1" fill="#1c6bb4" d="M 71.5,60.5 C 72.3512,64.0698 74.6845,66.0698 78.5,66.5C 77.8283,68.5295 77.1616,70.5295 76.5,72.5C 75.8333,72.5 75.5,72.8333 75.5,73.5C 74.2223,73.7822 73.2223,74.4489 72.5,75.5C 71.6868,74.3473 70.6868,74.3473 69.5,75.5C 68.103,72.1194 68.4363,68.9528 70.5,66C 70.1667,65.5 69.8333,65 69.5,64.5C 68.8182,65.2427 68.1515,65.9094 67.5,66.5C 67.5,65.1667 67.5,63.8333 67.5,62.5C 68.8333,61.8333 70.1667,61.1667 71.5,60.5 Z"/></g>
<g><path style="opacity:1" fill="#064b97" d="M 38.5,69.5 C 40.7722,70.3186 43.1055,70.9853 45.5,71.5C 46.968,72.7791 47.6347,74.4458 47.5,76.5C 43.5752,76.5701 39.9085,75.9034 36.5,74.5C 35.5452,72.3813 36.2119,70.7147 38.5,69.5 Z"/></g>
<g><path style="opacity:1" fill="#0e4179" d="M 24.5,63.5 C 25.391,64.1098 26.391,64.4431 27.5,64.5C 28.7095,64.9321 29.7095,65.5987 30.5,66.5C 29.8535,68.1561 29.1869,69.8228 28.5,71.5C 28.685,72.5837 29.0183,73.5837 29.5,74.5C 28.5028,74.4701 27.8361,74.9701 27.5,76C 29.1775,78.5466 29.8441,81.3799 29.5,84.5C 30.5,84.5 31.5,84.5 32.5,84.5C 30.7354,85.4614 28.7354,85.7947 26.5,85.5C 26.4125,88.5983 26.9125,88.9316 28,86.5C 29.6225,87.0989 31.1225,87.7656 32.5,88.5C 30.8762,88.3601 29.7096,89.0267 29,90.5C 28.6667,90.1667 28.3333,89.8333 28,89.5C 27.4926,90.9961 27.9926,92.1627 29.5,93C 28.9056,93.4643 28.2389,93.631 27.5,93.5C 26.8333,92.8333 26.1667,92.1667 25.5,91.5C 24.5534,82.2197 24.2201,72.8864 24.5,63.5 Z"/></g>
<g><path style="opacity:1" fill="#c3aa4f" d="M 78.5,75.5 C 76.663,75.3605 76.3296,74.6939 77.5,73.5C 78.2975,73.9569 78.6309,74.6236 78.5,75.5 Z"/></g>
<g><path style="opacity:1" fill="#12508c" d="M 29.5,74.5 C 31.1667,74.5 32.8333,74.5 34.5,74.5C 35.1667,77.8333 35.8333,81.1667 36.5,84.5C 35.1667,84.5 33.8333,84.5 32.5,84.5C 31.5,84.5 30.5,84.5 29.5,84.5C 29.8441,81.3799 29.1775,78.5466 27.5,76C 27.8361,74.9701 28.5028,74.4701 29.5,74.5 Z"/></g>
<g><path style="opacity:1" fill="#1867b0" d="M 72.5,75.5 C 71.612,78.0545 71.2786,80.7212 71.5,83.5C 71.1667,83.5 70.8333,83.5 70.5,83.5C 67.1667,83.5 63.8333,83.5 60.5,83.5C 60.6535,81.0301 61.6535,79.0301 63.5,77.5C 65.3578,74.1297 66.6911,70.463 67.5,66.5C 68.1515,65.9094 68.8182,65.2427 69.5,64.5C 69.8333,65 70.1667,65.5 70.5,66C 68.4363,68.9528 68.103,72.1194 69.5,75.5C 70.6868,74.3473 71.6868,74.3473 72.5,75.5 Z"/></g>
<g><path style="opacity:1" fill="#134d8a" d="M 95.5,74.5 C 96.8333,74.5 98.1667,74.5 99.5,74.5C 100.566,77.9101 100.566,81.0768 99.5,84C 98.2234,84.1274 97.0567,83.6274 96,82.5C 94.5603,83.1476 93.0603,83.4809 91.5,83.5C 91.1667,83.5 90.8333,83.5 90.5,83.5C 90.2077,80.6239 90.2077,77.9572 90.5,75.5C 92.2915,75.634 93.9582,75.3007 95.5,74.5 Z"/></g>
<g><path style="opacity:1" fill="#1869b2" d="M 49.5,68.5 C 53.1397,70.455 56.8064,72.455 60.5,74.5C 61.5,75.1667 62.5,75.8333 63.5,76.5C 63.5,76.8333 63.5,77.1667 63.5,77.5C 61.6535,79.0301 60.6535,81.0301 60.5,83.5C 59.8333,83.5 59.5,83.8333 59.5,84.5C 57.5,84.5 55.5,84.5 53.5,84.5C 54.1098,83.609 54.4431,82.609 54.5,81.5C 53.391,78.2672 52.5576,74.9338 52,71.5C 50.583,70.9221 49.7496,69.9221 49.5,68.5 Z"/></g>
<g><path style="opacity:1" fill="#12549a" d="M 75.5,73.5 C 75.281,74.675 75.6143,75.675 76.5,76.5C 77.4288,77.5498 78.0954,77.5498 78.5,76.5C 79.2216,76.9175 79.7216,77.5842 80,78.5C 83.1506,76.632 86.6506,75.632 90.5,75.5C 90.2077,77.9572 90.2077,80.6239 90.5,83.5C 84.7417,82.3939 78.9083,81.3939 73,80.5C 72.5172,81.448 72.3505,82.448 72.5,83.5C 72.1667,83.5 71.8333,83.5 71.5,83.5C 71.2786,80.7212 71.612,78.0545 72.5,75.5C 73.2223,74.4489 74.2223,73.7822 75.5,73.5 Z"/></g>
<g><path style="opacity:1" fill="#15569b" d="M 47.5,68.5 C 48.1667,68.5 48.8333,68.5 49.5,68.5C 49.7496,69.9221 50.583,70.9221 52,71.5C 52.5576,74.9338 53.391,78.2672 54.5,81.5C 49.3497,81.9328 44.3497,82.9328 39.5,84.5C 38.5,84.5 37.5,84.5 36.5,84.5C 35.8333,81.1667 35.1667,77.8333 34.5,74.5C 35.1667,74.5 35.8333,74.5 36.5,74.5C 39.9085,75.9034 43.5752,76.5701 47.5,76.5C 47.6347,74.4458 46.968,72.7791 45.5,71.5C 46.5,71.1667 47.1667,70.5 47.5,69.5C 47.5,69.1667 47.5,68.8333 47.5,68.5 Z"/></g>
<g><path style="opacity:1" fill="#918e77" d="M 49.5,72.5 C 51.0481,72.8212 51.7148,73.8212 51.5,75.5C 48.7524,75.5983 48.0857,74.5983 49.5,72.5 Z"/></g>
<g><path style="opacity:1" fill="#e0c46d" d="M 105.5,0.5 C 106.664,30.3305 106.831,60.3305 106,90.5C 105.051,92.0931 103.885,93.4264 102.5,94.5C 101.833,94.5 101.5,94.1667 101.5,93.5C 101.5,93.1667 101.5,92.8333 101.5,92.5C 101.987,91.5266 102.487,90.5266 103,89.5C 103.5,68.1693 103.667,46.8359 103.5,25.5C 104.268,26.2625 104.768,27.2625 105,28.5C 105.5,19.1726 105.666,9.83928 105.5,0.5 Z"/></g>
<g><path style="opacity:1" fill="#0a4d97" d="M 54.5,81.5 C 54.4431,82.609 54.1098,83.609 53.5,84.5C 52.5655,85.5676 52.2322,86.901 52.5,88.5C 51.5,88.5 50.5,88.5 49.5,88.5C 49.5,89.5 49.5,90.5 49.5,91.5C 49.1583,92.3382 48.4916,92.6716 47.5,92.5C 45.5191,92.0931 43.8525,90.7598 42.5,88.5C 41.147,87.4739 40.147,86.1405 39.5,84.5C 44.3497,82.9328 49.3497,81.9328 54.5,81.5 Z"/></g>
<g><path style="opacity:1" fill="#04458b" d="M 90.5,83.5 C 90.8333,83.5 91.1667,83.5 91.5,83.5C 92.2751,85.3881 92.2751,87.3881 91.5,89.5C 87.0547,88.02 82.7214,86.3534 78.5,84.5C 76.7354,83.5386 74.7354,83.2053 72.5,83.5C 72.3505,82.448 72.5172,81.448 73,80.5C 78.9083,81.3939 84.7417,82.3939 90.5,83.5 Z"/></g>
<g><path style="opacity:1" fill="#57a0c5" d="M 60.5,83.5 C 63.8333,83.5 67.1667,83.5 70.5,83.5C 70.5,84.8333 70.5,86.1667 70.5,87.5C 66.9817,86.8951 63.315,86.8951 59.5,87.5C 59.5,86.5 59.5,85.5 59.5,84.5C 59.5,83.8333 59.8333,83.5 60.5,83.5 Z"/></g>
<g><path style="opacity:1" fill="#2779bc" d="M 70.5,83.5 C 70.8333,83.5 71.1667,83.5 71.5,83.5C 71.8333,83.5 72.1667,83.5 72.5,83.5C 74.7354,83.2053 76.7354,83.5386 78.5,84.5C 78.4606,85.5832 78.1272,86.5832 77.5,87.5C 78.6119,88.2652 79.2786,89.2652 79.5,90.5C 78.8501,90.1961 78.1835,89.8627 77.5,89.5C 75.7539,91.8541 73.4206,92.8541 70.5,92.5C 66.8183,92.3347 63.1516,92.5014 59.5,93C 59.0426,93.414 58.7093,93.914 58.5,94.5C 60.1045,96.1789 60.7711,98.1789 60.5,100.5C 59.0689,100.119 58.2355,99.1193 58,97.5C 56.9614,98.2438 56.4614,99.2438 56.5,100.5C 56.1667,100.5 55.8333,100.5 55.5,100.5C 56.7713,97.7804 56.7713,94.1138 55.5,89.5C 53.3146,89.7036 51.3146,90.3702 49.5,91.5C 49.5,90.5 49.5,89.5 49.5,88.5C 50.5,88.5 51.5,88.5 52.5,88.5C 52.2322,86.901 52.5655,85.5676 53.5,84.5C 55.5,84.5 57.5,84.5 59.5,84.5C 59.5,85.5 59.5,86.5 59.5,87.5C 63.315,86.8951 66.9817,86.8951 70.5,87.5C 70.5,86.1667 70.5,84.8333 70.5,83.5 Z"/></g>
<g><path style="opacity:1" fill="#63a9c9" d="M 57.5,88.5 C 61.7032,88.0761 65.7032,88.5761 69.5,90C 65.7032,91.4239 61.7032,91.9239 57.5,91.5C 57.5,90.5 57.5,89.5 57.5,88.5 Z"/></g>
<g><path style="opacity:1" fill="#134f90" d="M 78.5,84.5 C 82.7214,86.3534 87.0547,88.02 91.5,89.5C 90.1938,90.4674 89.5271,91.8007 89.5,93.5C 86.6613,93.9688 83.9946,93.9688 81.5,93.5C 80.8333,92.5 80.1667,91.5 79.5,90.5C 79.2786,89.2652 78.6119,88.2652 77.5,87.5C 78.1272,86.5832 78.4606,85.5832 78.5,84.5 Z"/></g>
<g><path style="opacity:1" fill="#064081" d="M 32.5,84.5 C 33.8333,84.5 35.1667,84.5 36.5,84.5C 37.5,84.5 38.5,84.5 39.5,84.5C 40.147,86.1405 41.147,87.4739 42.5,88.5C 39.9373,89.1999 37.4373,90.1999 35,91.5C 34.0979,91.2568 33.2646,90.9234 32.5,90.5C 32.5,89.8333 32.5,89.1667 32.5,88.5C 31.1225,87.7656 29.6225,87.0989 28,86.5C 26.9125,88.9316 26.4125,88.5983 26.5,85.5C 28.7354,85.7947 30.7354,85.4614 32.5,84.5 Z"/></g>
<g><path style="opacity:1" fill="#154c86" d="M 42.5,88.5 C 43.8525,90.7598 45.5191,92.0931 47.5,92.5C 47.5,93.5 47.5,94.5 47.5,95.5C 46.209,95.2627 45.209,95.596 44.5,96.5C 42.7868,97.6354 42.1201,99.302 42.5,101.5C 39.905,99.3128 37.905,99.9795 36.5,103.5C 35.8333,103.167 35.1667,102.833 34.5,102.5C 35.4749,100.807 36.8082,99.3073 38.5,98C 37.1667,98 35.8333,98 34.5,98C 35.3567,97.3109 36.0233,96.4776 36.5,95.5C 35.233,93.6829 33.8997,92.0163 32.5,90.5C 33.2646,90.9234 34.0979,91.2568 35,91.5C 37.4373,90.1999 39.9373,89.1999 42.5,88.5 Z"/></g>
<g><path style="opacity:1" fill="#4e627e" d="M 101.5,88.5 C 101.167,89.8333 100.833,91.1667 100.5,92.5C 96.8333,96.5 93.1667,100.5 89.5,104.5C 89.1788,102.952 88.1788,102.285 86.5,102.5C 86.3691,101.624 86.7025,100.957 87.5,100.5C 91.3673,101.487 91.3673,100.987 87.5,99C 91.1189,94.9259 94.6189,90.7593 98,86.5C 98.8159,87.8228 99.9826,88.4894 101.5,88.5 Z"/></g>
<g><path style="opacity:1" fill="#0f64ba" d="M 55.5,100.5 C 51.8333,100.5 48.1667,100.5 44.5,100.5C 44.5,99.1667 44.5,97.8333 44.5,96.5C 45.209,95.596 46.209,95.2627 47.5,95.5C 47.5,94.5 47.5,93.5 47.5,92.5C 48.4916,92.6716 49.1583,92.3382 49.5,91.5C 51.3146,90.3702 53.3146,89.7036 55.5,89.5C 56.7713,94.1138 56.7713,97.7804 55.5,100.5 Z"/></g>
<g><path style="opacity:1" fill="#1e67b7" d="M 79.5,90.5 C 80.1667,91.5 80.8333,92.5 81.5,93.5C 82.449,95.7373 83.1156,98.0706 83.5,100.5C 80.1667,100.5 76.8333,100.5 73.5,100.5C 72.0413,100.567 70.7079,100.234 69.5,99.5C 70.2684,97.089 70.6018,94.7556 70.5,92.5C 73.4206,92.8541 75.7539,91.8541 77.5,89.5C 78.1835,89.8627 78.8501,90.1961 79.5,90.5 Z"/></g>
<g><path style="opacity:1" fill="#5792bd" d="M 70.5,92.5 C 70.6018,94.7556 70.2684,97.089 69.5,99.5C 66.8721,99.5374 64.2054,99.8708 61.5,100.5C 61.1667,100.5 60.8333,100.5 60.5,100.5C 60.7711,98.1789 60.1045,96.1789 58.5,94.5C 58.7093,93.914 59.0426,93.414 59.5,93C 63.1516,92.5014 66.8183,92.3347 70.5,92.5 Z"/></g>
<g><path style="opacity:1" fill="#425d80" d="M 32.5,88.5 C 32.5,89.1667 32.5,89.8333 32.5,90.5C 33.8997,92.0163 35.233,93.6829 36.5,95.5C 36.0233,96.4776 35.3567,97.3109 34.5,98C 35.8333,98 37.1667,98 38.5,98C 36.8082,99.3073 35.4749,100.807 34.5,102.5C 31.9362,99.7198 29.6029,96.7198 27.5,93.5C 28.2389,93.631 28.9056,93.4643 29.5,93C 27.9926,92.1627 27.4926,90.9961 28,89.5C 28.3333,89.8333 28.6667,90.1667 29,90.5C 29.7096,89.0267 30.8762,88.3601 32.5,88.5 Z"/></g>
<g><path style="opacity:0.875" fill="#f2df94" d="M 22.5,72.5 C 22.1778,78.358 22.5111,84.0247 23.5,89.5C 23.5,90.8333 24.1667,91.5 25.5,91.5C 30.0238,101.36 37.0238,109.027 46.5,114.5C 48.0269,114.427 49.0269,115.094 49.5,116.5C 52.1899,119.365 55.5233,121.531 59.5,123C 63.1421,124.07 66.1421,123.236 68.5,120.5C 68.8333,120.5 69.1667,120.5 69.5,120.5C 70.1667,120.5 70.8333,120.5 71.5,120.5C 71.8417,121.338 72.5084,121.672 73.5,121.5C 70.3418,123.551 67.0085,125.217 63.5,126.5C 63.1667,126.5 62.8333,126.5 62.5,126.5C 44.1703,119.176 30.1703,106.842 20.5,89.5C 21.1667,83.8333 21.8333,78.1667 22.5,72.5 Z"/></g>
<g><path style="opacity:1" fill="#4c607c" d="M 42.5,101.5 C 41.8888,103.775 40.5554,105.441 38.5,106.5C 37.0937,106.027 36.427,105.027 36.5,103.5C 37.905,99.9795 39.905,99.3128 42.5,101.5 Z"/></g>
<g><path style="opacity:1" fill="#d0d4c9" d="M 25.5,91.5 C 26.1667,92.1667 26.8333,92.8333 27.5,93.5C 29.6029,96.7198 31.9362,99.7198 34.5,102.5C 35.1667,102.833 35.8333,103.167 36.5,103.5C 36.427,105.027 37.0937,106.027 38.5,106.5C 41.4729,108.806 44.1395,111.473 46.5,114.5C 37.0238,109.027 30.0238,101.36 25.5,91.5 Z"/></g>
<g><path style="opacity:1" fill="#11427d" d="M 44.5,96.5 C 44.5,97.8333 44.5,99.1667 44.5,100.5C 48.1667,100.5 51.8333,100.5 55.5,100.5C 55.8333,100.5 56.1667,100.5 56.5,100.5C 55.5392,103.426 54.8726,106.426 54.5,109.5C 56.5,109.5 58.5,109.5 60.5,109.5C 59.5946,110.964 59.5946,112.298 60.5,113.5C 59.3684,114.354 58.035,114.354 56.5,113.5C 55.3303,115.279 53.6636,116.279 51.5,116.5C 51.1667,116.5 50.8333,116.5 50.5,116.5C 51.1468,113.835 52.4801,112.502 54.5,112.5C 50.8781,110.092 47.5448,107.425 44.5,104.5C 42.6663,105.754 40.6663,106.421 38.5,106.5C 40.5554,105.441 41.8888,103.775 42.5,101.5C 42.1201,99.302 42.7868,97.6354 44.5,96.5 Z"/></g>
<g><path style="opacity:1" fill="#d5ba6a" d="M 101.5,93.5 C 101.5,94.1667 101.833,94.5 102.5,94.5C 95.0711,105.93 85.4045,114.93 73.5,121.5C 72.5084,121.672 71.8417,121.338 71.5,120.5C 83.3673,113.636 93.3673,104.636 101.5,93.5 Z"/></g>
<g><path style="opacity:1" fill="#0d4385" d="M 60.5,100.5 C 60.8333,100.5 61.1667,100.5 61.5,100.5C 61.8212,102.048 62.8212,102.715 64.5,102.5C 64.5,103.833 64.5,105.167 64.5,106.5C 65.675,106.281 66.675,106.614 67.5,107.5C 65.0312,108.168 62.6979,108.835 60.5,109.5C 58.5,109.5 56.5,109.5 54.5,109.5C 54.8726,106.426 55.5392,103.426 56.5,100.5C 56.4614,99.2438 56.9614,98.2438 58,97.5C 58.2355,99.1193 59.0689,100.119 60.5,100.5 Z"/></g>
<g><path style="opacity:1" fill="#063a7a" d="M 69.5,99.5 C 70.7079,100.234 72.0413,100.567 73.5,100.5C 73.5569,101.609 73.8902,102.609 74.5,103.5C 74.5858,104.496 74.2524,105.329 73.5,106C 76.0691,107.878 75.7357,109.378 72.5,110.5C 71.8076,109.975 71.3076,109.308 71,108.5C 70.7679,109.737 70.2679,110.737 69.5,111.5C 69.5,107.5 69.5,103.5 69.5,99.5 Z"/></g>
<g><path style="opacity:1" fill="#395070" d="M 86.5,102.5 C 88.1788,102.285 89.1788,102.952 89.5,104.5C 86.5852,107.959 83.2518,110.959 79.5,113.5C 78.8333,112.833 78.1667,112.167 77.5,111.5C 77.7024,110.636 78.0357,109.636 78.5,108.5C 79.086,108.709 79.586,109.043 80,109.5C 81.3988,108.773 82.8988,108.273 84.5,108C 81.0945,107.397 80.7612,106.231 83.5,104.5C 86.204,107.392 86.8706,107.058 85.5,103.5C 86.1667,103.5 86.5,103.167 86.5,102.5 Z"/></g>
<g><path style="opacity:1" fill="#768798" d="M 85.5,103.5 C 86.8706,107.058 86.204,107.392 83.5,104.5C 80.7612,106.231 81.0945,107.397 84.5,108C 82.8988,108.273 81.3988,108.773 80,109.5C 79.586,109.043 79.086,108.709 78.5,108.5C 78.0357,109.636 77.7024,110.636 77.5,111.5C 76.5655,110.432 76.2322,109.099 76.5,107.5C 78.4832,107.843 79.8166,107.176 80.5,105.5C 81.8233,103.318 83.4899,102.651 85.5,103.5 Z"/></g>
<g><path style="opacity:1" fill="#134884" d="M 69.5,99.5 C 69.5,103.5 69.5,107.5 69.5,111.5C 69.5,112.833 68.8333,113.5 67.5,113.5C 65.3742,113.85 63.0408,113.85 60.5,113.5C 59.5946,112.298 59.5946,110.964 60.5,109.5C 62.6979,108.835 65.0312,108.168 67.5,107.5C 66.675,106.614 65.675,106.281 64.5,106.5C 64.5,105.167 64.5,103.833 64.5,102.5C 62.8212,102.715 61.8212,102.048 61.5,100.5C 64.2054,99.8708 66.8721,99.5374 69.5,99.5 Z"/></g>
<g><path style="opacity:1" fill="#e4e2cb" d="M 100.5,92.5 C 100.833,92.5 101.167,92.5 101.5,92.5C 101.5,92.8333 101.5,93.1667 101.5,93.5C 93.3673,104.636 83.3673,113.636 71.5,120.5C 70.8333,120.5 70.1667,120.5 69.5,120.5C 72.7959,118.179 76.1292,115.846 79.5,113.5C 83.2518,110.959 86.5852,107.959 89.5,104.5C 93.1667,100.5 96.8333,96.5 100.5,92.5 Z"/></g>
<g><path style="opacity:1" fill="#465c7c" d="M 50.5,116.5 C 50.1667,116.5 49.8333,116.5 49.5,116.5C 49.0269,115.094 48.0269,114.427 46.5,114.5C 44.1395,111.473 41.4729,108.806 38.5,106.5C 40.6663,106.421 42.6663,105.754 44.5,104.5C 47.5448,107.425 50.8781,110.092 54.5,112.5C 52.4801,112.502 51.1468,113.835 50.5,116.5 Z"/></g>
<g><path style="opacity:1" fill="#1b3d69" d="M 56.5,113.5 C 58.035,114.354 59.3684,114.354 60.5,113.5C 63.0408,113.85 65.3742,113.85 67.5,113.5C 67.5,115.833 67.5,118.167 67.5,120.5C 63.4005,122.825 59.4005,122.492 55.5,119.5C 55.7512,117.83 56.4178,116.33 57.5,115C 56.944,114.617 56.6107,114.117 56.5,113.5 Z"/></g>
<g><path style="opacity:1" fill="#354a6e" d="M 74.5,103.5 C 76.9418,103.119 77.6085,103.786 76.5,105.5C 77.8084,106.626 79.1417,106.626 80.5,105.5C 79.8166,107.176 78.4832,107.843 76.5,107.5C 76.2322,109.099 76.5655,110.432 77.5,111.5C 78.1667,112.167 78.8333,112.833 79.5,113.5C 76.1292,115.846 72.7959,118.179 69.5,120.5C 69.1667,120.5 68.8333,120.5 68.5,120.5C 68.1667,120.5 67.8333,120.5 67.5,120.5C 67.5,118.167 67.5,115.833 67.5,113.5C 68.8333,113.5 69.5,112.833 69.5,111.5C 70.2679,110.737 70.7679,109.737 71,108.5C 71.3076,109.308 71.8076,109.975 72.5,110.5C 75.7357,109.378 76.0691,107.878 73.5,106C 74.2524,105.329 74.5858,104.496 74.5,103.5 Z"/></g>
<g><path style="opacity:1" fill="#717a87" d="M 56.5,113.5 C 56.6107,114.117 56.944,114.617 57.5,115C 56.4178,116.33 55.7512,117.83 55.5,119.5C 53.7697,118.974 52.4363,117.974 51.5,116.5C 53.6636,116.279 55.3303,115.279 56.5,113.5 Z"/></g>
<g><path style="opacity:1" fill="#e2dfcc" d="M 49.5,116.5 C 49.8333,116.5 50.1667,116.5 50.5,116.5C 50.8333,116.5 51.1667,116.5 51.5,116.5C 52.4363,117.974 53.7697,118.974 55.5,119.5C 59.4005,122.492 63.4005,122.825 67.5,120.5C 67.8333,120.5 68.1667,120.5 68.5,120.5C 66.1421,123.236 63.1421,124.07 59.5,123C 55.5233,121.531 52.1899,119.365 49.5,116.5 Z"/></g>
</svg>
